SplineFontDB: 3.2
FontName: DroidSans-BoldOblique
FullName: Droid Sans Bold Oblique
FamilyName: Droid Sans
Weight: Bold
Copyright: Digitized data copyright (c) 2007, Google Corporation.\nCopyright (c) 2020 Timur I. Davletshin.
Version: 1.1
ItalicAngle: -10
UnderlinePosition: -205
UnderlineWidth: 102
Ascent: 1638
Descent: 410
InvalidEm: 0
sfntRevision: 0x00010000
LayerCount: 2
Layer: 0 1 "Back" 1
Layer: 1 1 "Fore" 0
XUID: [1021 174 1367136929 11535282]
StyleMap: 0x0020
FSType: 8
OS2Version: 3
OS2_WeightWidthSlopeOnly: 0
OS2_UseTypoMetrics: 0
CreationTime: 1165263476
ModificationTime: 1607581515
PfmFamily: 17
TTFWeight: 700
TTFWidth: 5
LineGap: 0
VLineGap: 0
Panose: 2 11 8 6 3 8 4 2 2 4
OS2TypoAscent: 1567
OS2TypoAOffset: 0
OS2TypoDescent: -492
OS2TypoDOffset: 0
OS2TypoLinegap: 132
OS2WinAscent: 1901
OS2WinAOffset: 0
OS2WinDescent: 483
OS2WinDOffset: 0
HheadAscent: 1901
HheadAOffset: 0
HheadDescent: -483
HheadDOffset: 0
OS2SubXSize: 1434
OS2SubYSize: 1331
OS2SubXOff: 0
OS2SubYOff: 286
OS2SupXSize: 1434
OS2SupYSize: 1331
OS2SupXOff: 0
OS2SupYOff: 976
OS2StrikeYSize: 102
OS2StrikeYPos: 508
OS2CapHeight: 1462
OS2XHeight: 1118
OS2Vendor: '1ASC'
OS2CodePages: 2000019f.00000000
OS2UnicodeRanges: e00002ef.4000205b.00000028.00000000
Lookup: 1 0 0 "Single Substitution lookup 0" { "Single Substitution lookup 0 lookup"  } []
Lookup: 6 0 0 "'ccmp' Glyph Composition/Decomposition lookup 1" { "'ccmp' Glyph Composition/Decomposition lookup 1 subtable"  } ['ccmp' ('DFLT' <'dflt' > 'cyrl' <'dflt' > 'grek' <'dflt' > 'latn' <'dflt' > ) ]
Lookup: 4 0 1 "'liga' Standard Ligatures in Latin lookup 2" { "'liga' Standard Ligatures in Latin lookup 2 subtable"  } ['liga' ('DFLT' <'dflt' > 'latn' <'dflt' > ) ]
Lookup: 260 0 0 "'mark' Mark Positioning in Latin lookup 0" { "'mark' Mark Positioning in Latin lookup 0"  } ['mark' ('DFLT' <'dflt' > 'cyrl' <'dflt' > 'grek' <'dflt' > 'latn' <'dflt' > ) ]

StartChar: .notdef
Encoding: 65536 -1 0
Width: 1229
GlyphClass: 2
Flags: MW
LayerCount: 2
Fore
SplineSet
451 1462 m 1,0,-1
 1292 1462 l 1,1,-1
 1034 0 l 1,2,-1
 193 0 l 1,3,-1
 451 1462 l 1,0,-1
315 104 m 1,4,-1
 948 104 l 1,5,-1
 1169 1358 l 1,6,-1
 536 1358 l 1,7,-1
 315 104 l 1,4,-1
EndSplineSet
EndChar

StartChar: exclam
Encoding: 33 33 4
Width: 586
GlyphClass: 2
Flags: MW
LayerCount: 2
Fore
SplineSet
502 485 m 1,0,-1
 258 485 l 1,1,-1
 379 1462 l 1,2,-1
 725 1462 l 1,3,-1
 502 485 l 1,0,-1
142 143 m 0,4,5
 150 190 150 190 169.5 222.5 c 128,-1,6
 189 255 189 255 216.5 275 c 128,-1,7
 244 295 244 295 277.5 304 c 128,-1,8
 311 313 311 313 348 313 c 0,9,10
 383 313 383 313 413 304 c 128,-1,11
 443 295 443 295 463.5 275 c 128,-1,12
 484 255 484 255 492.5 222.5 c 128,-1,13
 501 190 501 190 492 143 c 0,14,15
 484 98 484 98 464.5 66 c 128,-1,16
 445 34 445 34 417.5 13 c 128,-1,17
 390 -8 390 -8 356.5 -17.5 c 128,-1,18
 323 -27 323 -27 288 -27 c 0,19,20
 251 -27 251 -27 221 -17.5 c 128,-1,21
 191 -8 191 -8 170.5 13 c 128,-1,22
 150 34 150 34 142 66 c 128,-1,23
 134 98 134 98 142 143 c 0,4,5
EndSplineSet
EndChar

StartChar: quotedbl
Encoding: 34 34 5
Width: 967
GlyphClass: 2
Flags: MW
LayerCount: 2
Fore
SplineSet
670 1462 m 1,0,-1
 536 934 l 1,1,-1
 339 934 l 1,2,-1
 391 1462 l 1,3,-1
 670 1462 l 1,0,-1
1092 1462 m 1,4,-1
 958 934 l 1,5,-1
 761 934 l 1,6,-1
 813 1462 l 1,7,-1
 1092 1462 l 1,4,-1
EndSplineSet
EndChar

StartChar: numbersign
Encoding: 35 35 6
Width: 1323
GlyphClass: 2
Flags: MW
LayerCount: 2
Fore
SplineSet
1148 844 m 1,0,-1
 1060 612 l 1,1,-1
 1318 612 l 1,2,-1
 1282 406 l 1,3,-1
 985 406 l 1,4,-1
 836 0 l 1,5,-1
 616 0 l 1,6,-1
 766 406 l 1,7,-1
 572 406 l 1,8,-1
 424 0 l 1,9,-1
 209 0 l 1,10,-1
 355 406 l 1,11,-1
 117 406 l 1,12,-1
 153 612 l 1,13,-1
 430 612 l 1,14,-1
 518 844 l 1,15,-1
 266 844 l 1,16,-1
 303 1053 l 1,17,-1
 592 1053 l 1,18,-1
 740 1460 l 1,19,-1
 959 1460 l 1,20,-1
 811 1053 l 1,21,-1
 1009 1053 l 1,22,-1
 1158 1460 l 1,23,-1
 1373 1460 l 1,24,-1
 1224 1053 l 1,25,-1
 1464 1053 l 1,26,-1
 1427 844 l 1,27,-1
 1148 844 l 1,0,-1
647 612 m 1,28,-1
 843 612 l 1,29,-1
 931 844 l 1,30,-1
 735 844 l 1,31,-1
 647 612 l 1,28,-1
EndSplineSet
EndChar

StartChar: dollar
Encoding: 36 36 7
Width: 1128
GlyphClass: 2
Flags: MW
LayerCount: 2
Fore
SplineSet
1142 457 m 0,0,1
 1129 382 1129 382 1091 318 c 128,-1,2
 1053 254 1053 254 992 206 c 128,-1,3
 931 158 931 158 847.5 127 c 128,-1,4
 764 96 764 96 660 86 c 1,5,-1
 624 -119 l 1,6,-1
 487 -119 l 1,7,-1
 522 82 l 1,8,9
 456 84 456 84 401.5 90 c 128,-1,10
 347 96 347 96 300 107 c 128,-1,11
 253 118 253 118 211 133.5 c 128,-1,12
 169 149 169 149 130 168 c 1,13,-1
 176 432 l 1,14,15
 214 411 214 411 260.5 392 c 128,-1,16
 307 373 307 373 357 357.5 c 128,-1,17
 407 342 407 342 459.5 331 c 128,-1,18
 512 320 512 320 564 317 c 1,19,-1
 620 635 l 1,20,21
 613 638 613 638 604 642 c 0,22,23
 597 645 597 645 589.5 648 c 128,-1,24
 582 651 582 651 576 653 c 0,25,26
 491 688 491 688 430 726 c 128,-1,27
 369 764 369 764 331.5 811 c 128,-1,28
 294 858 294 858 281.5 915 c 128,-1,29
 269 972 269 972 282 1044 c 0,30,31
 295 1119 295 1119 334.5 1180.5 c 128,-1,32
 374 1242 374 1242 435 1287.5 c 128,-1,33
 496 1333 496 1333 577 1361.5 c 128,-1,34
 658 1390 658 1390 755 1399 c 1,35,-1
 782 1556 l 1,36,-1
 919 1556 l 1,37,-1
 893 1405 l 1,38,39
 979 1400 979 1400 1066.5 1380 c 128,-1,40
 1154 1360 1154 1360 1246 1317 c 1,41,-1
 1104 1083 l 1,42,43
 1044 1109 1044 1109 977 1129.5 c 128,-1,44
 910 1150 910 1150 849 1155 c 1,45,-1
 797 862 l 1,46,-1
 834 848 l 2,47,48
 923 813 923 813 987 776 c 128,-1,49
 1051 739 1051 739 1090 693 c 128,-1,50
 1129 647 1129 647 1142 590 c 128,-1,51
 1155 533 1155 533 1142 457 c 0,0,1
840 451 m 0,52,53
 844 475 844 475 840.5 493 c 128,-1,54
 837 511 837 511 825.5 526 c 128,-1,55
 814 541 814 541 795 553.5 c 128,-1,56
 776 566 776 566 747 580 c 1,57,-1
 703 328 l 1,58,59
 764 337 764 337 797 367 c 128,-1,60
 830 397 830 397 840 451 c 0,52,53
584 1051 m 0,61,62
 576 1004 576 1004 596.5 972.5 c 128,-1,63
 617 941 617 941 670 920 c 1,64,-1
 711 1153 l 1,65,66
 656 1147 656 1147 624 1123 c 128,-1,67
 592 1099 592 1099 584 1051 c 0,61,62
EndSplineSet
EndChar

StartChar: percent
Encoding: 37 37 8
Width: 1804
GlyphClass: 2
Flags: MW
LayerCount: 2
Fore
SplineSet
496 1024 m 256,0,1
 474 897 474 897 485 834.5 c 128,-1,2
 496 772 496 772 546 772 c 0,3,4
 595 772 595 772 629.5 834 c 128,-1,5
 664 896 664 896 687 1024 c 0,6,7
 731 1274 731 1274 635 1274 c 0,8,9
 585 1274 585 1274 551.5 1212.5 c 128,-1,10
 518 1151 518 1151 496 1024 c 256,0,1
939 1026 m 256,11,12
 920 918 920 918 884.5 832 c 128,-1,13
 849 746 849 746 795.5 687 c 128,-1,14
 742 628 742 628 670.5 596.5 c 128,-1,15
 599 565 599 565 508 565 c 0,16,17
 423 565 423 565 364 596.5 c 128,-1,18
 305 628 305 628 272 687 c 128,-1,19
 239 746 239 746 232 832 c 128,-1,20
 225 918 225 918 244 1026 c 256,21,22
 263 1134 263 1134 298 1219 c 128,-1,23
 333 1304 333 1304 386 1362.5 c 128,-1,24
 439 1421 439 1421 509 1452 c 128,-1,25
 579 1483 579 1483 669 1483 c 0,26,27
 755 1483 755 1483 815.5 1452 c 128,-1,28
 876 1421 876 1421 909.5 1362.5 c 128,-1,29
 943 1304 943 1304 950.5 1219 c 128,-1,30
 958 1134 958 1134 939 1026 c 256,11,12
1683 1462 m 1,31,-1
 614 0 l 1,32,-1
 375 0 l 1,33,-1
 1444 1462 l 1,34,-1
 1683 1462 l 1,31,-1
1376 440 m 256,35,36
 1354 313 1354 313 1365 250.5 c 128,-1,37
 1376 188 1376 188 1426 188 c 0,38,39
 1475 188 1475 188 1509.5 250 c 128,-1,40
 1544 312 1544 312 1567 440 c 0,41,42
 1611 690 1611 690 1515 690 c 0,43,44
 1465 690 1465 690 1431.5 628.5 c 128,-1,45
 1398 567 1398 567 1376 440 c 256,35,36
1819 442 m 256,46,47
 1800 334 1800 334 1764.5 248.5 c 128,-1,48
 1729 163 1729 163 1675.5 104 c 128,-1,49
 1622 45 1622 45 1550.5 13.5 c 128,-1,50
 1479 -18 1479 -18 1388 -18 c 0,51,52
 1303 -18 1303 -18 1244.5 13.5 c 128,-1,53
 1186 45 1186 45 1153 104 c 128,-1,54
 1120 163 1120 163 1113 248.5 c 128,-1,55
 1106 334 1106 334 1125 442 c 256,56,57
 1144 550 1144 550 1179 635 c 128,-1,58
 1214 720 1214 720 1266.5 778.5 c 128,-1,59
 1319 837 1319 837 1389.5 868 c 128,-1,60
 1460 899 1460 899 1550 899 c 0,61,62
 1636 899 1636 899 1696 868 c 128,-1,63
 1756 837 1756 837 1789.5 778.5 c 128,-1,64
 1823 720 1823 720 1830.5 635 c 128,-1,65
 1838 550 1838 550 1819 442 c 256,46,47
EndSplineSet
EndChar

StartChar: ampersand
Encoding: 38 38 9
Width: 1479
GlyphClass: 2
Flags: MW
LayerCount: 2
Fore
SplineSet
1475 0 m 1,0,-1
 1098 0 l 1,1,-1
 1019 100 l 1,2,3
 929 45 929 45 826.5 12.5 c 128,-1,4
 724 -20 724 -20 608 -20 c 0,5,6
 488 -20 488 -20 396 10 c 128,-1,7
 304 40 304 40 244 94.5 c 128,-1,8
 184 149 184 149 159.5 225.5 c 128,-1,9
 135 302 135 302 152 395 c 0,10,11
 166 472 166 472 195 532.5 c 128,-1,12
 224 593 224 593 266.5 642 c 128,-1,13
 309 691 309 691 364.5 731 c 128,-1,14
 420 771 420 771 486 807 c 1,15,16
 456 853 456 853 437 895.5 c 128,-1,17
 418 938 418 938 409.5 979.5 c 128,-1,18
 401 1021 401 1021 401.5 1062.5 c 128,-1,19
 402 1104 402 1104 410 1149 c 0,20,21
 424 1227 424 1227 465 1288.5 c 128,-1,22
 506 1350 506 1350 568 1393.5 c 128,-1,23
 630 1437 630 1437 709.5 1460 c 128,-1,24
 789 1483 789 1483 879 1483 c 0,25,26
 965 1483 965 1483 1034 1462 c 128,-1,27
 1103 1441 1103 1441 1148.5 1400.5 c 128,-1,28
 1194 1360 1194 1360 1213.5 1300.5 c 128,-1,29
 1233 1241 1233 1241 1219 1165 c 0,30,31
 1207 1096 1207 1096 1174.5 1038.5 c 128,-1,32
 1142 981 1142 981 1095.5 932 c 128,-1,33
 1049 883 1049 883 990 842 c 128,-1,34
 931 801 931 801 866 766 c 1,35,-1
 1079 498 l 1,36,37
 1126 564 1126 564 1165 637 c 128,-1,38
 1204 710 1204 710 1236 784 c 1,39,-1
 1553 784 l 1,40,41
 1528 727 1528 727 1496.5 664 c 128,-1,42
 1465 601 1465 601 1427 537.5 c 128,-1,43
 1389 474 1389 474 1342.5 411 c 128,-1,44
 1296 348 1296 348 1243 291 c 1,45,-1
 1475 0 l 1,0,-1
478 424 m 0,46,47
 470 380 470 380 480 345 c 128,-1,48
 490 310 490 310 514 286 c 128,-1,49
 538 262 538 262 574.5 249 c 128,-1,50
 611 236 611 236 656 236 c 0,51,52
 716 236 716 236 769.5 251.5 c 128,-1,53
 823 267 823 267 871 295 c 1,54,-1
 620 625 l 1,55,56
 562 583 562 583 525.5 535 c 128,-1,57
 489 487 489 487 478 424 c 0,46,47
929 1124 m 0,58,59
 934 1155 934 1155 928 1176.5 c 128,-1,60
 922 1198 922 1198 908 1212 c 128,-1,61
 894 1226 894 1226 874.5 1232.5 c 128,-1,62
 855 1239 855 1239 834 1239 c 0,63,64
 812 1239 812 1239 788.5 1233 c 128,-1,65
 765 1227 765 1227 744.5 1213.5 c 128,-1,66
 724 1200 724 1200 708.5 1177.5 c 128,-1,67
 693 1155 693 1155 687 1122 c 0,68,69
 678 1070 678 1070 692.5 1024 c 128,-1,70
 707 978 707 978 739 932 c 1,71,72
 824 976 824 976 871 1020 c 128,-1,73
 918 1064 918 1064 929 1124 c 0,58,59
EndSplineSet
EndChar

StartChar: quotesingle
Encoding: 39 39 10
Width: 545
GlyphClass: 2
Flags: MW
LayerCount: 2
Fore
SplineSet
670 1462 m 1,0,-1
 536 934 l 1,1,-1
 339 934 l 1,2,-1
 391 1462 l 1,3,-1
 670 1462 l 1,0,-1
EndSplineSet
EndChar

StartChar: parenleft
Encoding: 40 40 11
Width: 694
GlyphClass: 2
Flags: MW
LayerCount: 2
Fore
SplineSet
181 561 m 0,0,1
 203 686 203 686 242.5 807.5 c 128,-1,2
 282 929 282 929 339 1043.5 c 128,-1,3
 396 1158 396 1158 471 1263.5 c 128,-1,4
 546 1369 546 1369 641 1462 c 1,5,-1
 891 1462 l 1,6,7
 716 1269 716 1269 603 1038 c 128,-1,8
 490 807 490 807 447 563 c 0,9,10
 426 444 426 444 423.5 326 c 128,-1,11
 421 208 421 208 437 95 c 128,-1,12
 453 -18 453 -18 487 -124 c 128,-1,13
 521 -230 521 -230 574 -324 c 1,14,-1
 326 -324 l 1,15,16
 264 -234 264 -234 225.5 -131 c 128,-1,17
 187 -28 187 -28 170 84.5 c 128,-1,18
 153 197 153 197 156 317 c 128,-1,19
 159 437 159 437 181 561 c 0,0,1
EndSplineSet
EndChar

StartChar: parenright
Encoding: 41 41 12
Width: 694
GlyphClass: 2
Flags: MW
LayerCount: 2
Fore
SplineSet
711 561 m 0,0,1
 689 437 689 437 650 317 c 128,-1,2
 611 197 611 197 554 84.5 c 128,-1,3
 497 -28 497 -28 422.5 -131 c 128,-1,4
 348 -234 348 -234 254 -324 c 1,5,-1
 6 -324 l 1,6,7
 92 -230 92 -230 163.5 -124 c 128,-1,8
 235 -18 235 -18 291 95 c 128,-1,9
 347 208 347 208 385.5 326 c 128,-1,10
 424 444 424 444 445 563 c 0,11,12
 488 807 488 807 457 1038 c 128,-1,13
 426 1269 426 1269 319 1462 c 1,14,-1
 569 1462 l 1,15,16
 631 1369 631 1369 668.5 1263.5 c 128,-1,17
 706 1158 706 1158 723 1043.5 c 128,-1,18
 740 929 740 929 736.5 807.5 c 128,-1,19
 733 686 733 686 711 561 c 0,0,1
EndSplineSet
EndChar

StartChar: asterisk
Encoding: 42 42 13
Width: 1116
GlyphClass: 2
Flags: MW
LayerCount: 2
Fore
SplineSet
962 1556 m 1,0,-1
 856 1188 l 1,1,-1
 1248 1292 l 1,2,-1
 1236 1040 l 1,3,-1
 892 1016 l 1,4,-1
 1063 719 l 1,5,-1
 814 598 l 1,6,-1
 714 911 l 1,7,-1
 522 600 l 1,8,-1
 307 719 l 1,9,-1
 580 1016 l 1,10,-1
 247 1042 l 1,11,-1
 330 1292 l 1,12,-1
 676 1188 l 1,13,-1
 700 1556 l 1,14,-1
 962 1556 l 1,0,-1
EndSplineSet
EndChar

StartChar: plus
Encoding: 43 43 14
Width: 1128
GlyphClass: 2
Flags: MW
LayerCount: 2
Fore
SplineSet
563 612 m 1,0,-1
 196 612 l 1,1,-1
 235 831 l 1,2,-1
 602 831 l 1,3,-1
 667 1200 l 1,4,-1
 886 1200 l 1,5,-1
 821 831 l 1,6,-1
 1187 831 l 1,7,-1
 1148 612 l 1,8,-1
 782 612 l 1,9,-1
 718 248 l 1,10,-1
 499 248 l 1,11,-1
 563 612 l 1,0,-1
EndSplineSet
EndChar

StartChar: comma
Encoding: 44 44 15
Width: 594
GlyphClass: 2
Flags: MW
LayerCount: 2
Fore
SplineSet
497 215 m 1,0,1
 473 161 473 161 443 100 c 128,-1,2
 413 39 413 39 378.5 -23 c 128,-1,3
 344 -85 344 -85 307.5 -146.5 c 128,-1,4
 271 -208 271 -208 236 -264 c 1,5,-1
 16 -264 l 1,6,7
 42 -203 42 -203 68 -137 c 128,-1,8
 94 -71 94 -71 119.5 -5.5 c 128,-1,9
 145 60 145 60 167 122.5 c 128,-1,10
 189 185 189 185 206 238 c 1,11,-1
 486 238 l 1,12,-1
 497 215 l 1,0,1
EndSplineSet
EndChar

StartChar: hyphen
Encoding: 45 45 16
Width: 659
GlyphClass: 2
Flags: MW
LayerCount: 2
Fore
SplineSet
136 424 m 1,0,-1
 180 674 l 1,1,-1
 717 674 l 1,2,-1
 673 424 l 1,3,-1
 136 424 l 1,0,-1
EndSplineSet
EndChar

StartChar: period
Encoding: 46 46 17
Width: 584
GlyphClass: 2
Flags: MW
LayerCount: 2
Fore
SplineSet
142 143 m 0,0,1
 150 190 150 190 169.5 222.5 c 128,-1,2
 189 255 189 255 216.5 275 c 128,-1,3
 244 295 244 295 277.5 304 c 128,-1,4
 311 313 311 313 348 313 c 0,5,6
 383 313 383 313 413 304 c 128,-1,7
 443 295 443 295 463.5 275 c 128,-1,8
 484 255 484 255 492.5 222.5 c 128,-1,9
 501 190 501 190 492 143 c 0,10,11
 484 98 484 98 464.5 66 c 128,-1,12
 445 34 445 34 417.5 13 c 128,-1,13
 390 -8 390 -8 356.5 -17.5 c 128,-1,14
 323 -27 323 -27 288 -27 c 0,15,16
 251 -27 251 -27 221 -17.5 c 128,-1,17
 191 -8 191 -8 170.5 13 c 128,-1,18
 150 34 150 34 142 66 c 128,-1,19
 134 98 134 98 142 143 c 0,0,1
EndSplineSet
EndChar

StartChar: slash
Encoding: 47 47 18
Width: 846
GlyphClass: 2
Flags: MW
LayerCount: 2
Fore
SplineSet
1094 1462 m 1,0,-1
 291 0 l 1,1,-1
 14 0 l 1,2,-1
 817 1462 l 1,3,-1
 1094 1462 l 1,0,-1
EndSplineSet
EndChar

StartChar: zero
Encoding: 48 48 19
Width: 1128
GlyphClass: 2
Flags: MW
LayerCount: 2
Fore
SplineSet
1194 731 m 0,0,1
 1163 554 1163 554 1111 415 c 128,-1,2
 1059 276 1059 276 981 179 c 128,-1,3
 903 82 903 82 798.5 31 c 128,-1,4
 694 -20 694 -20 559 -20 c 0,5,6
 432 -20 432 -20 347 31 c 128,-1,7
 262 82 262 82 217.5 179 c 128,-1,8
 173 276 173 276 167 415 c 128,-1,9
 161 554 161 554 192 731 c 256,10,11
 223 908 223 908 275 1048 c 128,-1,12
 327 1188 327 1188 404.5 1285 c 128,-1,13
 482 1382 482 1382 586 1433.5 c 128,-1,14
 690 1485 690 1485 825 1485 c 0,15,16
 951 1485 951 1485 1036 1434 c 128,-1,17
 1121 1383 1121 1383 1167 1286 c 128,-1,18
 1213 1189 1213 1189 1219 1049 c 128,-1,19
 1225 909 1225 909 1194 731 c 0,0,1
500 731 m 0,20,21
 456 481 456 481 476.5 355 c 128,-1,22
 497 229 497 229 603 229 c 0,23,24
 707 229 707 229 774.5 354 c 128,-1,25
 842 479 842 479 887 731 c 0,26,27
 931 982 931 982 908 1108.5 c 128,-1,28
 885 1235 885 1235 781 1235 c 0,29,30
 728 1235 728 1235 685.5 1203 c 128,-1,31
 643 1171 643 1171 609 1108 c 128,-1,32
 575 1045 575 1045 548.5 950.5 c 128,-1,33
 522 856 522 856 500 731 c 0,20,21
EndSplineSet
EndChar

StartChar: one
Encoding: 49 49 20
Width: 1128
GlyphClass: 2
Flags: MW
LayerCount: 2
Fore
SplineSet
817 0 m 1,0,-1
 508 0 l 1,1,-1
 657 846 l 2,2,3
 662 872 662 872 669 908.5 c 128,-1,4
 676 945 676 945 684.5 984.5 c 128,-1,5
 693 1024 693 1024 701.5 1064 c 128,-1,6
 710 1104 710 1104 716 1137 c 1,7,8
 710 1131 710 1131 696 1119 c 128,-1,9
 682 1107 682 1107 664.5 1092.5 c 128,-1,10
 647 1078 647 1078 628.5 1063 c 128,-1,11
 610 1048 610 1048 593 1036 c 2,12,-1
 401 901 l 1,13,-1
 284 1087 l 1,14,-1
 821 1462 l 1,15,-1
 1075 1462 l 1,16,-1
 817 0 l 1,0,-1
EndSplineSet
EndChar

StartChar: two
Encoding: 50 50 21
Width: 1128
GlyphClass: 2
Flags: MW
LayerCount: 2
Fore
SplineSet
1063 0 m 1,0,-1
 82 0 l 1,1,-1
 120 215 l 1,2,-1
 529 586 l 2,3,4
 606 656 606 656 669.5 715 c 128,-1,5
 733 774 733 774 781 830 c 128,-1,6
 829 886 829 886 860.5 944 c 128,-1,7
 892 1002 892 1002 903 1069 c 0,8,9
 916 1143 916 1143 879 1184 c 128,-1,10
 842 1225 842 1225 767 1225 c 0,11,12
 688 1225 688 1225 608 1186 c 128,-1,13
 528 1147 528 1147 436 1075 c 1,14,-1
 303 1274 l 1,15,16
 355 1315 355 1315 410.5 1352.5 c 128,-1,17
 466 1390 466 1390 530 1419 c 128,-1,18
 594 1448 594 1448 668 1465.5 c 128,-1,19
 742 1483 742 1483 830 1483 c 0,20,21
 935 1483 935 1483 1013.5 1454 c 128,-1,22
 1092 1425 1092 1425 1141.5 1371.5 c 128,-1,23
 1191 1318 1191 1318 1209.5 1242 c 128,-1,24
 1228 1166 1228 1166 1211 1071 c 0,25,26
 1196 985 1196 985 1152 906.5 c 128,-1,27
 1108 828 1108 828 1042.5 752.5 c 128,-1,28
 977 677 977 677 895.5 602.5 c 128,-1,29
 814 528 814 528 723 451 c 2,30,-1
 515 274 l 1,31,-1
 513 260 l 1,32,-1
 1109 260 l 1,33,-1
 1063 0 l 1,0,-1
EndSplineSet
EndChar

StartChar: three
Encoding: 51 51 22
Width: 1128
GlyphClass: 2
Flags: MW
LayerCount: 2
Fore
SplineSet
1206 1135 m 0,0,1
 1193 1059 1193 1059 1157.5 998.5 c 128,-1,2
 1122 938 1122 938 1071.5 892.5 c 128,-1,3
 1021 847 1021 847 958.5 816.5 c 128,-1,4
 896 786 896 786 826 770 c 1,5,-1
 825 764 l 1,6,7
 998 742 998 742 1074 656.5 c 128,-1,8
 1150 571 1150 571 1124 426 c 0,9,10
 1107 330 1107 330 1058 248.5 c 128,-1,11
 1009 167 1009 167 927 107 c 128,-1,12
 845 47 845 47 730.5 13.5 c 128,-1,13
 616 -20 616 -20 469 -20 c 0,14,15
 351 -20 351 -20 250.5 -0.5 c 128,-1,16
 150 19 150 19 67 59 c 1,17,-1
 114 322 l 1,18,19
 155 298 155 298 201.5 280 c 128,-1,20
 248 262 248 262 296 249.5 c 128,-1,21
 344 237 344 237 391.5 231 c 128,-1,22
 439 225 439 225 482 225 c 0,23,24
 568 225 568 225 627.5 241 c 128,-1,25
 687 257 687 257 726.5 286 c 128,-1,26
 766 315 766 315 787.5 355.5 c 128,-1,27
 809 396 809 396 817 444 c 0,28,29
 825 489 825 489 813 525.5 c 128,-1,30
 801 562 801 562 764 587.5 c 128,-1,31
 727 613 727 613 662.5 627 c 128,-1,32
 598 641 598 641 500 641 c 2,33,-1
 396 641 l 1,34,-1
 434 858 l 1,35,-1
 536 858 l 2,36,37
 628 858 628 858 692 874.5 c 128,-1,38
 756 891 756 891 797.5 919.5 c 128,-1,39
 839 948 839 948 861 986 c 128,-1,40
 883 1024 883 1024 890 1067 c 0,41,42
 904 1145 904 1145 863 1189 c 128,-1,43
 822 1233 822 1233 717 1233 c 0,44,45
 669 1233 669 1233 626 1223.5 c 128,-1,46
 583 1214 583 1214 545 1199.5 c 128,-1,47
 507 1185 507 1185 474.5 1167.5 c 128,-1,48
 442 1150 442 1150 415 1133 c 1,49,-1
 295 1339 l 1,50,51
 342 1370 342 1370 396.5 1396 c 128,-1,52
 451 1422 451 1422 512.5 1441.5 c 128,-1,53
 574 1461 574 1461 642.5 1472 c 128,-1,54
 711 1483 711 1483 787 1483 c 0,55,56
 895 1483 895 1483 979.5 1459.5 c 128,-1,57
 1064 1436 1064 1436 1119.5 1391.5 c 128,-1,58
 1175 1347 1175 1347 1198 1282.5 c 128,-1,59
 1221 1218 1221 1218 1206 1135 c 0,0,1
EndSplineSet
EndChar

StartChar: four
Encoding: 52 52 23
Width: 1128
GlyphClass: 2
Flags: MW
LayerCount: 2
Fore
SplineSet
1138 303 m 1,0,-1
 962 303 l 1,1,-1
 909 0 l 1,2,-1
 608 0 l 1,3,-1
 661 303 l 1,4,-1
 57 303 l 1,5,-1
 95 518 l 1,6,-1
 883 1462 l 1,7,-1
 1167 1462 l 1,8,-1
 1005 543 l 1,9,-1
 1181 543 l 1,10,-1
 1138 303 l 1,0,-1
704 543 m 1,11,-1
 747 791 l 2,12,13
 749 804 749 804 754 828.5 c 128,-1,14
 759 853 759 853 765.5 884 c 128,-1,15
 772 915 772 915 779.5 948 c 128,-1,16
 787 981 787 981 794 1011 c 128,-1,17
 801 1041 801 1041 806 1063.5 c 128,-1,18
 811 1086 811 1086 814 1096 c 1,19,-1
 805 1096 l 1,20,21
 780 1054 780 1054 749 1007 c 128,-1,22
 718 960 718 960 681 913 c 2,23,-1
 372 543 l 1,24,-1
 704 543 l 1,11,-1
EndSplineSet
EndChar

StartChar: five
Encoding: 53 53 24
Width: 1128
GlyphClass: 2
Flags: MW
LayerCount: 2
Fore
SplineSet
763 934 m 0,0,1
 857 934 857 934 932.5 905 c 128,-1,2
 1008 876 1008 876 1058.5 820 c 128,-1,3
 1109 764 1109 764 1128 680.5 c 128,-1,4
 1147 597 1147 597 1128 489 c 0,5,6
 1107 370 1107 370 1053.5 275.5 c 128,-1,7
 1000 181 1000 181 916.5 115.5 c 128,-1,8
 833 50 833 50 720 15 c 128,-1,9
 607 -20 607 -20 469 -20 c 0,10,11
 414 -20 414 -20 361 -15 c 128,-1,12
 308 -10 308 -10 260.5 -0.5 c 128,-1,13
 213 9 213 9 171 24 c 128,-1,14
 129 39 129 39 96 59 c 1,15,-1
 143 326 l 1,16,17
 174 306 174 306 217.5 288.5 c 128,-1,18
 261 271 261 271 308 258.5 c 128,-1,19
 355 246 355 246 404 238.5 c 128,-1,20
 453 231 453 231 498 231 c 0,21,22
 632 231 632 231 711.5 286.5 c 128,-1,23
 791 342 791 342 813 463 c 0,24,25
 832 571 832 571 773.5 627.5 c 128,-1,26
 715 684 715 684 572 684 c 0,27,28
 546 684 546 684 516 681 c 128,-1,29
 486 678 486 678 456.5 673 c 128,-1,30
 427 668 427 668 400 662.5 c 128,-1,31
 373 657 373 657 353 651 c 1,32,-1
 241 717 l 1,33,-1
 428 1462 l 1,34,-1
 1200 1462 l 1,35,-1
 1154 1200 l 1,36,-1
 650 1200 l 1,37,-1
 575 913 l 1,38,39
 608 920 608 920 652 927 c 128,-1,40
 696 934 696 934 763 934 c 0,0,1
EndSplineSet
EndChar

StartChar: six
Encoding: 54 54 25
Width: 1128
GlyphClass: 2
Flags: MW
LayerCount: 2
Fore
SplineSet
185 621 m 0,0,1
 204 726 204 726 234 830 c 128,-1,2
 264 934 264 934 310 1029.5 c 128,-1,3
 356 1125 356 1125 421 1207 c 128,-1,4
 486 1289 486 1289 574.5 1349.5 c 128,-1,5
 663 1410 663 1410 777.5 1444.5 c 128,-1,6
 892 1479 892 1479 1037 1479 c 0,7,8
 1058 1479 1058 1479 1082.5 1478 c 128,-1,9
 1107 1477 1107 1477 1132.5 1475.5 c 128,-1,10
 1158 1474 1158 1474 1181.5 1471 c 128,-1,11
 1205 1468 1205 1468 1223 1464 c 1,12,-1
 1180 1217 l 1,13,14
 1144 1226 1144 1226 1102 1231.5 c 128,-1,15
 1060 1237 1060 1237 1017 1237 c 0,16,17
 882 1237 882 1237 789 1203.5 c 128,-1,18
 696 1170 696 1170 634.5 1110 c 128,-1,19
 573 1050 573 1050 537 966 c 128,-1,20
 501 882 501 882 478 780 c 1,21,-1
 490 780 l 1,22,23
 516 816 516 816 550 847.5 c 128,-1,24
 584 879 584 879 626 901.5 c 128,-1,25
 668 924 668 924 718 937 c 128,-1,26
 768 950 768 950 827 950 c 0,27,28
 922 950 922 950 992.5 919 c 128,-1,29
 1063 888 1063 888 1105 829 c 128,-1,30
 1147 770 1147 770 1159.5 684 c 128,-1,31
 1172 598 1172 598 1153 487 c 0,32,33
 1132 368 1132 368 1082 274 c 128,-1,34
 1032 180 1032 180 958.5 114.5 c 128,-1,35
 885 49 885 49 790.5 14.5 c 128,-1,36
 696 -20 696 -20 586 -20 c 0,37,38
 478 -20 478 -20 391 18.5 c 128,-1,39
 304 57 304 57 248.5 136 c 128,-1,40
 193 215 193 215 174.5 335.5 c 128,-1,41
 156 456 156 456 185 621 c 0,0,1
624 227 m 0,42,43
 665 227 665 227 701 242.5 c 128,-1,44
 737 258 737 258 767.5 289.5 c 128,-1,45
 798 321 798 321 820 369 c 128,-1,46
 842 417 842 417 853 483 c 0,47,48
 872 590 872 590 838.5 651.5 c 128,-1,49
 805 713 805 713 714 713 c 0,50,51
 668 713 668 713 626.5 695 c 128,-1,52
 585 677 585 677 553 648 c 128,-1,53
 521 619 521 619 500 583 c 128,-1,54
 479 547 479 547 473 510 c 0,55,56
 464 459 464 459 467.5 408.5 c 128,-1,57
 471 358 471 358 489.5 317.5 c 128,-1,58
 508 277 508 277 541 252 c 128,-1,59
 574 227 574 227 624 227 c 0,42,43
EndSplineSet
EndChar

StartChar: seven
Encoding: 55 55 26
Width: 1128
GlyphClass: 2
Flags: MW
LayerCount: 2
Fore
SplineSet
207 0 m 1,0,-1
 939 1200 l 1,1,-1
 267 1200 l 1,2,-1
 312 1460 l 1,3,-1
 1320 1460 l 1,4,-1
 1286 1266 l 1,5,-1
 530 0 l 1,6,-1
 207 0 l 1,0,-1
EndSplineSet
EndChar

StartChar: eight
Encoding: 56 56 27
Width: 1128
GlyphClass: 2
Flags: MW
LayerCount: 2
Fore
SplineSet
826 1481 m 0,0,1
 917 1481 917 1481 994 1459 c 128,-1,2
 1071 1437 1071 1437 1124.5 1393 c 128,-1,3
 1178 1349 1178 1349 1202.5 1283 c 128,-1,4
 1227 1217 1227 1217 1211 1128 c 0,5,6
 1199 1062 1199 1062 1169.5 1008.5 c 128,-1,7
 1140 955 1140 955 1097.5 911.5 c 128,-1,8
 1055 868 1055 868 1001 834 c 128,-1,9
 947 800 947 800 886 772 c 1,10,11
 939 741 939 741 987.5 703 c 128,-1,12
 1036 665 1036 665 1071 617.5 c 128,-1,13
 1106 570 1106 570 1121.5 511 c 128,-1,14
 1137 452 1137 452 1124 379 c 0,15,16
 1108 288 1108 288 1059 214 c 128,-1,17
 1010 140 1010 140 935.5 88 c 128,-1,18
 861 36 861 36 765.5 8 c 128,-1,19
 670 -20 670 -20 561 -20 c 0,20,21
 443 -20 443 -20 356 7 c 128,-1,22
 269 34 269 34 215 84 c 128,-1,23
 161 134 161 134 141 207 c 128,-1,24
 121 280 121 280 137 371 c 0,25,26
 150 446 150 446 183 506 c 128,-1,27
 216 566 216 566 262.5 614 c 128,-1,28
 309 662 309 662 366.5 699 c 128,-1,29
 424 736 424 736 487 764 c 1,30,31
 443 795 443 795 406.5 831.5 c 128,-1,32
 370 868 370 868 346.5 912.5 c 128,-1,33
 323 957 323 957 314 1011 c 128,-1,34
 305 1065 305 1065 316 1130 c 0,35,36
 331 1217 331 1217 379.5 1282.5 c 128,-1,37
 428 1348 428 1348 497.5 1392.5 c 128,-1,38
 567 1437 567 1437 652 1459 c 128,-1,39
 737 1481 737 1481 826 1481 c 0,0,1
427 389 m 0,40,41
 420 349 420 349 427 315.5 c 128,-1,42
 434 282 434 282 455 258 c 128,-1,43
 476 234 476 234 512 220.5 c 128,-1,44
 548 207 548 207 598 207 c 0,45,46
 703 207 703 207 763.5 256.5 c 128,-1,47
 824 306 824 306 838 387 c 0,48,49
 845 429 845 429 833.5 462.5 c 128,-1,50
 822 496 822 496 800 524.5 c 128,-1,51
 778 553 778 553 747 577 c 128,-1,52
 716 601 716 601 685 623 c 2,53,-1
 665 637 l 1,54,55
 617 615 617 615 576.5 589.5 c 128,-1,56
 536 564 536 564 505.5 533.5 c 128,-1,57
 475 503 475 503 454.5 467 c 128,-1,58
 434 431 434 431 427 389 c 0,40,41
784 1255 m 0,59,60
 751 1255 751 1255 721 1245 c 128,-1,61
 691 1235 691 1235 667 1216 c 128,-1,62
 643 1197 643 1197 626 1169 c 128,-1,63
 609 1141 609 1141 603 1106 c 0,64,65
 596 1064 596 1064 603 1033.5 c 128,-1,66
 610 1003 610 1003 627.5 979.5 c 128,-1,67
 645 956 645 956 670 937.5 c 128,-1,68
 695 919 695 919 724 901 c 1,69,70
 758 917 758 917 789 936 c 128,-1,71
 820 955 820 955 846 979.5 c 128,-1,72
 872 1004 872 1004 890.5 1035 c 128,-1,73
 909 1066 909 1066 916 1106 c 0,74,75
 922 1141 922 1141 915 1169 c 128,-1,76
 908 1197 908 1197 890.5 1216 c 128,-1,77
 873 1235 873 1235 845.5 1245 c 128,-1,78
 818 1255 818 1255 784 1255 c 0,59,60
EndSplineSet
EndChar

StartChar: nine
Encoding: 57 57 28
Width: 1128
GlyphClass: 2
Flags: MW
LayerCount: 2
Fore
SplineSet
1203 838 m 0,0,1
 1184 733 1184 733 1154 628.5 c 128,-1,2
 1124 524 1124 524 1078 429 c 128,-1,3
 1032 334 1032 334 967 251.5 c 128,-1,4
 902 169 902 169 814 109 c 128,-1,5
 726 49 726 49 611 14.5 c 128,-1,6
 496 -20 496 -20 350 -20 c 0,7,8
 329 -20 329 -20 304.5 -19 c 128,-1,9
 280 -18 280 -18 254.5 -16.5 c 128,-1,10
 229 -15 229 -15 205.5 -12.5 c 128,-1,11
 182 -10 182 -10 165 -6 c 1,12,-1
 209 242 l 1,13,14
 244 232 244 232 285.5 226.5 c 128,-1,15
 327 221 327 221 371 221 c 0,16,17
 506 221 506 221 599 254.5 c 128,-1,18
 692 288 692 288 753.5 348.5 c 128,-1,19
 815 409 815 409 851.5 493 c 128,-1,20
 888 577 888 577 911 678 c 1,21,-1
 898 678 l 1,22,23
 872 642 872 642 838 611 c 128,-1,24
 804 580 804 580 762 557 c 128,-1,25
 720 534 720 534 670 521 c 128,-1,26
 620 508 620 508 561 508 c 0,27,28
 466 508 466 508 395.5 539 c 128,-1,29
 325 570 325 570 282.5 629 c 128,-1,30
 240 688 240 688 227.5 774 c 128,-1,31
 215 860 215 860 234 971 c 0,32,33
 255 1090 255 1090 305 1184 c 128,-1,34
 355 1278 355 1278 428.5 1343.5 c 128,-1,35
 502 1409 502 1409 597 1444 c 128,-1,36
 692 1479 692 1479 802 1479 c 0,37,38
 910 1479 910 1479 997 1440.5 c 128,-1,39
 1084 1402 1084 1402 1139 1323 c 128,-1,40
 1194 1244 1194 1244 1213 1123 c 128,-1,41
 1232 1002 1232 1002 1203 838 c 0,0,1
764 1231 m 0,42,43
 723 1231 723 1231 686.5 1216 c 128,-1,44
 650 1201 650 1201 620 1169.5 c 128,-1,45
 590 1138 590 1138 568 1089.5 c 128,-1,46
 546 1041 546 1041 534 975 c 0,47,48
 515 869 515 869 549 807 c 128,-1,49
 583 745 583 745 674 745 c 0,50,51
 720 745 720 745 761.5 763 c 128,-1,52
 803 781 803 781 835 810 c 128,-1,53
 867 839 867 839 888 875 c 128,-1,54
 909 911 909 911 915 948 c 0,55,56
 924 999 924 999 920.5 1049.5 c 128,-1,57
 917 1100 917 1100 898.5 1140.5 c 128,-1,58
 880 1181 880 1181 847 1206 c 128,-1,59
 814 1231 814 1231 764 1231 c 0,42,43
EndSplineSet
EndChar

StartChar: colon
Encoding: 58 58 29
Width: 584
GlyphClass: 2
Flags: MW
LayerCount: 2
Fore
SplineSet
142 143 m 0,0,1
 150 190 150 190 169.5 222.5 c 128,-1,2
 189 255 189 255 216.5 275 c 128,-1,3
 244 295 244 295 277.5 304 c 128,-1,4
 311 313 311 313 348 313 c 0,5,6
 383 313 383 313 413 304 c 128,-1,7
 443 295 443 295 463.5 275 c 128,-1,8
 484 255 484 255 492.5 222.5 c 128,-1,9
 501 190 501 190 492 143 c 0,10,11
 484 98 484 98 464.5 66 c 128,-1,12
 445 34 445 34 417.5 13 c 128,-1,13
 390 -8 390 -8 356.5 -17.5 c 128,-1,14
 323 -27 323 -27 288 -27 c 0,15,16
 251 -27 251 -27 221 -17.5 c 128,-1,17
 191 -8 191 -8 170.5 13 c 128,-1,18
 150 34 150 34 142 66 c 128,-1,19
 134 98 134 98 142 143 c 0,0,1
288 969 m 0,20,21
 296 1016 296 1016 315.5 1048.5 c 128,-1,22
 335 1081 335 1081 362.5 1101 c 128,-1,23
 390 1121 390 1121 423.5 1130 c 128,-1,24
 457 1139 457 1139 494 1139 c 0,25,26
 529 1139 529 1139 559 1130 c 128,-1,27
 589 1121 589 1121 609.5 1101 c 128,-1,28
 630 1081 630 1081 638 1048.5 c 128,-1,29
 646 1016 646 1016 638 969 c 0,30,31
 630 924 630 924 610 891.5 c 128,-1,32
 590 859 590 859 562.5 838.5 c 128,-1,33
 535 818 535 818 502 808.5 c 128,-1,34
 469 799 469 799 434 799 c 0,35,36
 397 799 397 799 366.5 808.5 c 128,-1,37
 336 818 336 818 315.5 838.5 c 128,-1,38
 295 859 295 859 287.5 891.5 c 128,-1,39
 280 924 280 924 288 969 c 0,20,21
EndSplineSet
EndChar

StartChar: semicolon
Encoding: 59 59 30
Width: 594
GlyphClass: 2
Flags: MW
LayerCount: 2
Fore
SplineSet
486 238 m 1,0,-1
 497 215 l 1,1,2
 473 161 473 161 443 100 c 128,-1,3
 413 39 413 39 378.5 -23 c 128,-1,4
 344 -85 344 -85 307.5 -146.5 c 128,-1,5
 271 -208 271 -208 236 -264 c 1,6,-1
 16 -264 l 1,7,8
 42 -203 42 -203 68 -137 c 128,-1,9
 94 -71 94 -71 119.5 -5.5 c 128,-1,10
 145 60 145 60 167 122.5 c 128,-1,11
 189 185 189 185 206 238 c 1,12,-1
 486 238 l 1,0,-1
288 969 m 0,13,14
 296 1016 296 1016 315.5 1048.5 c 128,-1,15
 335 1081 335 1081 362.5 1101 c 128,-1,16
 390 1121 390 1121 423.5 1130 c 128,-1,17
 457 1139 457 1139 494 1139 c 0,18,19
 529 1139 529 1139 559 1130 c 128,-1,20
 589 1121 589 1121 609.5 1101 c 128,-1,21
 630 1081 630 1081 638 1048.5 c 128,-1,22
 646 1016 646 1016 638 969 c 0,23,24
 630 924 630 924 610 891.5 c 128,-1,25
 590 859 590 859 562.5 838.5 c 128,-1,26
 535 818 535 818 502 808.5 c 128,-1,27
 469 799 469 799 434 799 c 0,28,29
 397 799 397 799 366.5 808.5 c 128,-1,30
 336 818 336 818 315.5 838.5 c 128,-1,31
 295 859 295 859 287.5 891.5 c 128,-1,32
 280 924 280 924 288 969 c 0,13,14
EndSplineSet
EndChar

StartChar: less
Encoding: 60 60 31
Width: 1128
GlyphClass: 2
Flags: MW
LayerCount: 2
Fore
SplineSet
1076 203 m 1,0,-1
 201 641 l 1,1,-1
 226 784 l 1,2,-1
 1266 1280 l 1,3,-1
 1223 1040 l 1,4,-1
 524 723 l 1,5,-1
 1118 442 l 1,6,-1
 1076 203 l 1,0,-1
EndSplineSet
EndChar

StartChar: equal
Encoding: 61 61 32
Width: 1128
GlyphClass: 2
Flags: MW
LayerCount: 2
Fore
SplineSet
230 807 m 1,0,-1
 269 1024 l 1,1,-1
 1221 1024 l 1,2,-1
 1182 807 l 1,3,-1
 230 807 l 1,0,-1
162 418 m 1,4,-1
 200 637 l 1,5,-1
 1152 637 l 1,6,-1
 1114 418 l 1,7,-1
 162 418 l 1,4,-1
EndSplineSet
EndChar

StartChar: greater
Encoding: 62 62 33
Width: 1128
GlyphClass: 2
Flags: MW
LayerCount: 2
Fore
SplineSet
166 442 m 1,0,-1
 858 723 l 1,1,-1
 271 1040 l 1,2,-1
 314 1280 l 1,3,-1
 1178 784 l 1,4,-1
 1153 641 l 1,5,-1
 124 203 l 1,6,-1
 166 442 l 1,0,-1
EndSplineSet
EndChar

StartChar: question
Encoding: 63 63 34
Width: 940
GlyphClass: 2
Flags: MW
LayerCount: 2
Fore
SplineSet
350 485 m 1,0,-1
 363 559 l 2,1,2
 372 610 372 610 389.5 651.5 c 128,-1,3
 407 693 407 693 435 730.5 c 128,-1,4
 463 768 463 768 503.5 803.5 c 128,-1,5
 544 839 544 839 599 877 c 0,6,7
 647 910 647 910 680.5 936 c 128,-1,8
 714 962 714 962 736.5 987.5 c 128,-1,9
 759 1013 759 1013 771.5 1041 c 128,-1,10
 784 1069 784 1069 791 1106 c 0,11,12
 801 1163 801 1163 769 1200 c 128,-1,13
 737 1237 737 1237 658 1237 c 0,14,15
 589 1237 589 1237 504.5 1208 c 128,-1,16
 420 1179 420 1179 327 1137 c 1,17,-1
 264 1358 l 1,18,19
 311 1383 311 1383 366 1405.5 c 128,-1,20
 421 1428 421 1428 478.5 1445.5 c 128,-1,21
 536 1463 536 1463 593.5 1473 c 128,-1,22
 651 1483 651 1483 705 1483 c 0,23,24
 807 1483 807 1483 885 1458.5 c 128,-1,25
 963 1434 963 1434 1011.5 1387 c 128,-1,26
 1060 1340 1060 1340 1079 1273 c 128,-1,27
 1098 1206 1098 1206 1082 1120 c 0,28,29
 1071 1057 1071 1057 1048.5 1007.5 c 128,-1,30
 1026 958 1026 958 991 915.5 c 128,-1,31
 956 873 956 873 907.5 833.5 c 128,-1,32
 859 794 859 794 796 750 c 0,33,34
 748 717 748 717 717.5 692.5 c 128,-1,35
 687 668 687 668 668 646 c 128,-1,36
 649 624 649 624 639.5 600.5 c 128,-1,37
 630 577 630 577 624 545 c 2,38,-1
 614 485 l 1,39,-1
 350 485 l 1,0,-1
256 143 m 0,40,41
 264 190 264 190 283.5 222.5 c 128,-1,42
 303 255 303 255 330.5 275 c 128,-1,43
 358 295 358 295 392 304 c 128,-1,44
 426 313 426 313 463 313 c 0,45,46
 498 313 498 313 528 304 c 128,-1,47
 558 295 558 295 578.5 275 c 128,-1,48
 599 255 599 255 607.5 222.5 c 128,-1,49
 616 190 616 190 607 143 c 0,50,51
 599 98 599 98 579.5 66 c 128,-1,52
 560 34 560 34 532.5 13 c 128,-1,53
 505 -8 505 -8 471.5 -17.5 c 128,-1,54
 438 -27 438 -27 403 -27 c 0,55,56
 366 -27 366 -27 335.5 -17.5 c 128,-1,57
 305 -8 305 -8 284.5 13 c 128,-1,58
 264 34 264 34 256 66 c 128,-1,59
 248 98 248 98 256 143 c 0,40,41
EndSplineSet
EndChar

StartChar: at
Encoding: 64 64 35
Width: 1774
GlyphClass: 2
Flags: MW
LayerCount: 2
Fore
SplineSet
1806 752 m 0,0,1
 1789 657 1789 657 1750 564 c 128,-1,2
 1711 471 1711 471 1652 397.5 c 128,-1,3
 1593 324 1593 324 1515.5 278.5 c 128,-1,4
 1438 233 1438 233 1344 233 c 0,5,6
 1306 233 1306 233 1274 242.5 c 128,-1,7
 1242 252 1242 252 1217.5 269.5 c 128,-1,8
 1193 287 1193 287 1176.5 310.5 c 128,-1,9
 1160 334 1160 334 1154 362 c 1,10,-1
 1139 362 l 1,11,12
 1116 337 1116 337 1086.5 313.5 c 128,-1,13
 1057 290 1057 290 1023 272 c 128,-1,14
 989 254 989 254 949.5 243.5 c 128,-1,15
 910 233 910 233 866 233 c 0,16,17
 783 233 783 233 723.5 261.5 c 128,-1,18
 664 290 664 290 629.5 342.5 c 128,-1,19
 595 395 595 395 585 468.5 c 128,-1,20
 575 542 575 542 590 631 c 0,21,22
 608 734 608 734 654.5 820 c 128,-1,23
 701 906 701 906 770 968.5 c 128,-1,24
 839 1031 839 1031 928 1065.5 c 128,-1,25
 1017 1100 1017 1100 1120 1100 c 0,26,27
 1165 1100 1165 1100 1212 1095 c 128,-1,28
 1259 1090 1259 1090 1302 1082 c 128,-1,29
 1345 1074 1345 1074 1382.5 1064 c 128,-1,30
 1420 1054 1420 1054 1446 1044 c 1,31,-1
 1351 625 l 2,32,33
 1345 603 1345 603 1341.5 582 c 128,-1,34
 1338 561 1338 561 1337 555 c 0,35,36
 1330 513 1330 513 1331.5 486 c 128,-1,37
 1333 459 1333 459 1340.5 443.5 c 128,-1,38
 1348 428 1348 428 1360.5 422 c 128,-1,39
 1373 416 1373 416 1388 416 c 0,40,41
 1423 416 1423 416 1454 443 c 128,-1,42
 1485 470 1485 470 1510 516 c 128,-1,43
 1535 562 1535 562 1555 623.5 c 128,-1,44
 1575 685 1575 685 1587 754 c 0,45,46
 1610 882 1610 882 1589.5 982 c 128,-1,47
 1569 1082 1569 1082 1513.5 1151 c 128,-1,48
 1458 1220 1458 1220 1371.5 1256 c 128,-1,49
 1285 1292 1285 1292 1176 1292 c 0,50,51
 1023 1292 1023 1292 897.5 1241 c 128,-1,52
 772 1190 772 1190 677.5 1098.5 c 128,-1,53
 583 1007 583 1007 520 882 c 128,-1,54
 457 757 457 757 431 608 c 0,55,56
 407 470 407 470 423 363.5 c 128,-1,57
 439 257 439 257 495.5 184.5 c 128,-1,58
 552 112 552 112 646.5 74.5 c 128,-1,59
 741 37 741 37 873 37 c 0,60,61
 929 37 929 37 989 44 c 128,-1,62
 1049 51 1049 51 1109.5 63 c 128,-1,63
 1170 75 1170 75 1229.5 92 c 128,-1,64
 1289 109 1289 109 1344 129 c 1,65,-1
 1310 -63 l 1,66,67
 1209 -105 1209 -105 1090 -129.5 c 128,-1,68
 971 -154 971 -154 841 -154 c 0,69,70
 660 -154 660 -154 526.5 -102.5 c 128,-1,71
 393 -51 393 -51 312 46 c 128,-1,72
 231 143 231 143 204 283.5 c 128,-1,73
 177 424 177 424 208 602 c 0,74,75
 230 726 230 726 277 839.5 c 128,-1,76
 324 953 324 953 392 1050.5 c 128,-1,77
 460 1148 460 1148 547.5 1227.5 c 128,-1,78
 635 1307 635 1307 739 1363.5 c 128,-1,79
 843 1420 843 1420 961.5 1450.5 c 128,-1,80
 1080 1481 1080 1481 1209 1481 c 0,81,82
 1367 1481 1367 1481 1491 1430.5 c 128,-1,83
 1615 1380 1615 1380 1695 1285.5 c 128,-1,84
 1775 1191 1775 1191 1805.5 1056 c 128,-1,85
 1836 921 1836 921 1806 752 c 0,0,1
822 627 m 0,86,87
 802 515 802 515 831 465.5 c 128,-1,88
 860 416 860 416 923 416 c 0,89,90
 965 416 965 416 999 435.5 c 128,-1,91
 1033 455 1033 455 1059 490.5 c 128,-1,92
 1085 526 1085 526 1104 575.5 c 128,-1,93
 1123 625 1123 625 1137 686 c 2,94,-1
 1188 907 l 1,95,96
 1169 912 1169 912 1142.5 915 c 128,-1,97
 1116 918 1116 918 1088 918 c 0,98,99
 1029 918 1029 918 983.5 893 c 128,-1,100
 938 868 938 868 905.5 827 c 128,-1,101
 873 786 873 786 852.5 733.5 c 128,-1,102
 832 681 832 681 822 627 c 0,86,87
EndSplineSet
EndChar

StartChar: A
Encoding: 65 65 36
Width: 1331
GlyphClass: 2
Flags: MW
AnchorPoint: "Anchor-18" 944 1579 basechar 0
AnchorPoint: "Anchor-19" 944 1579 basechar 0
AnchorPoint: "Anchor-4" 639 -152 basechar 0
AnchorPoint: "Anchor-30" 944 1579 basechar 0
AnchorPoint: "Anchor-2" 947 1595 basechar 0
AnchorPoint: "Anchor-0" 772 1579 basechar 0
AnchorPoint: "Anchor-1" 1113 1579 basechar 0
LayerCount: 2
Fore
SplineSet
1018 0 m 1,0,-1
 979 348 l 1,1,-1
 475 348 l 1,2,-1
 313 0 l 1,3,-1
 0 0 l 1,4,-1
 734 1468 l 1,5,-1
 1113 1468 l 1,6,-1
 1331 0 l 1,7,-1
 1018 0 l 1,0,-1
953 608 m 1,8,-1
 916 928 l 2,9,10
 913 946 913 946 908 987 c 128,-1,11
 903 1028 903 1028 898.5 1077.5 c 128,-1,12
 894 1127 894 1127 890.5 1177 c 128,-1,13
 887 1227 887 1227 889 1262 c 1,14,15
 881 1240 881 1240 869 1210 c 128,-1,16
 857 1180 857 1180 842.5 1146.5 c 128,-1,17
 828 1113 828 1113 813 1079 c 128,-1,18
 798 1045 798 1045 785 1015 c 128,-1,19
 772 985 772 985 761.5 962 c 128,-1,20
 751 939 751 939 746 928 c 2,21,-1
 596 608 l 1,22,-1
 953 608 l 1,8,-1
EndSplineSet
EndChar

StartChar: B
Encoding: 66 66 37
Width: 1315
GlyphClass: 2
Flags: MW
AnchorPoint: "Anchor-2" 873 1595 basechar 0
AnchorPoint: "Anchor-0" 699 1579 basechar 0
AnchorPoint: "Anchor-1" 1041 1579 basechar 0
AnchorPoint: "Anchor-30" 870 1579 basechar 0
AnchorPoint: "Anchor-4" 565 -152 basechar 0
LayerCount: 2
Fore
SplineSet
442 1462 m 1,0,-1
 870 1462 l 2,1,2
 1008 1462 1008 1462 1108.5 1442.5 c 128,-1,3
 1209 1423 1209 1423 1271.5 1379.5 c 128,-1,4
 1334 1336 1334 1336 1357 1265.5 c 128,-1,5
 1380 1195 1380 1195 1362 1092 c 0,6,7
 1351 1030 1351 1030 1326.5 976 c 128,-1,8
 1302 922 1302 922 1265.5 881 c 128,-1,9
 1229 840 1229 840 1182.5 812.5 c 128,-1,10
 1136 785 1136 785 1081 776 c 1,11,-1
 1079 766 l 1,12,13
 1132 754 1132 754 1175.5 731.5 c 128,-1,14
 1219 709 1219 709 1247.5 669.5 c 128,-1,15
 1276 630 1276 630 1286 570 c 128,-1,16
 1296 510 1296 510 1281 424 c 0,17,18
 1263 324 1263 324 1214 245.5 c 128,-1,19
 1165 167 1165 167 1090 112.5 c 128,-1,20
 1015 58 1015 58 916.5 29 c 128,-1,21
 818 0 818 0 700 0 c 2,22,-1
 184 0 l 1,23,-1
 442 1462 l 1,0,-1
650 883 m 1,24,-1
 811 883 l 2,25,26
 869 883 869 883 909.5 893.5 c 128,-1,27
 950 904 950 904 978 925 c 128,-1,28
 1006 946 1006 946 1022 977.5 c 128,-1,29
 1038 1009 1038 1009 1045 1051 c 0,30,31
 1060 1135 1060 1135 1014 1171.5 c 128,-1,32
 968 1208 968 1208 854 1208 c 2,33,-1
 707 1208 l 1,34,-1
 650 883 l 1,24,-1
606 637 m 1,35,-1
 539 256 l 1,36,-1
 721 256 l 2,37,38
 782 256 782 256 826 270 c 128,-1,39
 870 284 870 284 900 310 c 128,-1,40
 930 336 930 336 947.5 373 c 128,-1,41
 965 410 965 410 973 455 c 0,42,43
 980 496 980 496 975 529.5 c 128,-1,44
 970 563 970 563 948 587 c 128,-1,45
 926 611 926 611 885 624 c 128,-1,46
 844 637 844 637 780 637 c 2,47,-1
 606 637 l 1,35,-1
EndSplineSet
EndChar

StartChar: C
Encoding: 67 67 38
Width: 1305
GlyphClass: 2
Flags: MW
AnchorPoint: "Anchor-4" 763 -152 basechar 0
AnchorPoint: "Anchor-1" 1219 1579 basechar 0
AnchorPoint: "Anchor-0" 917 1579 basechar 0
AnchorPoint: "Anchor-2" 1071 1595 basechar 0
AnchorPoint: "Anchor-30" 1068 1579 basechar 0
AnchorPoint: "Anchor-3" 767 -131 basechar 0
LayerCount: 2
Fore
SplineSet
1021 1225 m 0,0,1
 932 1225 932 1225 857.5 1190.5 c 128,-1,2
 783 1156 783 1156 725 1091.5 c 128,-1,3
 667 1027 667 1027 626.5 934.5 c 128,-1,4
 586 842 586 842 566 727 c 0,5,6
 545 610 545 610 550.5 519 c 128,-1,7
 556 428 556 428 589.5 365.5 c 128,-1,8
 623 303 623 303 687 270.5 c 128,-1,9
 751 238 751 238 847 238 c 0,10,11
 936 238 936 238 1029 258 c 128,-1,12
 1122 278 1122 278 1234 315 c 1,13,-1
 1188 55 l 1,14,15
 1136 35 1136 35 1086.5 21 c 128,-1,16
 1037 7 1037 7 986.5 -2 c 128,-1,17
 936 -11 936 -11 883.5 -15.5 c 128,-1,18
 831 -20 831 -20 772 -20 c 0,19,20
 603 -20 603 -20 489 34 c 128,-1,21
 375 88 375 88 311 186 c 128,-1,22
 247 284 247 284 232.5 422 c 128,-1,23
 218 560 218 560 248 729 c 0,24,25
 277 895 277 895 346.5 1033.5 c 128,-1,26
 416 1172 416 1172 520.5 1272 c 128,-1,27
 625 1372 625 1372 762.5 1427.5 c 128,-1,28
 900 1483 900 1483 1066 1483 c 0,29,30
 1175 1483 1175 1483 1280 1455.5 c 128,-1,31
 1385 1428 1385 1428 1476 1380 c 1,32,-1
 1332 1128 l 1,33,34
 1257 1167 1257 1167 1179 1196 c 128,-1,35
 1101 1225 1101 1225 1021 1225 c 0,0,1
EndSplineSet
EndChar

StartChar: D
Encoding: 68 68 39
Width: 1434
GlyphClass: 2
Flags: MW
AnchorPoint: "Anchor-4" 565 -152 basechar 0
AnchorPoint: "Anchor-30" 870 1579 basechar 0
AnchorPoint: "Anchor-1" 1041 1579 basechar 0
AnchorPoint: "Anchor-0" 699 1579 basechar 0
AnchorPoint: "Anchor-2" 873 1595 basechar 0
LayerCount: 2
Fore
SplineSet
1446 745 m 0,0,1
 1413 560 1413 560 1338.5 420.5 c 128,-1,2
 1264 281 1264 281 1152 187.5 c 128,-1,3
 1040 94 1040 94 893 47 c 128,-1,4
 746 0 746 0 569 0 c 2,5,-1
 184 0 l 1,6,-1
 442 1462 l 1,7,-1
 870 1462 l 2,8,9
 1031 1462 1031 1462 1152.5 1416 c 128,-1,10
 1274 1370 1274 1370 1350 1279.5 c 128,-1,11
 1426 1189 1426 1189 1451.5 1055 c 128,-1,12
 1477 921 1477 921 1446 745 c 0,0,1
1131 737 m 0,13,14
 1153 859 1153 859 1144 947.5 c 128,-1,15
 1135 1036 1135 1036 1098.5 1094 c 128,-1,16
 1062 1152 1062 1152 999.5 1180 c 128,-1,17
 937 1208 937 1208 850 1208 c 2,18,-1
 707 1208 l 1,19,-1
 539 256 l 1,20,-1
 653 256 l 2,21,22
 849 256 849 256 969 376 c 128,-1,23
 1089 496 1089 496 1131 737 c 0,13,14
EndSplineSet
EndChar

StartChar: E
Encoding: 69 69 40
Width: 1147
GlyphClass: 2
Flags: MW
AnchorPoint: "Anchor-18" 897 1579 basechar 0
AnchorPoint: "Anchor-19" 897 1579 basechar 0
AnchorPoint: "Anchor-16" 897 1579 basechar 0
AnchorPoint: "Anchor-4" 592 -152 basechar 0
AnchorPoint: "Anchor-30" 897 1579 basechar 0
AnchorPoint: "Anchor-2" 900 1595 basechar 0
AnchorPoint: "Anchor-0" 702 1579 basechar 0
AnchorPoint: "Anchor-1" 1053 1579 basechar 0
LayerCount: 2
Fore
SplineSet
1026 0 m 1,0,-1
 184 0 l 1,1,-1
 442 1462 l 1,2,-1
 1284 1462 l 1,3,-1
 1239 1208 l 1,4,-1
 707 1208 l 1,5,-1
 650 887 l 1,6,-1
 1145 887 l 1,7,-1
 1101 633 l 1,8,-1
 606 633 l 1,9,-1
 539 256 l 1,10,-1
 1071 256 l 1,11,-1
 1026 0 l 1,0,-1
EndSplineSet
EndChar

StartChar: F
Encoding: 70 70 41
Width: 1124
GlyphClass: 2
Flags: MW
AnchorPoint: "Anchor-1" 1052 1579 basechar 0
AnchorPoint: "Anchor-0" 710 1579 basechar 0
AnchorPoint: "Anchor-2" 884 1595 basechar 0
AnchorPoint: "Anchor-30" 881 1579 basechar 0
AnchorPoint: "Anchor-3" 313 -131 basechar 0
LayerCount: 2
Fore
SplineSet
489 0 m 1,0,-1
 184 0 l 1,1,-1
 442 1462 l 1,2,-1
 1280 1462 l 1,3,-1
 1235 1208 l 1,4,-1
 702 1208 l 1,5,-1
 636 831 l 1,6,-1
 1132 831 l 1,7,-1
 1087 578 l 1,8,-1
 591 578 l 1,9,-1
 489 0 l 1,0,-1
EndSplineSet
EndChar

StartChar: G
Encoding: 71 71 42
Width: 1483
GlyphClass: 2
Flags: MW
AnchorPoint: "Anchor-4" 782 -152 basechar 0
AnchorPoint: "Anchor-30" 1087 1579 basechar 0
AnchorPoint: "Anchor-2" 1090 1595 basechar 0
AnchorPoint: "Anchor-0" 936 1579 basechar 0
AnchorPoint: "Anchor-1" 1238 1579 basechar 0
AnchorPoint: "Anchor-3" 786 -131 basechar 0
LayerCount: 2
Fore
SplineSet
884 821 m 1,0,-1
 1464 821 l 1,1,-1
 1330 63 l 1,2,3
 1269 44 1269 44 1207 28.5 c 128,-1,4
 1145 13 1145 13 1080 2.5 c 128,-1,5
 1015 -8 1015 -8 944 -14 c 128,-1,6
 873 -20 873 -20 795 -20 c 0,7,8
 631 -20 631 -20 513.5 28.5 c 128,-1,9
 396 77 396 77 326 172.5 c 128,-1,10
 256 268 256 268 236 408.5 c 128,-1,11
 216 549 216 549 248 733 c 0,12,13
 278 905 278 905 353 1044 c 128,-1,14
 428 1183 428 1183 542.5 1280.5 c 128,-1,15
 657 1378 657 1378 808.5 1430.5 c 128,-1,16
 960 1483 960 1483 1144 1483 c 0,17,18
 1261 1483 1261 1483 1369 1458 c 128,-1,19
 1477 1433 1477 1433 1563 1393 c 1,20,-1
 1416 1145 l 1,21,22
 1354 1179 1354 1179 1272.5 1202 c 128,-1,23
 1191 1225 1191 1225 1097 1225 c 0,24,25
 995 1225 995 1225 907 1189.5 c 128,-1,26
 819 1154 819 1154 750 1089 c 128,-1,27
 681 1024 681 1024 633.5 932 c 128,-1,28
 586 840 586 840 566 727 c 0,29,30
 547 619 547 619 553 529.5 c 128,-1,31
 559 440 559 440 593.5 375 c 128,-1,32
 628 310 628 310 694 274 c 128,-1,33
 760 238 760 238 861 238 c 0,34,35
 927 238 927 238 973.5 244 c 128,-1,36
 1020 250 1020 250 1061 258 c 1,37,-1
 1115 563 l 1,38,-1
 838 563 l 1,39,-1
 884 821 l 1,0,-1
EndSplineSet
EndChar

StartChar: H
Encoding: 72 72 43
Width: 1485
GlyphClass: 2
Flags: MW
AnchorPoint: "Anchor-4" 715 -152 basechar 0
AnchorPoint: "Anchor-30" 1020 1579 basechar 0
AnchorPoint: "Anchor-1" 1191 1579 basechar 0
AnchorPoint: "Anchor-0" 849 1579 basechar 0
AnchorPoint: "Anchor-2" 1023 1595 basechar 0
LayerCount: 2
Fore
SplineSet
1300 0 m 1,0,-1
 991 0 l 1,1,-1
 1102 631 l 1,2,-1
 605 631 l 1,3,-1
 494 0 l 1,4,-1
 184 0 l 1,5,-1
 442 1462 l 1,6,-1
 752 1462 l 1,7,-1
 651 889 l 1,8,-1
 1148 889 l 1,9,-1
 1249 1462 l 1,10,-1
 1558 1462 l 1,11,-1
 1300 0 l 1,0,-1
EndSplineSet
EndChar

StartChar: I
Encoding: 73 73 44
Width: 797
GlyphClass: 2
Flags: MW
AnchorPoint: "Anchor-18" 676 1579 basechar 0
AnchorPoint: "Anchor-19" 676 1579 basechar 0
AnchorPoint: "Anchor-4" 371 -152 basechar 0
AnchorPoint: "Anchor-30" 676 1579 basechar 0
AnchorPoint: "Anchor-2" 679 1595 basechar 0
AnchorPoint: "Anchor-0" 522 1579 basechar 0
AnchorPoint: "Anchor-1" 831 1579 basechar 0
AnchorPoint: "Anchor-3" 375 -131 basechar 0
LayerCount: 2
Fore
SplineSet
731 0 m 1,0,-1
 66 0 l 1,1,-1
 97 176 l 1,2,-1
 289 258 l 1,3,-1
 456 1204 l 1,4,-1
 293 1286 l 1,5,-1
 324 1462 l 1,6,-1
 989 1462 l 1,7,-1
 958 1286 l 1,8,-1
 765 1204 l 1,9,-1
 598 258 l 1,10,-1
 762 176 l 1,11,-1
 731 0 l 1,0,-1
EndSplineSet
EndChar

StartChar: J
Encoding: 74 74 45
Width: 678
GlyphClass: 2
Flags: MW
AnchorPoint: "Anchor-4" 44 -582 basechar 0
AnchorPoint: "Anchor-1" 772 1579 basechar 0
AnchorPoint: "Anchor-0" 462 1579 basechar 0
AnchorPoint: "Anchor-2" 620 1595 basechar 0
AnchorPoint: "Anchor-30" 617 1579 basechar 0
AnchorPoint: "Anchor-3" 240 -561 basechar 0
LayerCount: 2
Fore
SplineSet
-78 -430 m 0,0,1
 -143 -430 -143 -430 -191 -423.5 c 128,-1,2
 -239 -417 -239 -417 -271 -408 c 1,3,-1
 -225 -150 l 1,4,5
 -189 -158 -189 -158 -150 -164 c 128,-1,6
 -111 -170 -111 -170 -63 -170 c 0,7,8
 -17 -170 -17 -170 24.5 -160 c 128,-1,9
 66 -150 66 -150 99.5 -125.5 c 128,-1,10
 133 -101 133 -101 157 -60 c 128,-1,11
 181 -19 181 -19 192 43 c 2,12,-1
 442 1462 l 1,13,-1
 752 1462 l 1,14,-1
 503 53 l 2,15,16
 481 -73 481 -73 428.5 -164 c 128,-1,17
 376 -255 376 -255 300 -314.5 c 128,-1,18
 224 -374 224 -374 128 -402 c 128,-1,19
 32 -430 32 -430 -78 -430 c 0,0,1
EndSplineSet
EndChar

StartChar: K
Encoding: 75 75 46
Width: 1298
GlyphClass: 2
Flags: MW
AnchorPoint: "Anchor-1" 1169 1579 basechar 0
AnchorPoint: "Anchor-0" 827 1579 basechar 0
AnchorPoint: "Anchor-30" 998 1579 basechar 0
AnchorPoint: "Anchor-2" 1001 1595 basechar 0
LayerCount: 2
Fore
SplineSet
1298 0 m 1,0,-1
 946 0 l 1,1,-1
 717 608 l 1,2,-1
 586 522 l 1,3,-1
 494 0 l 1,4,-1
 184 0 l 1,5,-1
 442 1462 l 1,6,-1
 752 1462 l 1,7,-1
 628 758 l 1,8,-1
 786 965 l 1,9,-1
 1208 1462 l 1,10,-1
 1552 1462 l 1,11,-1
 969 803 l 1,12,-1
 1298 0 l 1,0,-1
EndSplineSet
EndChar

StartChar: L
Encoding: 76 76 47
Width: 1096
GlyphClass: 2
Flags: MW
AnchorPoint: "Anchor-4" 578 -152 basechar 0
AnchorPoint: "Anchor-1" 772 1579 basechar 0
AnchorPoint: "Anchor-0" 462 1579 basechar 0
AnchorPoint: "Anchor-30" 617 1579 basechar 0
AnchorPoint: "Anchor-2" 620 1595 basechar 0
LayerCount: 2
Fore
SplineSet
184 0 m 1,0,-1
 442 1462 l 1,1,-1
 752 1462 l 1,2,-1
 539 256 l 1,3,-1
 1071 256 l 1,4,-1
 1026 0 l 1,5,-1
 184 0 l 1,0,-1
EndSplineSet
EndChar

StartChar: M
Encoding: 77 77 48
Width: 1870
GlyphClass: 2
Flags: MW
AnchorPoint: "Anchor-18" 1192 1579 basechar 0
AnchorPoint: "Anchor-19" 1192 1579 basechar 0
AnchorPoint: "Anchor-4" 887 -152 basechar 0
AnchorPoint: "Anchor-1" 1334 1579 basechar 0
AnchorPoint: "Anchor-0" 1050 1579 basechar 0
AnchorPoint: "Anchor-2" 1195 1595 basechar 0
AnchorPoint: "Anchor-30" 1192 1579 basechar 0
LayerCount: 2
Fore
SplineSet
772 0 m 1,0,-1
 653 1147 l 1,1,-1
 644 1147 l 1,2,3
 634 1055 634 1055 623 969 c 0,4,5
 618 932 618 932 613 893 c 128,-1,6
 608 854 608 854 602.5 816 c 128,-1,7
 597 778 597 778 591.5 743 c 128,-1,8
 586 708 586 708 581 680 c 2,9,-1
 461 0 l 1,10,-1
 184 0 l 1,11,-1
 442 1462 l 1,12,-1
 864 1462 l 1,13,-1
 983 344 l 1,14,-1
 989 344 l 1,15,-1
 1522 1462 l 1,16,-1
 1944 1462 l 1,17,-1
 1686 0 l 1,18,-1
 1397 0 l 1,19,-1
 1519 692 l 2,20,21
 1524 718 1524 718 1530 751 c 128,-1,22
 1536 784 1536 784 1543.5 821 c 128,-1,23
 1551 858 1551 858 1559.5 896 c 128,-1,24
 1568 934 1568 934 1575 970 c 0,25,26
 1594 1054 1594 1054 1613 1145 c 1,27,-1
 1605 1145 l 1,28,-1
 1057 0 l 1,29,-1
 772 0 l 1,0,-1
EndSplineSet
EndChar

StartChar: N
Encoding: 78 78 49
Width: 1604
GlyphClass: 2
Flags: MW
AnchorPoint: "Anchor-4" 774 -152 basechar 0
AnchorPoint: "Anchor-1" 1265 1579 basechar 0
AnchorPoint: "Anchor-0" 893 1579 basechar 0
AnchorPoint: "Anchor-2" 1082 1595 basechar 0
AnchorPoint: "Anchor-30" 1079 1579 basechar 0
LayerCount: 2
Fore
SplineSet
1419 0 m 1,0,-1
 1026 0 l 1,1,-1
 646 1106 l 1,2,-1
 637 1106 l 1,3,4
 629 1029 629 1029 620 953 c 0,5,6
 613 888 613 888 602.5 816.5 c 128,-1,7
 592 745 592 745 582 688 c 2,8,-1
 461 0 l 1,9,-1
 184 0 l 1,10,-1
 442 1462 l 1,11,-1
 833 1462 l 1,12,-1
 1214 367 l 1,13,-1
 1220 367 l 1,14,15
 1230 443 1230 443 1239 517 c 0,16,17
 1244 549 1244 549 1248.5 582.5 c 128,-1,18
 1253 616 1253 616 1257.5 649.5 c 128,-1,19
 1262 683 1262 683 1267 714 c 128,-1,20
 1272 745 1272 745 1277 770 c 2,21,-1
 1399 1462 l 1,22,-1
 1677 1462 l 1,23,-1
 1419 0 l 1,0,-1
EndSplineSet
EndChar

StartChar: O
Encoding: 79 79 50
Width: 1548
GlyphClass: 2
Flags: MW
AnchorPoint: "Anchor-20" 1545 1595 basechar 0
AnchorPoint: "Anchor-4" 735 -152 basechar 0
AnchorPoint: "Anchor-2" 1043 1595 basechar 0
AnchorPoint: "Anchor-30" 1040 1579 basechar 0
AnchorPoint: "Anchor-0" 868 1579 basechar 0
AnchorPoint: "Anchor-1" 1210 1579 basechar 0
LayerCount: 2
Fore
SplineSet
1559 733 m 0,0,1
 1529 564 1529 564 1465 425 c 128,-1,2
 1401 286 1401 286 1303 187 c 128,-1,3
 1205 88 1205 88 1071.5 34 c 128,-1,4
 938 -20 938 -20 770 -20 c 256,5,6
 602 -20 602 -20 488.5 34 c 128,-1,7
 375 88 375 88 311.5 187 c 128,-1,8
 248 286 248 286 233.5 425.5 c 128,-1,9
 219 565 219 565 249 735 c 256,10,11
 279 905 279 905 342.5 1043.5 c 128,-1,12
 406 1182 406 1182 504.5 1280 c 128,-1,13
 603 1378 603 1378 736 1431.5 c 128,-1,14
 869 1485 869 1485 1038 1485 c 0,15,16
 1206 1485 1206 1485 1319.5 1431.5 c 128,-1,17
 1433 1378 1433 1378 1496 1279.5 c 128,-1,18
 1559 1181 1559 1181 1574 1042.5 c 128,-1,19
 1589 904 1589 904 1559 733 c 0,0,1
567 733 m 256,20,21
 547 618 547 618 551 526.5 c 128,-1,22
 555 435 555 435 585 371.5 c 128,-1,23
 615 308 615 308 672 274 c 128,-1,24
 729 240 729 240 816 240 c 0,25,26
 905 240 905 240 974.5 274 c 128,-1,27
 1044 308 1044 308 1096 371.5 c 128,-1,28
 1148 435 1148 435 1183.5 526.5 c 128,-1,29
 1219 618 1219 618 1239 733 c 256,30,31
 1259 848 1259 848 1256 939.5 c 128,-1,32
 1253 1031 1253 1031 1223.5 1095 c 128,-1,33
 1194 1159 1194 1159 1137 1193 c 128,-1,34
 1080 1227 1080 1227 992 1227 c 0,35,36
 905 1227 905 1227 835 1193 c 128,-1,37
 765 1159 765 1159 712.5 1095 c 128,-1,38
 660 1031 660 1031 623.5 939.5 c 128,-1,39
 587 848 587 848 567 733 c 256,20,21
EndSplineSet
EndChar

StartChar: P
Encoding: 80 80 51
Width: 1225
GlyphClass: 2
Flags: MW
AnchorPoint: "Anchor-4" 594 -152 basechar 0
AnchorPoint: "Anchor-1" 1063 1579 basechar 0
AnchorPoint: "Anchor-0" 735 1579 basechar 0
AnchorPoint: "Anchor-2" 902 1595 basechar 0
AnchorPoint: "Anchor-30" 899 1579 basechar 0
AnchorPoint: "Anchor-3" 316 -131 basechar 0
LayerCount: 2
Fore
SplineSet
630 774 m 1,0,-1
 691 774 l 2,1,2
 822 774 822 774 898 826 c 128,-1,3
 974 878 974 878 994 995 c 0,4,5
 1013 1104 1013 1104 963 1156 c 128,-1,6
 913 1208 913 1208 786 1208 c 2,7,-1
 707 1208 l 1,8,-1
 630 774 l 1,0,-1
1310 1006 m 0,9,10
 1293 910 1293 910 1248.5 822 c 128,-1,11
 1204 734 1204 734 1126 667 c 128,-1,12
 1048 600 1048 600 932.5 560 c 128,-1,13
 817 520 817 520 657 520 c 2,14,-1
 586 520 l 1,15,-1
 494 0 l 1,16,-1
 184 0 l 1,17,-1
 442 1462 l 1,18,-1
 848 1462 l 2,19,20
 989 1462 989 1462 1086 1430.5 c 128,-1,21
 1183 1399 1183 1399 1239 1340.5 c 128,-1,22
 1295 1282 1295 1282 1312 1197.5 c 128,-1,23
 1329 1113 1329 1113 1310 1006 c 0,9,10
EndSplineSet
EndChar

StartChar: Q
Encoding: 81 81 52
Width: 1548
GlyphClass: 2
Flags: MW
AnchorPoint: "Anchor-1" 1225 1579 basechar 0
AnchorPoint: "Anchor-0" 883 1579 basechar 0
AnchorPoint: "Anchor-30" 1054 1579 basechar 0
AnchorPoint: "Anchor-3" 664 -131 basechar 0
AnchorPoint: "Anchor-2" 1057 1595 basechar 0
LayerCount: 2
Fore
SplineSet
1559 733 m 0,0,1
 1538 614 1538 614 1500 509.5 c 128,-1,2
 1462 405 1462 405 1407.5 319 c 128,-1,3
 1353 233 1353 233 1281.5 166 c 128,-1,4
 1210 99 1210 99 1122 55 c 1,5,-1
 1412 -348 l 1,6,-1
 1014 -348 l 1,7,-1
 804 -18 l 1,8,9
 797 -18 797 -18 791 -19 c 0,10,11
 786 -20 786 -20 780 -20 c 128,-1,12
 774 -20 774 -20 770 -20 c 0,13,14
 602 -20 602 -20 488.5 34 c 128,-1,15
 375 88 375 88 311.5 187 c 128,-1,16
 248 286 248 286 233.5 425.5 c 128,-1,17
 219 565 219 565 249 735 c 256,18,19
 279 905 279 905 342.5 1043.5 c 128,-1,20
 406 1182 406 1182 504.5 1280 c 128,-1,21
 603 1378 603 1378 736 1431.5 c 128,-1,22
 869 1485 869 1485 1038 1485 c 0,23,24
 1206 1485 1206 1485 1319.5 1431.5 c 128,-1,25
 1433 1378 1433 1378 1496 1279.5 c 128,-1,26
 1559 1181 1559 1181 1574 1042.5 c 128,-1,27
 1589 904 1589 904 1559 733 c 0,0,1
567 733 m 256,28,29
 547 618 547 618 551 526.5 c 128,-1,30
 555 435 555 435 585 371.5 c 128,-1,31
 615 308 615 308 672 274 c 128,-1,32
 729 240 729 240 816 240 c 0,33,34
 905 240 905 240 974.5 274 c 128,-1,35
 1044 308 1044 308 1096 371.5 c 128,-1,36
 1148 435 1148 435 1183.5 526.5 c 128,-1,37
 1219 618 1219 618 1239 733 c 256,38,39
 1259 848 1259 848 1256 939.5 c 128,-1,40
 1253 1031 1253 1031 1223.5 1095 c 128,-1,41
 1194 1159 1194 1159 1137 1193 c 128,-1,42
 1080 1227 1080 1227 992 1227 c 0,43,44
 905 1227 905 1227 835 1193 c 128,-1,45
 765 1159 765 1159 712.5 1095 c 128,-1,46
 660 1031 660 1031 623.5 939.5 c 128,-1,47
 587 848 587 848 567 733 c 256,28,29
EndSplineSet
EndChar

StartChar: R
Encoding: 82 82 53
Width: 1290
GlyphClass: 2
Flags: MW
AnchorPoint: "Anchor-1" 1063 1579 basechar 0
AnchorPoint: "Anchor-0" 735 1579 basechar 0
AnchorPoint: "Anchor-2" 902 1595 basechar 0
AnchorPoint: "Anchor-30" 899 1579 basechar 0
LayerCount: 2
Fore
SplineSet
637 813 m 1,0,-1
 721 813 l 2,1,2
 850 813 850 813 915.5 864.5 c 128,-1,3
 981 916 981 916 998 1016 c 0,4,5
 1016 1120 1016 1120 964 1164 c 128,-1,6
 912 1208 912 1208 786 1208 c 2,7,-1
 707 1208 l 1,8,-1
 637 813 l 1,0,-1
593 561 m 1,9,-1
 494 0 l 1,10,-1
 184 0 l 1,11,-1
 442 1462 l 1,12,-1
 842 1462 l 2,13,14
 1123 1462 1123 1462 1238 1353.5 c 128,-1,15
 1353 1245 1353 1245 1314 1024 c 0,16,17
 1301 949 1301 949 1270 888 c 128,-1,18
 1239 827 1239 827 1197 779.5 c 128,-1,19
 1155 732 1155 732 1105.5 696.5 c 128,-1,20
 1056 661 1056 661 1003 637 c 1,21,22
 1083 459 1083 459 1146 319 c 0,23,24
 1173 259 1173 259 1199 202 c 128,-1,25
 1225 145 1225 145 1245 100 c 128,-1,26
 1265 55 1265 55 1278 28 c 2,27,-1
 1290 0 l 1,28,-1
 946 0 l 1,29,-1
 728 561 l 1,30,-1
 593 561 l 1,9,-1
EndSplineSet
EndChar

StartChar: S
Encoding: 83 83 54
Width: 1073
GlyphClass: 2
Flags: MW
AnchorPoint: "Anchor-4" 542 -152 basechar 0
AnchorPoint: "Anchor-1" 1006 1579 basechar 0
AnchorPoint: "Anchor-0" 688 1579 basechar 0
AnchorPoint: "Anchor-2" 850 1595 basechar 0
AnchorPoint: "Anchor-30" 847 1579 basechar 0
LayerCount: 2
Fore
SplineSet
1057 406 m 0,0,1
 1040 308 1040 308 992.5 229.5 c 128,-1,2
 945 151 945 151 870.5 95.5 c 128,-1,3
 796 40 796 40 697 10 c 128,-1,4
 598 -20 598 -20 477 -20 c 0,5,6
 371 -20 371 -20 276.5 2 c 128,-1,7
 182 24 182 24 106 68 c 1,8,-1
 157 356 l 1,9,10
 201 333 201 333 246 311.5 c 128,-1,11
 291 290 291 290 338.5 273 c 128,-1,12
 386 256 386 256 435 246 c 128,-1,13
 484 236 484 236 534 236 c 0,14,15
 585 236 585 236 623.5 247.5 c 128,-1,16
 662 259 662 259 688 279.5 c 128,-1,17
 714 300 714 300 729.5 328.5 c 128,-1,18
 745 357 745 357 751 391 c 0,19,20
 758 432 758 432 746 463.5 c 128,-1,21
 734 495 734 495 707.5 522.5 c 128,-1,22
 681 550 681 550 641 576 c 128,-1,23
 601 602 601 602 551 631 c 0,24,25
 509 655 509 655 458 689 c 128,-1,26
 407 723 407 723 365.5 773.5 c 128,-1,27
 324 824 324 824 303 895.5 c 128,-1,28
 282 967 282 967 299 1067 c 0,29,30
 316 1165 316 1165 362.5 1242.5 c 128,-1,31
 409 1320 409 1320 478.5 1373.5 c 128,-1,32
 548 1427 548 1427 638 1455 c 128,-1,33
 728 1483 728 1483 834 1483 c 0,34,35
 887 1483 887 1483 936.5 1476 c 128,-1,36
 986 1469 986 1469 1033 1456 c 128,-1,37
 1080 1443 1080 1443 1127 1424 c 128,-1,38
 1174 1405 1174 1405 1222 1380 c 1,39,-1
 1080 1139 l 1,40,41
 1039 1160 1039 1160 1002.5 1176 c 128,-1,42
 966 1192 966 1192 931 1203 c 128,-1,43
 896 1214 896 1214 861.5 1219.5 c 128,-1,44
 827 1225 827 1225 791 1225 c 0,45,46
 713 1225 713 1225 664 1183.5 c 128,-1,47
 615 1142 615 1142 603 1073 c 0,48,49
 596 1036 596 1036 604 1007.5 c 128,-1,50
 612 979 612 979 635 954 c 128,-1,51
 658 929 658 929 697 903 c 128,-1,52
 736 877 736 877 792 844 c 0,53,54
 860 804 860 804 915.5 762.5 c 128,-1,55
 971 721 971 721 1007.5 670.5 c 128,-1,56
 1044 620 1044 620 1058 556 c 128,-1,57
 1072 492 1072 492 1057 406 c 0,0,1
EndSplineSet
EndChar

StartChar: T
Encoding: 84 84 55
Width: 1124
GlyphClass: 2
Flags: MW
AnchorPoint: "Anchor-1" 995 1579 basechar 0
AnchorPoint: "Anchor-0" 686 1579 basechar 0
AnchorPoint: "Anchor-2" 843 1595 basechar 0
AnchorPoint: "Anchor-30" 840 1579 basechar 0
LayerCount: 2
Fore
SplineSet
717 0 m 1,0,-1
 408 0 l 1,1,-1
 620 1204 l 1,2,-1
 253 1204 l 1,3,-1
 299 1462 l 1,4,-1
 1341 1462 l 1,5,-1
 1295 1204 l 1,6,-1
 929 1204 l 1,7,-1
 717 0 l 1,0,-1
EndSplineSet
EndChar

StartChar: U
Encoding: 85 85 56
Width: 1466
GlyphClass: 2
Flags: MW
AnchorPoint: "Anchor-4" 706 -152 basechar 0
AnchorPoint: "Anchor-1" 1182 1579 basechar 0
AnchorPoint: "Anchor-0" 840 1579 basechar 0
AnchorPoint: "Anchor-30" 1011 1579 basechar 0
AnchorPoint: "Anchor-2" 1014 1595 basechar 0
LayerCount: 2
Fore
SplineSet
1550 1462 m 1,0,-1
 1383 516 l 2,1,2
 1363 402 1363 402 1311 304 c 128,-1,3
 1259 206 1259 206 1176 134 c 128,-1,4
 1093 62 1093 62 979.5 21 c 128,-1,5
 866 -20 866 -20 723 -20 c 0,6,7
 588 -20 588 -20 491.5 18.5 c 128,-1,8
 395 57 395 57 338 128 c 128,-1,9
 281 199 281 199 262.5 298.5 c 128,-1,10
 244 398 244 398 266 520 c 2,11,-1
 432 1462 l 1,12,-1
 741 1462 l 1,13,-1
 579 543 l 2,14,15
 565 462 565 462 570.5 404.5 c 128,-1,16
 576 347 576 347 601 310.5 c 128,-1,17
 626 274 626 274 670 257 c 128,-1,18
 714 240 714 240 777 240 c 0,19,20
 908 240 908 240 980 316 c 128,-1,21
 1052 392 1052 392 1079 545 c 2,22,-1
 1241 1462 l 1,23,-1
 1550 1462 l 1,0,-1
EndSplineSet
EndChar

StartChar: V
Encoding: 86 86 57
Width: 1249
GlyphClass: 2
Flags: MW
AnchorPoint: "Anchor-30" 901 1579 basechar 0
AnchorPoint: "Anchor-1" 1072 1579 basechar 0
AnchorPoint: "Anchor-0" 730 1579 basechar 0
AnchorPoint: "Anchor-2" 904 1595 basechar 0
LayerCount: 2
Fore
SplineSet
1194 1462 m 1,0,-1
 1507 1462 l 1,1,-1
 793 0 l 1,2,-1
 455 0 l 1,3,-1
 258 1462 l 1,4,-1
 571 1462 l 1,5,-1
 664 582 l 2,6,7
 666 565 666 565 667.5 525 c 128,-1,8
 669 485 669 485 670 437 c 128,-1,9
 671 389 671 389 671.5 341 c 128,-1,10
 672 293 672 293 671 260 c 1,11,12
 682 293 682 293 699.5 341 c 128,-1,13
 717 389 717 389 735 436.5 c 128,-1,14
 753 484 753 484 769.5 524 c 128,-1,15
 786 564 786 564 795 582 c 2,16,-1
 1194 1462 l 1,0,-1
EndSplineSet
EndChar

StartChar: W
Encoding: 87 87 58
Width: 1898
GlyphClass: 2
Flags: MW
AnchorPoint: "Anchor-2" 1225 1595 basechar 0
AnchorPoint: "Anchor-0" 1091 1579 basechar 0
AnchorPoint: "Anchor-1" 1363 1579 basechar 0
AnchorPoint: "Anchor-30" 1222 1579 basechar 0
LayerCount: 2
Fore
SplineSet
1546 0 m 1,0,-1
 1194 0 l 1,1,-1
 1141 721 l 2,2,3
 1140 736 1140 736 1139 763 c 128,-1,4
 1138 790 1138 790 1137 824 c 128,-1,5
 1136 858 1136 858 1135.5 895 c 128,-1,6
 1135 932 1135 932 1135.5 967 c 128,-1,7
 1136 1002 1136 1002 1136.5 1031.5 c 128,-1,8
 1137 1061 1137 1061 1138 1079 c 1,9,10
 1133 1061 1133 1061 1123.5 1031.5 c 128,-1,11
 1114 1002 1114 1002 1102 967.5 c 128,-1,12
 1090 933 1090 933 1076.5 896 c 128,-1,13
 1063 859 1063 859 1050.5 825 c 128,-1,14
 1038 791 1038 791 1027.5 763 c 128,-1,15
 1017 735 1017 735 1010 719 c 2,16,-1
 705 0 l 1,17,-1
 352 0 l 1,18,-1
 258 1462 l 1,19,-1
 563 1462 l 1,20,-1
 588 664 l 2,21,22
 588 648 588 648 588.5 617.5 c 128,-1,23
 589 587 589 587 589 549 c 128,-1,24
 589 511 589 511 589 469 c 128,-1,25
 589 427 589 427 589 387 c 128,-1,26
 589 347 589 347 589 312.5 c 128,-1,27
 589 278 589 278 588 256 c 1,28,29
 595 278 595 278 606.5 312 c 128,-1,30
 618 346 618 346 631 384.5 c 128,-1,31
 644 423 644 423 658.5 464 c 128,-1,32
 673 505 673 505 685.5 540.5 c 128,-1,33
 698 576 698 576 708 603.5 c 128,-1,34
 718 631 718 631 723 643 c 2,35,-1
 1071 1462 l 1,36,-1
 1343 1462 l 1,37,-1
 1401 643 l 2,38,39
 1402 631 1402 631 1403 603.5 c 128,-1,40
 1404 576 1404 576 1404 540.5 c 128,-1,41
 1404 505 1404 505 1404 464 c 128,-1,42
 1404 423 1404 423 1403.5 384.5 c 128,-1,43
 1403 346 1403 346 1402.5 312 c 128,-1,44
 1402 278 1402 278 1401 256 c 1,45,46
 1408 278 1408 278 1419.5 312.5 c 128,-1,47
 1431 347 1431 347 1445 387 c 128,-1,48
 1459 427 1459 427 1474 469 c 128,-1,49
 1489 511 1489 511 1503 549 c 128,-1,50
 1517 587 1517 587 1527.5 617.5 c 128,-1,51
 1538 648 1538 648 1544 664 c 2,52,-1
 1851 1462 l 1,53,-1
 2156 1462 l 1,54,-1
 1546 0 l 1,0,-1
EndSplineSet
EndChar

StartChar: X
Encoding: 88 88 59
Width: 1284
GlyphClass: 2
Flags: MW
AnchorPoint: "Anchor-3" 624 -131 basechar 0
AnchorPoint: "Anchor-4" 620 -152 basechar 0
AnchorPoint: "Anchor-30" 925 1579 basechar 0
AnchorPoint: "Anchor-1" 1096 1579 basechar 0
AnchorPoint: "Anchor-0" 754 1579 basechar 0
AnchorPoint: "Anchor-2" 928 1595 basechar 0
LayerCount: 2
Fore
SplineSet
1284 0 m 1,0,-1
 930 0 l 1,1,-1
 729 553 l 1,2,-1
 332 0 l 1,3,-1
 0 0 l 1,4,-1
 577 754 l 1,5,-1
 289 1462 l 1,6,-1
 631 1462 l 1,7,-1
 812 936 l 1,8,-1
 1173 1462 l 1,9,-1
 1507 1462 l 1,10,-1
 961 737 l 1,11,-1
 1284 0 l 1,0,-1
EndSplineSet
EndChar

StartChar: Y
Encoding: 89 89 60
Width: 1196
GlyphClass: 2
Flags: MW
AnchorPoint: "Anchor-18" 876 1579 basechar 0
AnchorPoint: "Anchor-19" 876 1579 basechar 0
AnchorPoint: "Anchor-4" 571 -152 basechar 0
AnchorPoint: "Anchor-1" 1047 1579 basechar 0
AnchorPoint: "Anchor-0" 705 1579 basechar 0
AnchorPoint: "Anchor-2" 879 1595 basechar 0
AnchorPoint: "Anchor-30" 876 1579 basechar 0
LayerCount: 2
Fore
SplineSet
750 860 m 1,0,-1
 1120 1462 l 1,1,-1
 1454 1462 l 1,2,-1
 852 569 l 1,3,-1
 752 0 l 1,4,-1
 444 0 l 1,5,-1
 543 559 l 1,6,-1
 258 1462 l 1,7,-1
 594 1462 l 1,8,-1
 750 860 l 1,0,-1
EndSplineSet
EndChar

StartChar: Z
Encoding: 90 90 61
Width: 1104
GlyphClass: 2
Flags: MW
AnchorPoint: "Anchor-1" 1001 1579 basechar 0
AnchorPoint: "Anchor-0" 659 1579 basechar 0
AnchorPoint: "Anchor-2" 833 1595 basechar 0
AnchorPoint: "Anchor-30" 830 1579 basechar 0
LayerCount: 2
Fore
SplineSet
1055 0 m 1,0,-1
 49 0 l 1,1,-1
 84 201 l 1,2,-1
 881 1206 l 1,3,-1
 281 1206 l 1,4,-1
 326 1462 l 1,5,-1
 1294 1462 l 1,6,-1
 1259 1262 l 1,7,-1
 463 256 l 1,8,-1
 1100 256 l 1,9,-1
 1055 0 l 1,0,-1
EndSplineSet
EndChar

StartChar: bracketleft
Encoding: 91 91 62
Width: 678
GlyphClass: 2
Flags: MW
LayerCount: 2
Fore
SplineSet
570 -324 m 1,0,-1
 86 -324 l 1,1,-1
 401 1462 l 1,2,-1
 885 1462 l 1,3,-1
 848 1251 l 1,4,-1
 624 1251 l 1,5,-1
 383 -113 l 1,6,-1
 607 -113 l 1,7,-1
 570 -324 l 1,0,-1
EndSplineSet
EndChar

StartChar: backslash
Encoding: 92 92 63
Width: 846
GlyphClass: 2
Flags: MW
LayerCount: 2
Fore
SplineSet
547 1462 m 1,0,-1
 834 0 l 1,1,-1
 557 0 l 1,2,-1
 270 1462 l 1,3,-1
 547 1462 l 1,0,-1
EndSplineSet
EndChar

StartChar: bracketright
Encoding: 93 93 64
Width: 678
GlyphClass: 2
Flags: MW
LayerCount: 2
Fore
SplineSet
31 -113 m 1,0,-1
 254 -113 l 1,1,-1
 495 1251 l 1,2,-1
 272 1251 l 1,3,-1
 309 1462 l 1,4,-1
 793 1462 l 1,5,-1
 478 -324 l 1,6,-1
 -6 -324 l 1,7,-1
 31 -113 l 1,0,-1
EndSplineSet
EndChar

StartChar: asciicircum
Encoding: 94 94 65
Width: 1090
GlyphClass: 2
Flags: MW
LayerCount: 2
Fore
SplineSet
100 520 m 1,0,-1
 705 1470 l 1,1,-1
 849 1470 l 1,2,-1
 1177 520 l 1,3,-1
 938 520 l 1,4,-1
 729 1163 l 1,5,6
 632 1002 632 1002 531.5 839 c 128,-1,7
 431 676 431 676 336 520 c 1,8,-1
 100 520 l 1,0,-1
EndSplineSet
EndChar

StartChar: underscore
Encoding: 95 95 66
Width: 842
GlyphClass: 2
Flags: MW
LayerCount: 2
Fore
SplineSet
789 -324 m 1,0,-1
 -61 -324 l 1,1,-1
 -36 -184 l 1,2,-1
 814 -184 l 1,3,-1
 789 -324 l 1,0,-1
EndSplineSet
EndChar

StartChar: grave
Encoding: 96 96 67
Width: 1182
GlyphClass: 2
Flags: MW
LayerCount: 2
Fore
SplineSet
864 1241 m 1,0,1
 835 1269 835 1269 794.5 1310.5 c 128,-1,2
 754 1352 754 1352 716 1396 c 128,-1,3
 678 1440 678 1440 647 1480.5 c 128,-1,4
 616 1521 616 1521 605 1548 c 1,5,-1
 609 1569 l 1,6,-1
 951 1569 l 1,7,8
 961 1535 961 1535 975 1494.5 c 128,-1,9
 989 1454 989 1454 1005 1413.5 c 128,-1,10
 1021 1373 1021 1373 1038.5 1335 c 128,-1,11
 1056 1297 1056 1297 1072 1268 c 1,12,-1
 1067 1241 l 1,13,-1
 864 1241 l 1,0,1
EndSplineSet
EndChar

StartChar: a
Encoding: 97 97 68
Width: 1176
GlyphClass: 2
Flags: MW
AnchorPoint: "Anchor-18" 807 1241 basechar 0
AnchorPoint: "Anchor-19" 807 1241 basechar 0
AnchorPoint: "Anchor-4" 561 -152 basechar 0
AnchorPoint: "Anchor-30" 807 1241 basechar 0
AnchorPoint: "Anchor-2" 810 1257 basechar 0
AnchorPoint: "Anchor-0" 660 1241 basechar 0
AnchorPoint: "Anchor-1" 974 1241 basechar 0
LayerCount: 2
Fore
SplineSet
809 0 m 1,0,-1
 777 152 l 1,1,-1
 768 152 l 1,2,3
 727 107 727 107 688 74.5 c 128,-1,4
 649 42 649 42 606.5 21 c 128,-1,5
 564 0 564 0 513.5 -10 c 128,-1,6
 463 -20 463 -20 399 -20 c 0,7,8
 331 -20 331 -20 277 1.5 c 128,-1,9
 223 23 223 23 188 66.5 c 128,-1,10
 153 110 153 110 141 176.5 c 128,-1,11
 129 243 129 243 145 334 c 0,12,13
 176 512 176 512 305 596.5 c 128,-1,14
 434 681 434 681 663 690 c 2,15,-1
 842 696 l 1,16,-1
 857 780 l 2,17,18
 869 849 869 849 834.5 882 c 128,-1,19
 800 915 800 915 728 915 c 256,20,21
 656 915 656 915 584 894 c 128,-1,22
 512 873 512 873 437 838 c 1,23,-1
 373 1040 l 1,24,25
 465 1087 465 1087 572 1114 c 128,-1,26
 679 1141 679 1141 791 1141 c 0,27,28
 1000 1141 1000 1141 1094.5 1043 c 128,-1,29
 1189 945 1189 945 1153 745 c 2,30,-1
 1022 0 l 1,31,-1
 809 0 l 1,0,-1
810 518 m 1,32,-1
 709 514 l 2,33,34
 648 512 648 512 603 498 c 128,-1,35
 558 484 558 484 528.5 460.5 c 128,-1,36
 499 437 499 437 482 404.5 c 128,-1,37
 465 372 465 372 458 332 c 0,38,39
 446 262 446 262 474.5 232.5 c 128,-1,40
 503 203 503 203 558 203 c 0,41,42
 600 203 600 203 638.5 217.5 c 128,-1,43
 677 232 677 232 708.5 260.5 c 128,-1,44
 740 289 740 289 762.5 330.5 c 128,-1,45
 785 372 785 372 794 426 c 2,46,-1
 810 518 l 1,32,-1
EndSplineSet
EndChar

StartChar: b
Encoding: 98 98 69
Width: 1245
GlyphClass: 2
Flags: MW
AnchorPoint: "Anchor-4" 624 -152 basechar 0
AnchorPoint: "Anchor-30" 1083 1579 basechar 0
AnchorPoint: "Anchor-0" 912 1579 basechar 0
AnchorPoint: "Anchor-1" 1254 1579 basechar 0
AnchorPoint: "Anchor-2" 1027 1257 basechar 0
LayerCount: 2
Fore
SplineSet
957 1139 m 0,0,1
 1043 1139 1043 1139 1107.5 1102 c 128,-1,2
 1172 1065 1172 1065 1210 992 c 128,-1,3
 1248 919 1248 919 1257.5 811 c 128,-1,4
 1267 703 1267 703 1242 561 c 0,5,6
 1217 417 1217 417 1169 308.5 c 128,-1,7
 1121 200 1121 200 1056.5 127 c 128,-1,8
 992 54 992 54 912 17 c 128,-1,9
 832 -20 832 -20 744 -20 c 0,10,11
 688 -20 688 -20 647 -8 c 128,-1,12
 606 4 606 4 575.5 24 c 128,-1,13
 545 44 545 44 524 69.5 c 128,-1,14
 503 95 503 95 487 123 c 1,15,-1
 466 123 l 1,16,-1
 393 0 l 1,17,-1
 160 0 l 1,18,-1
 434 1556 l 1,19,-1
 739 1556 l 1,20,-1
 676 1194 l 2,21,22
 670 1161 670 1161 661 1122.5 c 128,-1,23
 652 1084 652 1084 644 1051 c 0,24,25
 634 1012 634 1012 625 973 c 1,26,-1
 637 973 l 1,27,28
 664 1008 664 1008 696 1038 c 128,-1,29
 728 1068 728 1068 767.5 1090.5 c 128,-1,30
 807 1113 807 1113 854.5 1126 c 128,-1,31
 902 1139 902 1139 957 1139 c 0,0,1
811 895 m 0,32,33
 760 895 760 895 721 876.5 c 128,-1,34
 682 858 682 858 653.5 821 c 128,-1,35
 625 784 625 784 605 727.5 c 128,-1,36
 585 671 585 671 570 596 c 2,37,-1
 564 563 l 2,38,39
 550 482 550 482 548.5 419 c 128,-1,40
 547 356 547 356 561.5 313.5 c 128,-1,41
 576 271 576 271 608.5 249 c 128,-1,42
 641 227 641 227 695 227 c 0,43,44
 786 227 786 227 844 313.5 c 128,-1,45
 902 400 902 400 931 565 c 256,46,47
 960 730 960 730 932 812.5 c 128,-1,48
 904 895 904 895 811 895 c 0,32,33
EndSplineSet
EndChar

StartChar: c
Encoding: 99 99 70
Width: 1022
GlyphClass: 2
Flags: MW
AnchorPoint: "Anchor-4" 583 -152 basechar 0
AnchorPoint: "Anchor-1" 976 1241 basechar 0
AnchorPoint: "Anchor-0" 682 1241 basechar 0
AnchorPoint: "Anchor-2" 832 1257 basechar 0
AnchorPoint: "Anchor-30" 829 1241 basechar 0
AnchorPoint: "Anchor-3" 587 -131 basechar 0
LayerCount: 2
Fore
SplineSet
621 -20 m 0,0,1
 501 -20 501 -20 410.5 13 c 128,-1,2
 320 46 320 46 264 115.5 c 128,-1,3
 208 185 208 185 190.5 293.5 c 128,-1,4
 173 402 173 402 200 553 c 0,5,6
 229 720 229 720 286.5 832.5 c 128,-1,7
 344 945 344 945 424.5 1013 c 128,-1,8
 505 1081 505 1081 606.5 1110 c 128,-1,9
 708 1139 708 1139 826 1139 c 0,10,11
 912 1139 912 1139 993 1118 c 128,-1,12
 1074 1097 1074 1097 1143 1059 c 1,13,-1
 1014 827 l 1,14,15
 953 856 953 856 895 874.5 c 128,-1,16
 837 893 837 893 782 893 c 0,17,18
 671 893 671 893 606.5 808.5 c 128,-1,19
 542 724 542 724 512 555 c 0,20,21
 482 387 482 387 518 307 c 128,-1,22
 554 227 554 227 661 227 c 0,23,24
 748 227 748 227 823 249.5 c 128,-1,25
 898 272 898 272 978 307 c 1,26,-1
 933 53 l 1,27,28
 893 35 893 35 855.5 21 c 128,-1,29
 818 7 818 7 781 -2 c 128,-1,30
 744 -11 744 -11 704.5 -15.5 c 128,-1,31
 665 -20 665 -20 621 -20 c 0,0,1
EndSplineSet
EndChar

StartChar: d
Encoding: 100 100 71
Width: 1245
GlyphClass: 2
Flags: MW
AnchorPoint: "Anchor-4" 567 -152 basechar 0
AnchorPoint: "Anchor-30" 720 1579 basechar 0
AnchorPoint: "Anchor-1" 891 1579 basechar 0
AnchorPoint: "Anchor-0" 549 1579 basechar 0
AnchorPoint: "Anchor-2" 664 1257 basechar 0
LayerCount: 2
Fore
SplineSet
485 -20 m 0,0,1
 399 -20 399 -20 335 17 c 128,-1,2
 271 54 271 54 232.5 126.5 c 128,-1,3
 194 199 194 199 184.5 307 c 128,-1,4
 175 415 175 415 200 557 c 0,5,6
 225 701 225 701 273 809.5 c 128,-1,7
 321 918 321 918 386.5 991.5 c 128,-1,8
 452 1065 452 1065 531.5 1102 c 128,-1,9
 611 1139 611 1139 699 1139 c 0,10,11
 753 1139 753 1139 795.5 1126.5 c 128,-1,12
 838 1114 838 1114 870 1091.5 c 128,-1,13
 902 1069 902 1069 925.5 1039.5 c 128,-1,14
 949 1010 949 1010 965 975 c 1,15,-1
 975 975 l 1,16,17
 976 1014 976 1014 978 1054 c 0,18,19
 979 1088 979 1088 982 1126.5 c 128,-1,20
 985 1165 985 1165 991 1198 c 2,21,-1
 1054 1556 l 1,22,-1
 1359 1556 l 1,23,-1
 1085 0 l 1,24,-1
 852 0 l 1,25,-1
 819 145 l 1,26,-1
 806 145 l 1,27,28
 779 111 779 111 746.5 80.5 c 128,-1,29
 714 50 714 50 674.5 28 c 128,-1,30
 635 6 635 6 588 -7 c 128,-1,31
 541 -20 541 -20 485 -20 c 0,0,1
639 223 m 0,32,33
 693 223 693 223 734.5 241.5 c 128,-1,34
 776 260 776 260 806 297.5 c 128,-1,35
 836 335 836 335 857.5 391 c 128,-1,36
 879 447 879 447 893 522 c 2,37,-1
 899 555 l 2,38,39
 913 636 913 636 914 699 c 128,-1,40
 915 762 915 762 899.5 804.5 c 128,-1,41
 884 847 884 847 849 869 c 128,-1,42
 814 891 814 891 755 891 c 0,43,44
 659 891 659 891 599 804.5 c 128,-1,45
 539 718 539 718 510 553 c 256,46,47
 481 388 481 388 511.5 305.5 c 128,-1,48
 542 223 542 223 639 223 c 0,32,33
EndSplineSet
EndChar

StartChar: e
Encoding: 101 101 72
Width: 1190
GlyphClass: 2
Flags: MW
AnchorPoint: "Anchor-18" 825 1241 basechar 0
AnchorPoint: "Anchor-19" 825 1241 basechar 0
AnchorPoint: "Anchor-4" 579 -152 basechar 0
AnchorPoint: "Anchor-30" 825 1241 basechar 0
AnchorPoint: "Anchor-2" 828 1257 basechar 0
AnchorPoint: "Anchor-0" 666 1241 basechar 0
AnchorPoint: "Anchor-1" 1000 1241 basechar 0
LayerCount: 2
Fore
SplineSet
775 922 m 0,0,1
 694 922 694 922 630 865 c 128,-1,2
 566 808 566 808 537 686 c 1,3,-1
 926 686 l 1,4,5
 934 737 934 737 929.5 780 c 128,-1,6
 925 823 925 823 906.5 854.5 c 128,-1,7
 888 886 888 886 855.5 904 c 128,-1,8
 823 922 823 922 775 922 c 0,0,1
647 -20 m 0,9,10
 527 -20 527 -20 432.5 15 c 128,-1,11
 338 50 338 50 277.5 120.5 c 128,-1,12
 217 191 217 191 195.5 298.5 c 128,-1,13
 174 406 174 406 199 551 c 0,14,15
 225 698 225 698 281.5 808 c 128,-1,16
 338 918 338 918 417.5 991.5 c 128,-1,17
 497 1065 497 1065 597 1102 c 128,-1,18
 697 1139 697 1139 811 1139 c 0,19,20
 922 1139 922 1139 1005.5 1105.5 c 128,-1,21
 1089 1072 1089 1072 1140 1007 c 128,-1,22
 1191 942 1191 942 1208 847.5 c 128,-1,23
 1225 753 1225 753 1203 631 c 2,24,-1
 1177 483 l 1,25,-1
 495 483 l 1,26,27
 486 419 486 419 495.5 367.5 c 128,-1,28
 505 316 505 316 532 280.5 c 128,-1,29
 559 245 559 245 603.5 226 c 128,-1,30
 648 207 648 207 708 207 c 0,31,32
 759 207 759 207 805.5 212.5 c 128,-1,33
 852 218 852 218 897 229 c 128,-1,34
 942 240 942 240 987 256.5 c 128,-1,35
 1032 273 1032 273 1080 295 c 1,36,-1
 1038 59 l 1,37,38
 994 38 994 38 951.5 23.5 c 128,-1,39
 909 9 909 9 862 -1 c 128,-1,40
 815 -11 815 -11 762 -15.5 c 128,-1,41
 709 -20 709 -20 647 -20 c 0,9,10
EndSplineSet
EndChar

StartChar: f
Encoding: 102 102 73
Width: 793
GlyphClass: 2
Flags: MW
AnchorPoint: "Anchor-1" 1030 1595 basechar 0
AnchorPoint: "Anchor-0" 688 1595 basechar 0
AnchorPoint: "Anchor-2" 862 1611 basechar 0
AnchorPoint: "Anchor-30" 859 1595 basechar 0
AnchorPoint: "Anchor-3" 338 -131 basechar 0
LayerCount: 2
Fore
SplineSet
898 889 m 1,0,-1
 671 889 l 1,1,-1
 514 0 l 1,2,-1
 209 0 l 1,3,-1
 366 889 l 1,4,-1
 198 889 l 1,5,-1
 224 1036 l 1,6,-1
 406 1118 l 1,7,-1
 421 1200 l 2,8,9
 440 1307 440 1307 478 1377.5 c 128,-1,10
 516 1448 516 1448 571.5 1490 c 128,-1,11
 627 1532 627 1532 698 1549.5 c 128,-1,12
 769 1567 769 1567 854 1567 c 0,13,14
 946 1567 946 1567 1006.5 1552.5 c 128,-1,15
 1067 1538 1067 1538 1108 1520 c 1,16,-1
 997 1296 l 1,17,18
 968 1307 968 1307 935.5 1316 c 128,-1,19
 903 1325 903 1325 857 1325 c 0,20,21
 797 1325 797 1325 765.5 1286.5 c 128,-1,22
 734 1248 734 1248 723 1188 c 2,23,-1
 711 1118 l 1,24,-1
 938 1118 l 1,25,-1
 898 889 l 1,0,-1
EndSplineSet
EndChar

StartChar: g
Encoding: 103 103 74
Width: 1130
GlyphClass: 2
Flags: MW
AnchorPoint: "Anchor-4" 422 -644 basechar 0
AnchorPoint: "Anchor-2" 752 1257 basechar 0
AnchorPoint: "Anchor-30" 749 1241 basechar 0
AnchorPoint: "Anchor-0" 578 1241 basechar 0
AnchorPoint: "Anchor-1" 920 1241 basechar 0
AnchorPoint: "Anchor-3" 426 -623 basechar 0
LayerCount: 2
Fore
SplineSet
1282 1116 m 1,0,-1
 1253 950 l 1,1,-1
 1081 899 l 1,2,3
 1095 865 1095 865 1096.5 828.5 c 128,-1,4
 1098 792 1098 792 1090 750 c 0,5,6
 1075 665 1075 665 1035.5 594.5 c 128,-1,7
 996 524 996 524 934.5 474 c 128,-1,8
 873 424 873 424 788 396.5 c 128,-1,9
 703 369 703 369 597 369 c 0,10,11
 574 369 574 369 547.5 371.5 c 128,-1,12
 521 374 521 374 508 377 c 1,13,14
 485 360 485 360 470.5 341.5 c 128,-1,15
 456 323 456 323 451 297 c 0,16,17
 447 276 447 276 458 263.5 c 128,-1,18
 469 251 469 251 489 243.5 c 128,-1,19
 509 236 509 236 536.5 233.5 c 128,-1,20
 564 231 564 231 594 231 c 2,21,-1
 768 231 l 2,22,23
 849 231 849 231 909.5 212.5 c 128,-1,24
 970 194 970 194 1008 156 c 128,-1,25
 1046 118 1046 118 1059.5 59.5 c 128,-1,26
 1073 1 1073 1 1059 -80 c 0,27,28
 1042 -175 1042 -175 990.5 -251.5 c 128,-1,29
 939 -328 939 -328 854 -381.5 c 128,-1,30
 769 -435 769 -435 652 -463.5 c 128,-1,31
 535 -492 535 -492 388 -492 c 0,32,33
 274 -492 274 -492 193 -470.5 c 128,-1,34
 112 -449 112 -449 62 -408.5 c 128,-1,35
 12 -368 12 -368 -6.5 -311 c 128,-1,36
 -25 -254 -25 -254 -12 -182 c 0,37,38
 -1 -121 -1 -121 28 -76 c 128,-1,39
 57 -31 57 -31 97.5 1 c 128,-1,40
 138 33 138 33 186 53 c 128,-1,41
 234 73 234 73 283 84 c 1,42,43
 264 93 264 93 246 109 c 128,-1,44
 228 125 228 125 215 146 c 128,-1,45
 202 167 202 167 196 192.5 c 128,-1,46
 190 218 190 218 195 246 c 0,47,48
 201 278 201 278 215 304 c 128,-1,49
 229 330 229 330 251 352.5 c 128,-1,50
 273 375 273 375 303.5 395 c 128,-1,51
 334 415 334 415 372 436 c 1,52,53
 291 474 291 474 254 558 c 128,-1,54
 217 642 217 642 237 756 c 0,55,56
 253 846 253 846 293.5 917 c 128,-1,57
 334 988 334 988 397 1037.5 c 128,-1,58
 460 1087 460 1087 544.5 1113 c 128,-1,59
 629 1139 629 1139 733 1139 c 0,60,61
 753 1139 753 1139 777.5 1136.5 c 128,-1,62
 802 1134 802 1134 826 1130.5 c 128,-1,63
 850 1127 850 1127 870 1123 c 128,-1,64
 890 1119 890 1119 902 1116 c 2,65,-1
 1282 1116 l 1,0,-1
257 -158 m 0,66,67
 253 -183 253 -183 259 -206.5 c 128,-1,68
 265 -230 265 -230 286 -248 c 128,-1,69
 307 -266 307 -266 344 -276.5 c 128,-1,70
 381 -287 381 -287 438 -287 c 0,71,72
 594 -287 594 -287 681 -243 c 128,-1,73
 768 -199 768 -199 781 -125 c 0,74,75
 792 -62 792 -62 746.5 -41 c 128,-1,76
 701 -20 701 -20 598 -20 c 2,77,-1
 457 -20 l 2,78,79
 430 -20 430 -20 398 -26.5 c 128,-1,80
 366 -33 366 -33 337.5 -49 c 128,-1,81
 309 -65 309 -65 286.5 -91.5 c 128,-1,82
 264 -118 264 -118 257 -158 c 0,66,67
528 752 m 0,83,84
 512 661 512 661 537 611 c 128,-1,85
 562 561 562 561 631 561 c 0,86,87
 703 561 703 561 744 611 c 128,-1,88
 785 661 785 661 801 752 c 0,89,90
 817 842 817 842 794.5 895 c 128,-1,91
 772 948 772 948 699 948 c 0,92,93
 563 948 563 948 528 752 c 0,83,84
EndSplineSet
EndChar

StartChar: h
Encoding: 104 104 75
Width: 1284
GlyphClass: 2
Flags: MW
AnchorPoint: "Anchor-4" 618 -152 basechar 0
AnchorPoint: "Anchor-30" 1075 1579 basechar 0
AnchorPoint: "Anchor-1" 1246 1579 basechar 0
AnchorPoint: "Anchor-0" 904 1579 basechar 0
AnchorPoint: "Anchor-2" 1019 1257 basechar 0
LayerCount: 2
Fore
SplineSet
1130 0 m 1,0,-1
 825 0 l 1,1,-1
 940 653 l 2,2,3
 961 774 961 774 934.5 834.5 c 128,-1,4
 908 895 908 895 830 895 c 0,5,6
 771 895 771 895 726.5 871 c 128,-1,7
 682 847 682 847 650 800 c 128,-1,8
 618 753 618 753 595.5 684 c 128,-1,9
 573 615 573 615 558 526 c 2,10,-1
 465 0 l 1,11,-1
 160 0 l 1,12,-1
 434 1556 l 1,13,-1
 739 1556 l 1,14,-1
 683 1239 l 2,15,16
 676 1197 676 1197 666 1150.5 c 128,-1,17
 656 1104 656 1104 646 1065 c 0,18,19
 634 1019 634 1019 623 975 c 1,20,-1
 639 975 l 1,21,22
 703 1062 703 1062 786 1100.5 c 128,-1,23
 869 1139 869 1139 965 1139 c 0,24,25
 1048 1139 1048 1139 1111.5 1115.5 c 128,-1,26
 1175 1092 1175 1092 1214 1042 c 128,-1,27
 1253 992 1253 992 1265.5 914.5 c 128,-1,28
 1278 837 1278 837 1259 729 c 2,29,-1
 1130 0 l 1,0,-1
EndSplineSet
EndChar

StartChar: i
Encoding: 105 105 76
Width: 625
GlyphClass: 2
Flags: MW
AnchorPoint: "Anchor-18" 590 1579 basechar 0
AnchorPoint: "Anchor-19" 590 1579 basechar 0
AnchorPoint: "Anchor-3" 289 -131 basechar 0
AnchorPoint: "Anchor-4" 285 -152 basechar 0
AnchorPoint: "Anchor-30" 590 1579 basechar 0
AnchorPoint: "Anchor-2" 593 1595 basechar 0
AnchorPoint: "Anchor-0" 438 1579 basechar 0
AnchorPoint: "Anchor-1" 743 1579 basechar 0
LayerCount: 2
Fore
SplineSet
395 1407 m 0,0,1
 403 1450 403 1450 421 1478.5 c 128,-1,2
 439 1507 439 1507 464.5 1524.5 c 128,-1,3
 490 1542 490 1542 521.5 1549 c 128,-1,4
 553 1556 553 1556 587 1556 c 256,5,6
 621 1556 621 1556 650 1549 c 128,-1,7
 679 1542 679 1542 698.5 1524.5 c 128,-1,8
 718 1507 718 1507 726.5 1478.5 c 128,-1,9
 735 1450 735 1450 727 1407 c 0,10,11
 720 1365 720 1365 701 1336 c 128,-1,12
 682 1307 682 1307 656.5 1289.5 c 128,-1,13
 631 1272 631 1272 600 1264.5 c 128,-1,14
 569 1257 569 1257 535 1257 c 256,15,16
 501 1257 501 1257 471.5 1264.5 c 128,-1,17
 442 1272 442 1272 422.5 1289.5 c 128,-1,18
 403 1307 403 1307 395.5 1336 c 128,-1,19
 388 1365 388 1365 395 1407 c 0,0,1
465 0 m 1,20,-1
 160 0 l 1,21,-1
 357 1118 l 1,22,-1
 662 1118 l 1,23,-1
 465 0 l 1,20,-1
EndSplineSet
Substitution2: "Single Substitution lookup 0 lookup" dotlessi
EndChar

StartChar: j
Encoding: 106 106 77
Width: 625
GlyphClass: 2
Flags: MW
AnchorPoint: "Anchor-4" 77 -644 basechar 0
AnchorPoint: "Anchor-1" 743 1579 basechar 0
AnchorPoint: "Anchor-0" 438 1579 basechar 0
AnchorPoint: "Anchor-2" 593 1595 basechar 0
AnchorPoint: "Anchor-30" 590 1579 basechar 0
AnchorPoint: "Anchor-3" 202 -623 basechar 0
LayerCount: 2
Fore
SplineSet
15 -492 m 0,0,1
 -33 -492 -33 -492 -82.5 -485 c 128,-1,2
 -132 -478 -132 -478 -164 -467 c 1,3,-1
 -122 -227 l 1,4,5
 -93 -237 -93 -237 -66.5 -241.5 c 128,-1,6
 -40 -246 -40 -246 -6 -246 c 0,7,8
 19 -246 19 -246 42.5 -238.5 c 128,-1,9
 66 -231 66 -231 86 -211.5 c 128,-1,10
 106 -192 106 -192 122 -159.5 c 128,-1,11
 138 -127 138 -127 147 -76 c 2,12,-1
 357 1118 l 1,13,-1
 662 1118 l 1,14,-1
 444 -121 l 2,15,16
 430 -198 430 -198 398.5 -265.5 c 128,-1,17
 367 -333 367 -333 314.5 -383.5 c 128,-1,18
 262 -434 262 -434 188 -463 c 128,-1,19
 114 -492 114 -492 15 -492 c 0,0,1
395 1407 m 0,20,21
 403 1450 403 1450 421 1478.5 c 128,-1,22
 439 1507 439 1507 464.5 1524.5 c 128,-1,23
 490 1542 490 1542 521.5 1549 c 128,-1,24
 553 1556 553 1556 587 1556 c 256,25,26
 621 1556 621 1556 650 1549 c 128,-1,27
 679 1542 679 1542 698.5 1524.5 c 128,-1,28
 718 1507 718 1507 726.5 1478.5 c 128,-1,29
 735 1450 735 1450 727 1407 c 0,30,31
 720 1365 720 1365 701 1336 c 128,-1,32
 682 1307 682 1307 656.5 1289.5 c 128,-1,33
 631 1272 631 1272 600 1264.5 c 128,-1,34
 569 1257 569 1257 535 1257 c 256,35,36
 501 1257 501 1257 471.5 1264.5 c 128,-1,37
 442 1272 442 1272 422.5 1289.5 c 128,-1,38
 403 1307 403 1307 395.5 1336 c 128,-1,39
 388 1365 388 1365 395 1407 c 0,20,21
EndSplineSet
Substitution2: "Single Substitution lookup 0 lookup" dotlessj
EndChar

StartChar: k
Encoding: 107 107 78
Width: 1208
GlyphClass: 2
Flags: MW
AnchorPoint: "Anchor-1" 1273 1579 basechar 0
AnchorPoint: "Anchor-30" 1102 1579 basechar 0
AnchorPoint: "Anchor-0" 931 1579 basechar 0
AnchorPoint: "Anchor-2" 1048 1272 basechar 0
LayerCount: 2
Fore
SplineSet
560 608 m 1,0,-1
 702 778 l 1,1,-1
 1035 1118 l 1,2,-1
 1379 1118 l 1,3,-1
 890 633 l 1,4,-1
 1208 0 l 1,5,-1
 856 0 l 1,6,-1
 660 430 l 1,7,-1
 526 348 l 1,8,-1
 465 0 l 1,9,-1
 160 0 l 1,10,-1
 434 1556 l 1,11,-1
 739 1556 l 1,12,-1
 617 862 l 1,13,-1
 556 608 l 1,14,-1
 560 608 l 1,0,-1
EndSplineSet
EndChar

StartChar: l
Encoding: 108 108 79
Width: 625
GlyphClass: 2
Flags: MW
AnchorPoint: "Anchor-4" 285 -152 basechar 0
AnchorPoint: "Anchor-1" 746 1595 basechar 0
AnchorPoint: "Anchor-0" 441 1595 basechar 0
AnchorPoint: "Anchor-30" 593 1595 basechar 0
AnchorPoint: "Anchor-2" 596 1611 basechar 0
LayerCount: 2
Fore
SplineSet
465 0 m 1,0,-1
 160 0 l 1,1,-1
 434 1556 l 1,2,-1
 739 1556 l 1,3,-1
 465 0 l 1,0,-1
EndSplineSet
EndChar

StartChar: m
Encoding: 109 109 80
Width: 1929
GlyphClass: 2
Flags: MW
AnchorPoint: "Anchor-18" 1186 1241 basechar 0
AnchorPoint: "Anchor-19" 1186 1241 basechar 0
AnchorPoint: "Anchor-4" 940 -152 basechar 0
AnchorPoint: "Anchor-1" 1338 1241 basechar 0
AnchorPoint: "Anchor-0" 1034 1241 basechar 0
AnchorPoint: "Anchor-2" 1189 1257 basechar 0
AnchorPoint: "Anchor-30" 1186 1241 basechar 0
LayerCount: 2
Fore
SplineSet
1120 0 m 1,0,-1
 815 0 l 1,1,-1
 930 653 l 2,2,3
 951 774 951 774 926 834.5 c 128,-1,4
 901 895 901 895 824 895 c 0,5,6
 766 895 766 895 723 871 c 128,-1,7
 680 847 680 847 649 800 c 128,-1,8
 618 753 618 753 595.5 684 c 128,-1,9
 573 615 573 615 558 526 c 2,10,-1
 465 0 l 1,11,-1
 160 0 l 1,12,-1
 357 1118 l 1,13,-1
 590 1118 l 1,14,-1
 606 975 l 1,15,-1
 623 975 l 1,16,17
 655 1018 655 1018 693.5 1049 c 128,-1,18
 732 1080 732 1080 775.5 1100 c 128,-1,19
 819 1120 819 1120 866 1129.5 c 128,-1,20
 913 1139 913 1139 959 1139 c 0,21,22
 1074 1139 1074 1139 1147.5 1099.5 c 128,-1,23
 1221 1060 1221 1060 1249 975 c 1,24,-1
 1274 975 l 1,25,26
 1306 1018 1306 1018 1345 1049 c 128,-1,27
 1384 1080 1384 1080 1428.5 1100 c 128,-1,28
 1473 1120 1473 1120 1520.5 1129.5 c 128,-1,29
 1568 1139 1568 1139 1614 1139 c 0,30,31
 1794 1139 1794 1139 1868 1041.5 c 128,-1,32
 1942 944 1942 944 1905 729 c 2,33,-1
 1776 0 l 1,34,-1
 1470 0 l 1,35,-1
 1585 653 l 2,36,37
 1606 774 1606 774 1581 834.5 c 128,-1,38
 1556 895 1556 895 1479 895 c 0,39,40
 1370 895 1370 895 1308.5 808.5 c 128,-1,41
 1247 722 1247 722 1219 561 c 2,42,-1
 1120 0 l 1,0,-1
EndSplineSet
EndChar

StartChar: n
Encoding: 110 110 81
Width: 1284
GlyphClass: 2
Flags: MW
AnchorPoint: "Anchor-4" 618 -152 basechar 0
AnchorPoint: "Anchor-1" 1038 1241 basechar 0
AnchorPoint: "Anchor-0" 690 1241 basechar 0
AnchorPoint: "Anchor-2" 867 1257 basechar 0
AnchorPoint: "Anchor-30" 864 1241 basechar 0
LayerCount: 2
Fore
SplineSet
1130 0 m 1,0,-1
 825 0 l 1,1,-1
 940 653 l 2,2,3
 961 774 961 774 935.5 834.5 c 128,-1,4
 910 895 910 895 830 895 c 0,5,6
 770 895 770 895 725.5 871 c 128,-1,7
 681 847 681 847 649.5 800 c 128,-1,8
 618 753 618 753 595.5 684 c 128,-1,9
 573 615 573 615 558 526 c 2,10,-1
 465 0 l 1,11,-1
 160 0 l 1,12,-1
 357 1118 l 1,13,-1
 590 1118 l 1,14,-1
 606 975 l 1,15,-1
 623 975 l 1,16,17
 655 1018 655 1018 694.5 1049 c 128,-1,18
 734 1080 734 1080 778.5 1100 c 128,-1,19
 823 1120 823 1120 871 1129.5 c 128,-1,20
 919 1139 919 1139 967 1139 c 0,21,22
 1049 1139 1049 1139 1112 1115.5 c 128,-1,23
 1175 1092 1175 1092 1214 1042 c 128,-1,24
 1253 992 1253 992 1265.5 914.5 c 128,-1,25
 1278 837 1278 837 1259 729 c 2,26,-1
 1130 0 l 1,0,-1
EndSplineSet
EndChar

StartChar: o
Encoding: 111 111 82
Width: 1227
GlyphClass: 2
Flags: MW
AnchorPoint: "Anchor-20" 1180 1257 basechar 0
AnchorPoint: "Anchor-4" 581 -152 basechar 0
AnchorPoint: "Anchor-2" 830 1257 basechar 0
AnchorPoint: "Anchor-30" 827 1241 basechar 0
AnchorPoint: "Anchor-1" 1007 1241 basechar 0
AnchorPoint: "Anchor-0" 653 1241 basechar 0
LayerCount: 2
Fore
SplineSet
513 561 m 256,0,1
 484 394 484 394 516 309.5 c 128,-1,2
 548 225 548 225 654 225 c 0,3,4
 759 225 759 225 821 310 c 128,-1,5
 883 395 883 395 912 561 c 0,6,7
 941 728 941 728 908.5 810.5 c 128,-1,8
 876 893 876 893 769 893 c 0,9,10
 664 893 664 893 603 810.5 c 128,-1,11
 542 728 542 728 513 561 c 256,0,1
1223 561 m 0,12,13
 1198 421 1198 421 1143.5 313 c 128,-1,14
 1089 205 1089 205 1009.5 131 c 128,-1,15
 930 57 930 57 827.5 18.5 c 128,-1,16
 725 -20 725 -20 606 -20 c 0,17,18
 495 -20 495 -20 409 18.5 c 128,-1,19
 323 57 323 57 268.5 131 c 128,-1,20
 214 205 214 205 195 313 c 128,-1,21
 176 421 176 421 201 561 c 0,22,23
 226 700 226 700 280.5 808 c 128,-1,24
 335 916 335 916 414 989.5 c 128,-1,25
 493 1063 493 1063 595 1101 c 128,-1,26
 697 1139 697 1139 817 1139 c 0,27,28
 928 1139 928 1139 1014 1101 c 128,-1,29
 1100 1063 1100 1063 1155 989.5 c 128,-1,30
 1210 916 1210 916 1229 808 c 128,-1,31
 1248 700 1248 700 1223 561 c 0,12,13
EndSplineSet
EndChar

StartChar: p
Encoding: 112 112 83
Width: 1245
GlyphClass: 2
Flags: MW
AnchorPoint: "Anchor-4" 198 -644 basechar 0
AnchorPoint: "Anchor-0" 642 1241 basechar 0
AnchorPoint: "Anchor-2" 816 1257 basechar 0
AnchorPoint: "Anchor-30" 813 1241 basechar 0
AnchorPoint: "Anchor-1" 984 1241 basechar 0
AnchorPoint: "Anchor-3" 781 -131 basechar 0
LayerCount: 2
Fore
SplineSet
744 -20 m 0,0,1
 689 -20 689 -20 648 -8 c 128,-1,2
 607 4 607 4 576.5 24 c 128,-1,3
 546 44 546 44 524.5 69.5 c 128,-1,4
 503 95 503 95 487 123 c 1,5,-1
 471 123 l 1,6,7
 469 88 469 88 467 57 c 0,8,9
 465 31 465 31 463 3.5 c 128,-1,10
 461 -24 461 -24 458 -39 c 2,11,-1
 378 -492 l 1,12,-1
 73 -492 l 1,13,-1
 357 1118 l 1,14,-1
 605 1118 l 1,15,-1
 623 973 l 1,16,-1
 637 973 l 1,17,18
 664 1007 664 1007 696 1037 c 128,-1,19
 728 1067 728 1067 767.5 1089.5 c 128,-1,20
 807 1112 807 1112 854.5 1125.5 c 128,-1,21
 902 1139 902 1139 957 1139 c 0,22,23
 1044 1139 1044 1139 1108.5 1102 c 128,-1,24
 1173 1065 1173 1065 1211 992 c 128,-1,25
 1249 919 1249 919 1258 811 c 128,-1,26
 1267 703 1267 703 1242 561 c 0,27,28
 1217 418 1217 418 1168.5 309.5 c 128,-1,29
 1120 201 1120 201 1055 127.5 c 128,-1,30
 990 54 990 54 910.5 17 c 128,-1,31
 831 -20 831 -20 744 -20 c 0,0,1
811 895 m 0,32,33
 760 895 760 895 721 876.5 c 128,-1,34
 682 858 682 858 653.5 821 c 128,-1,35
 625 784 625 784 605 727.5 c 128,-1,36
 585 671 585 671 570 596 c 2,37,-1
 564 563 l 2,38,39
 550 482 550 482 548.5 419 c 128,-1,40
 547 356 547 356 561.5 313.5 c 128,-1,41
 576 271 576 271 608.5 249 c 128,-1,42
 641 227 641 227 695 227 c 0,43,44
 786 227 786 227 844 313.5 c 128,-1,45
 902 400 902 400 931 565 c 256,46,47
 960 730 960 730 932 812.5 c 128,-1,48
 904 895 904 895 811 895 c 0,32,33
EndSplineSet
EndChar

StartChar: q
Encoding: 113 113 84
Width: 1245
GlyphClass: 2
Flags: MW
AnchorPoint: "Anchor-1" 984 1241 basechar 0
AnchorPoint: "Anchor-0" 642 1241 basechar 0
AnchorPoint: "Anchor-30" 813 1241 basechar 0
AnchorPoint: "Anchor-3" 418 -131 basechar 0
AnchorPoint: "Anchor-2" 816 1257 basechar 0
LayerCount: 2
Fore
SplineSet
641 219 m 0,0,1
 696 219 696 219 736.5 237.5 c 128,-1,2
 777 256 777 256 806.5 293 c 128,-1,3
 836 330 836 330 857 386.5 c 128,-1,4
 878 443 878 443 892 518 c 2,5,-1
 899 555 l 2,6,7
 913 636 913 636 914.5 699 c 128,-1,8
 916 762 916 762 900 804.5 c 128,-1,9
 884 847 884 847 849.5 869 c 128,-1,10
 815 891 815 891 757 891 c 0,11,12
 661 891 661 891 601 804.5 c 128,-1,13
 541 718 541 718 512 553 c 0,14,15
 482 385 482 385 513 302 c 128,-1,16
 544 219 544 219 641 219 c 0,0,1
485 -20 m 0,17,18
 398 -20 398 -20 334 17 c 128,-1,19
 270 54 270 54 231.5 126.5 c 128,-1,20
 193 199 193 199 184 307 c 128,-1,21
 175 415 175 415 200 557 c 0,22,23
 225 700 225 700 273 808.5 c 128,-1,24
 321 917 321 917 386.5 990.5 c 128,-1,25
 452 1064 452 1064 531.5 1101.5 c 128,-1,26
 611 1139 611 1139 699 1139 c 0,27,28
 755 1139 755 1139 797.5 1126.5 c 128,-1,29
 840 1114 840 1114 872.5 1091.5 c 128,-1,30
 905 1069 905 1069 928 1039.5 c 128,-1,31
 951 1010 951 1010 967 975 c 1,32,-1
 975 975 l 1,33,-1
 1024 1118 l 1,34,-1
 1282 1118 l 1,35,-1
 998 -492 l 1,36,-1
 693 -492 l 1,37,-1
 776 -23 l 2,38,39
 779 -4 779 -4 786.5 24.5 c 128,-1,40
 794 53 794 53 801 80 c 0,41,42
 810 112 810 112 819 145 c 1,43,-1
 806 145 l 1,44,45
 780 111 780 111 747.5 80.5 c 128,-1,46
 715 50 715 50 675.5 28 c 128,-1,47
 636 6 636 6 588.5 -7 c 128,-1,48
 541 -20 541 -20 485 -20 c 0,17,18
EndSplineSet
EndChar

StartChar: r
Encoding: 114 114 85
Width: 889
GlyphClass: 2
Flags: MW
AnchorPoint: "Anchor-1" 871 1241 basechar 0
AnchorPoint: "Anchor-0" 557 1241 basechar 0
AnchorPoint: "Anchor-2" 717 1257 basechar 0
AnchorPoint: "Anchor-30" 714 1241 basechar 0
LayerCount: 2
Fore
SplineSet
944 1139 m 0,0,1
 956 1139 956 1139 970.5 1138.5 c 128,-1,2
 985 1138 985 1138 998 1136.5 c 128,-1,3
 1011 1135 1011 1135 1022.5 1133.5 c 128,-1,4
 1034 1132 1034 1132 1039 1130 c 1,5,-1
 989 844 l 1,6,7
 981 846 981 846 967.5 848 c 128,-1,8
 954 850 954 850 938.5 851.5 c 128,-1,9
 923 853 923 853 908.5 853.5 c 128,-1,10
 894 854 894 854 884 854 c 0,11,12
 825 854 825 854 772.5 839 c 128,-1,13
 720 824 720 824 678.5 790.5 c 128,-1,14
 637 757 637 757 608 702.5 c 128,-1,15
 579 648 579 648 565 569 c 2,16,-1
 465 0 l 1,17,-1
 160 0 l 1,18,-1
 357 1118 l 1,19,-1
 588 1118 l 1,20,-1
 604 950 l 1,21,-1
 619 950 l 1,22,23
 651 993 651 993 684.5 1028 c 128,-1,24
 718 1063 718 1063 757 1087.5 c 128,-1,25
 796 1112 796 1112 842 1125.5 c 128,-1,26
 888 1139 888 1139 944 1139 c 0,0,1
EndSplineSet
EndChar

StartChar: s
Encoding: 115 115 86
Width: 985
GlyphClass: 2
Flags: MW
AnchorPoint: "Anchor-4" 490 -152 basechar 0
AnchorPoint: "Anchor-1" 911 1241 basechar 0
AnchorPoint: "Anchor-0" 561 1241 basechar 0
AnchorPoint: "Anchor-2" 739 1257 basechar 0
AnchorPoint: "Anchor-30" 736 1241 basechar 0
LayerCount: 2
Fore
SplineSet
964 332 m 0,0,1
 948 244 948 244 904.5 178 c 128,-1,2
 861 112 861 112 794 68 c 128,-1,3
 727 24 727 24 639 2 c 128,-1,4
 551 -20 551 -20 447 -20 c 0,5,6
 392 -20 392 -20 346 -16.5 c 128,-1,7
 300 -13 300 -13 259.5 -5 c 128,-1,8
 219 3 219 3 182 15 c 128,-1,9
 145 27 145 27 108 45 c 1,10,-1
 152 297 l 1,11,12
 190 276 190 276 234 259 c 128,-1,13
 278 242 278 242 321.5 229.5 c 128,-1,14
 365 217 365 217 407.5 210 c 128,-1,15
 450 203 450 203 487 203 c 0,16,17
 528 203 528 203 558 210.5 c 128,-1,18
 588 218 588 218 609 231.5 c 128,-1,19
 630 245 630 245 642 263.5 c 128,-1,20
 654 282 654 282 657 303 c 256,21,22
 661 324 661 324 657.5 340.5 c 128,-1,23
 654 357 654 357 634 375.5 c 128,-1,24
 614 394 614 394 574 417.5 c 128,-1,25
 534 441 534 441 465 475 c 0,26,27
 398 508 398 508 350 540.5 c 128,-1,28
 302 573 302 573 274.5 613 c 128,-1,29
 247 653 247 653 239 704.5 c 128,-1,30
 231 756 231 756 244 827 c 0,31,32
 258 905 258 905 298 963.5 c 128,-1,33
 338 1022 338 1022 400 1061 c 128,-1,34
 462 1100 462 1100 543 1119.5 c 128,-1,35
 624 1139 624 1139 719 1139 c 0,36,37
 819 1139 819 1139 905 1116 c 128,-1,38
 991 1093 991 1093 1078 1047 c 1,39,-1
 948 831 l 1,40,41
 878 867 878 867 813 890 c 128,-1,42
 748 913 748 913 679 913 c 0,43,44
 617 913 617 913 585.5 891 c 128,-1,45
 554 869 554 869 548 831 c 0,46,47
 544 811 544 811 548.5 795.5 c 128,-1,48
 553 780 553 780 571 763.5 c 128,-1,49
 589 747 589 747 623.5 727.5 c 128,-1,50
 658 708 658 708 714 680 c 0,51,52
 780 649 780 649 831.5 618.5 c 128,-1,53
 883 588 883 588 917 549 c 128,-1,54
 951 510 951 510 964 458 c 128,-1,55
 977 406 977 406 964 332 c 0,0,1
EndSplineSet
EndChar

StartChar: t
Encoding: 116 116 87
Width: 848
GlyphClass: 2
Flags: MW
AnchorPoint: "Anchor-1" 759 1479 basechar 0
AnchorPoint: "Anchor-0" 564 1479 basechar 0
AnchorPoint: "Anchor-2" 664 1495 basechar 0
AnchorPoint: "Anchor-30" 661 1479 basechar 0
LayerCount: 2
Fore
SplineSet
653 223 m 0,0,1
 698 223 698 223 740.5 233 c 128,-1,2
 783 243 783 243 827 258 c 1,3,-1
 787 31 l 1,4,5
 740 9 740 9 674 -5.5 c 128,-1,6
 608 -20 608 -20 533 -20 c 0,7,8
 460 -20 460 -20 400 -3 c 128,-1,9
 340 14 340 14 301.5 56.5 c 128,-1,10
 263 99 263 99 249.5 170.5 c 128,-1,11
 236 242 236 242 255 350 c 2,12,-1
 350 889 l 1,13,-1
 204 889 l 1,14,-1
 227 1018 l 1,15,-1
 412 1120 l 1,16,-1
 542 1356 l 1,17,-1
 737 1356 l 1,18,-1
 695 1118 l 1,19,-1
 967 1118 l 1,20,-1
 927 889 l 1,21,-1
 655 889 l 1,22,-1
 560 350 l 2,23,24
 549 285 549 285 575 254 c 128,-1,25
 601 223 601 223 653 223 c 0,0,1
EndSplineSet
EndChar

StartChar: u
Encoding: 117 117 88
Width: 1284
GlyphClass: 2
Flags: MW
AnchorPoint: "Anchor-4" 612 -152 basechar 0
AnchorPoint: "Anchor-1" 1029 1241 basechar 0
AnchorPoint: "Anchor-0" 687 1241 basechar 0
AnchorPoint: "Anchor-30" 858 1241 basechar 0
AnchorPoint: "Anchor-2" 861 1257 basechar 0
LayerCount: 2
Fore
SplineSet
891 0 m 1,0,-1
 875 143 l 1,1,-1
 859 143 l 1,2,3
 826 100 826 100 786.5 69.5 c 128,-1,4
 747 39 747 39 702.5 19 c 128,-1,5
 658 -1 658 -1 610 -10.5 c 128,-1,6
 562 -20 562 -20 514 -20 c 0,7,8
 432 -20 432 -20 369.5 3.5 c 128,-1,9
 307 27 307 27 267.5 77 c 128,-1,10
 228 127 228 127 216 204 c 128,-1,11
 204 281 204 281 223 389 c 2,12,-1
 351 1118 l 1,13,-1
 656 1118 l 1,14,-1
 541 465 l 2,15,16
 520 344 520 344 545.5 283.5 c 128,-1,17
 571 223 571 223 651 223 c 0,18,19
 711 223 711 223 755.5 247 c 128,-1,20
 800 271 800 271 831.5 318 c 128,-1,21
 863 365 863 365 885.5 434 c 128,-1,22
 908 503 908 503 923 592 c 2,23,-1
 1016 1118 l 1,24,-1
 1321 1118 l 1,25,-1
 1124 0 l 1,26,-1
 891 0 l 1,0,-1
EndSplineSet
EndChar

StartChar: v
Encoding: 118 118 89
Width: 1104
GlyphClass: 2
Flags: MW
AnchorPoint: "Anchor-30" 770 1241 basechar 0
AnchorPoint: "Anchor-1" 941 1241 basechar 0
AnchorPoint: "Anchor-0" 599 1241 basechar 0
AnchorPoint: "Anchor-2" 773 1257 basechar 0
LayerCount: 2
Fore
SplineSet
395 0 m 1,0,-1
 197 1118 l 1,1,-1
 516 1118 l 1,2,-1
 589 481 l 2,3,4
 596 424 596 424 597.5 362.5 c 128,-1,5
 599 301 599 301 593 252 c 1,6,-1
 599 252 l 1,7,8
 611 305 611 305 634.5 364.5 c 128,-1,9
 658 424 658 424 685 481 c 2,10,-1
 981 1118 l 1,11,-1
 1301 1118 l 1,12,-1
 709 0 l 1,13,-1
 395 0 l 1,0,-1
EndSplineSet
EndChar

StartChar: w
Encoding: 119 119 90
Width: 1651
GlyphClass: 2
Flags: MW
AnchorPoint: "Anchor-2" 1043 1257 basechar 0
AnchorPoint: "Anchor-0" 878 1241 basechar 0
AnchorPoint: "Anchor-1" 1214 1241 basechar 0
AnchorPoint: "Anchor-30" 1040 1241 basechar 0
LayerCount: 2
Fore
SplineSet
1014 0 m 1,0,-1
 997 391 l 2,1,2
 996 408 996 408 995 439.5 c 128,-1,3
 994 471 994 471 993 510.5 c 128,-1,4
 992 550 992 550 991.5 594.5 c 128,-1,5
 991 639 991 639 989 683 c 0,6,7
 987 786 987 786 985 905 c 1,8,-1
 979 905 l 1,9,10
 935 786 935 786 897 682 c 0,11,12
 881 638 881 638 865 593 c 128,-1,13
 849 548 849 548 834 508.5 c 128,-1,14
 819 469 819 469 806.5 437 c 128,-1,15
 794 405 794 405 787 387 c 2,16,-1
 629 0 l 1,17,-1
 301 0 l 1,18,-1
 197 1118 l 1,19,-1
 500 1118 l 1,20,-1
 526 623 l 2,21,22
 528 584 528 584 528 529.5 c 128,-1,23
 528 475 528 475 526.5 419.5 c 128,-1,24
 525 364 525 364 523.5 314.5 c 128,-1,25
 522 265 522 265 521 236 c 1,26,-1
 527 236 l 1,27,28
 531 255 531 255 540 285.5 c 128,-1,29
 549 316 549 316 560 351 c 128,-1,30
 571 386 571 386 583 422.5 c 128,-1,31
 595 459 595 459 606 491 c 128,-1,32
 617 523 617 523 626 547.5 c 128,-1,33
 635 572 635 572 640 582 c 2,34,-1
 856 1118 l 1,35,-1
 1192 1118 l 1,36,-1
 1215 582 l 2,37,38
 1216 560 1216 560 1216 514 c 128,-1,39
 1216 468 1216 468 1215 415.5 c 128,-1,40
 1214 363 1214 363 1211.5 313.5 c 128,-1,41
 1209 264 1209 264 1205 236 c 1,42,-1
 1211 236 l 1,43,44
 1218 261 1218 261 1234 310 c 128,-1,45
 1250 359 1250 359 1269 415.5 c 128,-1,46
 1288 472 1288 472 1308.5 528 c 128,-1,47
 1329 584 1329 584 1345 623 c 2,48,-1
 1549 1118 l 1,49,-1
 1848 1118 l 1,50,-1
 1346 0 l 1,51,-1
 1014 0 l 1,0,-1
EndSplineSet
EndChar

StartChar: x
Encoding: 120 120 91
Width: 1122
GlyphClass: 2
Flags: MW
AnchorPoint: "Anchor-3" 538 -131 basechar 0
AnchorPoint: "Anchor-4" 534 -152 basechar 0
AnchorPoint: "Anchor-30" 780 1241 basechar 0
AnchorPoint: "Anchor-1" 951 1241 basechar 0
AnchorPoint: "Anchor-0" 609 1241 basechar 0
AnchorPoint: "Anchor-2" 783 1257 basechar 0
LayerCount: 2
Fore
SplineSet
490 571 m 1,0,-1
 226 1118 l 1,1,-1
 572 1118 l 1,2,-1
 699 782 l 1,3,-1
 947 1118 l 1,4,-1
 1293 1118 l 1,5,-1
 832 571 l 1,6,-1
 1112 0 l 1,7,-1
 766 0 l 1,8,-1
 625 362 l 1,9,-1
 356 0 l 1,10,-1
 10 0 l 1,11,-1
 490 571 l 1,0,-1
EndSplineSet
EndChar

StartChar: y
Encoding: 121 121 92
Width: 1104
GlyphClass: 2
Flags: MW
AnchorPoint: "Anchor-18" 771 1241 basechar 0
AnchorPoint: "Anchor-19" 771 1241 basechar 0
AnchorPoint: "Anchor-4" 265 -644 basechar 0
AnchorPoint: "Anchor-1" 942 1241 basechar 0
AnchorPoint: "Anchor-0" 600 1241 basechar 0
AnchorPoint: "Anchor-2" 774 1257 basechar 0
AnchorPoint: "Anchor-30" 771 1241 basechar 0
LayerCount: 2
Fore
SplineSet
197 1118 m 1,0,-1
 531 1118 l 1,1,-1
 600 489 l 2,2,3
 607 437 607 437 604 378 c 128,-1,4
 601 319 601 319 595 272 c 1,5,-1
 601 272 l 1,6,7
 607 295 607 295 615.5 323 c 128,-1,8
 624 351 624 351 634 380 c 128,-1,9
 644 409 644 409 655.5 437.5 c 128,-1,10
 667 466 667 466 678 489 c 2,11,-1
 965 1118 l 1,12,-1
 1301 1118 l 1,13,-1
 637 -143 l 2,14,15
 544 -320 544 -320 421.5 -406 c 128,-1,16
 299 -492 299 -492 138 -492 c 0,17,18
 86 -492 86 -492 49 -486.5 c 128,-1,19
 12 -481 12 -481 -14 -475 c 1,20,-1
 29 -233 l 1,21,22
 49 -238 49 -238 80.5 -242 c 128,-1,23
 112 -246 112 -246 147 -246 c 0,24,25
 195 -246 195 -246 231 -233 c 128,-1,26
 267 -220 267 -220 295.5 -196.5 c 128,-1,27
 324 -173 324 -173 347.5 -140 c 128,-1,28
 371 -107 371 -107 391 -66 c 2,29,-1
 420 -10 l 1,30,-1
 197 1118 l 1,0,-1
EndSplineSet
EndChar

StartChar: z
Encoding: 122 122 93
Width: 936
GlyphClass: 2
Flags: MW
AnchorPoint: "Anchor-1" 862 1241 basechar 0
AnchorPoint: "Anchor-0" 520 1241 basechar 0
AnchorPoint: "Anchor-2" 694 1257 basechar 0
AnchorPoint: "Anchor-30" 691 1241 basechar 0
LayerCount: 2
Fore
SplineSet
877 0 m 1,0,-1
 55 0 l 1,1,-1
 87 180 l 1,2,-1
 668 885 l 1,3,-1
 242 885 l 1,4,-1
 283 1118 l 1,5,-1
 1055 1118 l 1,6,-1
 1020 920 l 1,7,-1
 457 233 l 1,8,-1
 918 233 l 1,9,-1
 877 0 l 1,0,-1
EndSplineSet
EndChar

StartChar: braceleft
Encoding: 123 123 94
Width: 745
GlyphClass: 2
Flags: MW
LayerCount: 2
Fore
SplineSet
293.5 408 m 128,-1,1
 235 449 235 449 110 449 c 1,2,-1
 152 688 l 1,3,4
 214 688 214 688 264.5 697.5 c 128,-1,5
 315 707 315 707 351.5 728.5 c 128,-1,6
 388 750 388 750 410.5 784 c 128,-1,7
 433 818 433 818 440 866 c 2,8,-1
 496 1184 l 2,9,10
 509 1258 509 1258 537 1310.5 c 128,-1,11
 565 1363 565 1363 620.5 1396.5 c 128,-1,12
 676 1430 676 1430 764 1446 c 128,-1,13
 852 1462 852 1462 983 1462 c 1,14,-1
 943 1237 l 1,15,16
 903 1236 903 1236 869.5 1230 c 128,-1,17
 836 1224 836 1224 810.5 1208.5 c 128,-1,18
 785 1193 785 1193 768.5 1166 c 128,-1,19
 752 1139 752 1139 744 1096 c 2,20,-1
 692 797 l 1,21,22
 653 610 653 610 418 575 c 1,23,-1
 416 563 l 1,24,25
 528 546 528 546 579.5 491 c 128,-1,26
 631 436 631 436 611 342 c 2,27,-1
 559 43 l 2,28,29
 551 0 551 0 558 -27 c 128,-1,30
 565 -54 565 -54 585 -69.5 c 128,-1,31
 605 -85 605 -85 636.5 -91 c 128,-1,32
 668 -97 668 -97 708 -98 c 1,33,-1
 668 -324 l 1,34,35
 537 -324 537 -324 455 -308 c 128,-1,36
 373 -292 373 -292 329 -258.5 c 128,-1,37
 285 -225 285 -225 275.5 -172 c 128,-1,38
 266 -119 266 -119 279 -45 c 2,39,-1
 335 270 l 2,40,0
 352 367 352 367 293.5 408 c 128,-1,1
EndSplineSet
EndChar

StartChar: bar
Encoding: 124 124 95
Width: 1128
GlyphClass: 2
Flags: MW
LayerCount: 2
Fore
SplineSet
728 1550 m 1,0,-1
 947 1550 l 1,1,-1
 592 -465 l 1,2,-1
 373 -465 l 1,3,-1
 728 1550 l 1,0,-1
EndSplineSet
EndChar

StartChar: braceright
Encoding: 125 125 96
Width: 745
GlyphClass: 2
Flags: MW
LayerCount: 2
Fore
SplineSet
461 -45 m 2,0,1
 448 -119 448 -119 419.5 -172 c 128,-1,2
 391 -225 391 -225 336 -258.5 c 128,-1,3
 281 -292 281 -292 193 -308 c 128,-1,4
 105 -324 105 -324 -26 -324 c 1,5,-1
 14 -98 l 1,6,7
 54 -97 54 -97 87 -91 c 128,-1,8
 120 -85 120 -85 145 -69.5 c 128,-1,9
 170 -54 170 -54 187.5 -27 c 128,-1,10
 205 0 205 0 213 43 c 2,11,-1
 265 342 l 2,12,13
 279 436 279 436 349.5 491 c 128,-1,14
 420 546 420 546 537 563 c 1,15,-1
 539 575 l 1,16,17
 318 610 318 610 346 797 c 1,18,-1
 398 1096 l 2,19,20
 406 1139 406 1139 398 1166 c 128,-1,21
 390 1193 390 1193 370.5 1208.5 c 128,-1,22
 351 1224 351 1224 320 1230 c 128,-1,23
 289 1236 289 1236 249 1237 c 1,24,-1
 289 1462 l 1,25,26
 420 1462 420 1462 502 1446 c 128,-1,27
 584 1430 584 1430 627.5 1396.5 c 128,-1,28
 671 1363 671 1363 681 1310.5 c 128,-1,29
 691 1258 691 1258 678 1184 c 2,30,-1
 622 866 l 2,31,32
 613 818 613 818 622.5 784 c 128,-1,33
 632 750 632 750 661.5 728.5 c 128,-1,34
 691 707 691 707 737.5 697.5 c 128,-1,35
 784 688 784 688 846 688 c 1,36,-1
 804 449 l 1,37,38
 679 449 679 449 606.5 408 c 128,-1,39
 534 367 534 367 517 270 c 2,40,-1
 461 -45 l 2,0,1
EndSplineSet
EndChar

StartChar: asciitilde
Encoding: 126 126 97
Width: 1128
GlyphClass: 2
Flags: MW
LayerCount: 2
Fore
SplineSet
637 616 m 0,0,1
 603 632 603 632 576 643 c 128,-1,2
 549 654 549 654 527 660.5 c 128,-1,3
 505 667 505 667 484 669.5 c 128,-1,4
 463 672 463 672 440 672 c 0,5,6
 411 672 411 672 378.5 662.5 c 128,-1,7
 346 653 346 653 313 636.5 c 128,-1,8
 280 620 280 620 248 598 c 128,-1,9
 216 576 216 576 185 551 c 1,10,-1
 226 782 l 1,11,12
 287 836 287 836 355 863.5 c 128,-1,13
 423 891 423 891 501 891 c 0,14,15
 531 891 531 891 556 888.5 c 128,-1,16
 581 886 581 886 608.5 879 c 128,-1,17
 636 872 636 872 668.5 859.5 c 128,-1,18
 701 847 701 847 746 827 c 0,19,20
 781 811 781 811 807.5 800.5 c 128,-1,21
 834 790 834 790 857 783.5 c 128,-1,22
 880 777 880 777 900.5 774.5 c 128,-1,23
 921 772 921 772 943 772 c 0,24,25
 972 772 972 772 1004.5 781.5 c 128,-1,26
 1037 791 1037 791 1070 807 c 128,-1,27
 1103 823 1103 823 1135.5 845.5 c 128,-1,28
 1168 868 1168 868 1197 893 c 1,29,-1
 1157 662 l 1,30,31
 1037 553 1037 553 882 553 c 0,32,33
 852 553 852 553 826.5 555.5 c 128,-1,34
 801 558 801 558 774 564.5 c 128,-1,35
 747 571 747 571 714 583.5 c 128,-1,36
 681 596 681 596 637 616 c 0,0,1
EndSplineSet
EndChar

StartChar: exclamdown
Encoding: 161 161 99
Width: 586
GlyphClass: 2
Flags: MW
LayerCount: 2
Fore
SplineSet
275 606 m 1,0,-1
 519 606 l 1,1,-1
 398 -369 l 1,2,-1
 52 -369 l 1,3,-1
 275 606 l 1,0,-1
634 948 m 0,4,5
 626 901 626 901 606.5 868.5 c 128,-1,6
 587 836 587 836 559.5 816 c 128,-1,7
 532 796 532 796 498.5 787 c 128,-1,8
 465 778 465 778 428 778 c 0,9,10
 393 778 393 778 363 787 c 128,-1,11
 333 796 333 796 312.5 816 c 128,-1,12
 292 836 292 836 284 868.5 c 128,-1,13
 276 901 276 901 284 948 c 0,14,15
 292 993 292 993 312 1025.5 c 128,-1,16
 332 1058 332 1058 359.5 1078.5 c 128,-1,17
 387 1099 387 1099 420 1108.5 c 128,-1,18
 453 1118 453 1118 488 1118 c 0,19,20
 525 1118 525 1118 555.5 1108.5 c 128,-1,21
 586 1099 586 1099 606.5 1078.5 c 128,-1,22
 627 1058 627 1058 634.5 1025.5 c 128,-1,23
 642 993 642 993 634 948 c 0,4,5
EndSplineSet
EndChar

StartChar: cent
Encoding: 162 162 100
Width: 1128
GlyphClass: 2
Flags: MW
LayerCount: 2
Fore
SplineSet
539 -20 m 1,0,-1
 576 186 l 1,1,2
 486 199 486 199 418.5 236.5 c 128,-1,3
 351 274 351 274 311 340.5 c 128,-1,4
 271 407 271 407 260.5 506.5 c 128,-1,5
 250 606 250 606 274 743 c 0,6,7
 299 884 299 884 345 985.5 c 128,-1,8
 391 1087 391 1087 455.5 1155 c 128,-1,9
 520 1223 520 1223 600.5 1260.5 c 128,-1,10
 681 1298 681 1298 774 1311 c 1,11,-1
 804 1483 l 1,12,-1
 982 1483 l 1,13,-1
 954 1319 l 1,14,15
 992 1318 992 1318 1028.5 1312.5 c 128,-1,16
 1065 1307 1065 1307 1099.5 1299 c 128,-1,17
 1134 1291 1134 1291 1163.5 1281 c 128,-1,18
 1193 1271 1193 1271 1215 1260 c 1,19,-1
 1089 1034 l 1,20,21
 1070 1044 1070 1044 1045 1053.5 c 128,-1,22
 1020 1063 1020 1063 993.5 1070.5 c 128,-1,23
 967 1078 967 1078 940.5 1082.5 c 128,-1,24
 914 1087 914 1087 890 1087 c 0,25,26
 824 1087 824 1087 774.5 1067 c 128,-1,27
 725 1047 725 1047 688 1005.5 c 128,-1,28
 651 964 651 964 627 900.5 c 128,-1,29
 603 837 603 837 587 750 c 0,30,31
 557 579 557 579 600 499.5 c 128,-1,32
 643 420 643 420 772 420 c 0,33,34
 848 420 848 420 922 438.5 c 128,-1,35
 996 457 996 457 1050 481 c 1,36,-1
 1008 242 l 1,37,38
 952 213 952 213 887 197.5 c 128,-1,39
 822 182 822 182 753 180 c 1,40,-1
 717 -20 l 1,41,-1
 539 -20 l 1,0,-1
EndSplineSet
EndChar

StartChar: sterling
Encoding: 163 163 101
Width: 1128
GlyphClass: 2
Flags: MW
LayerCount: 2
Fore
SplineSet
941 1483 m 0,0,1
 1051 1483 1051 1483 1136.5 1459 c 128,-1,2
 1222 1435 1222 1435 1296 1401 c 1,3,-1
 1162 1171 l 1,4,5
 1096 1200 1096 1200 1041 1217.5 c 128,-1,6
 986 1235 986 1235 923 1235 c 0,7,8
 856 1235 856 1235 811.5 1196.5 c 128,-1,9
 767 1158 767 1158 750 1063 c 2,10,-1
 716 870 l 1,11,-1
 1050 870 l 1,12,-1
 1012 651 l 1,13,-1
 678 651 l 1,14,-1
 653 508 l 2,15,16
 643 453 643 453 622.5 412.5 c 128,-1,17
 602 372 602 372 574.5 343 c 128,-1,18
 547 314 547 314 517 294 c 128,-1,19
 487 274 487 274 458 260 c 1,20,-1
 1136 260 l 1,21,-1
 1090 0 l 1,22,-1
 82 0 l 1,23,-1
 126 248 l 1,24,25
 171 266 171 266 208 287 c 128,-1,26
 245 308 245 308 274 337 c 128,-1,27
 303 366 303 366 322 407 c 128,-1,28
 341 448 341 448 351 506 c 2,29,-1
 377 651 l 1,30,-1
 199 651 l 1,31,-1
 237 870 l 1,32,-1
 415 870 l 1,33,-1
 450 1065 l 2,34,35
 470 1178 470 1178 515.5 1257.5 c 128,-1,36
 561 1337 561 1337 625 1387 c 128,-1,37
 689 1437 689 1437 769.5 1460 c 128,-1,38
 850 1483 850 1483 941 1483 c 0,0,1
EndSplineSet
EndChar

StartChar: currency
Encoding: 164 164 102
Width: 1128
GlyphClass: 2
Flags: MW
LayerCount: 2
Fore
SplineSet
295 723 m 0,0,1
 305 777 305 777 327.5 826.5 c 128,-1,2
 350 876 350 876 383 920 c 1,3,-1
 277 1047 l 1,4,-1
 451 1194 l 1,5,-1
 555 1067 l 1,6,7
 602 1092 602 1092 655.5 1106 c 128,-1,8
 709 1120 709 1120 760 1120 c 0,9,10
 814 1120 814 1120 860 1106.5 c 128,-1,11
 906 1093 906 1093 948 1065 c 1,12,-1
 1098 1194 l 1,13,-1
 1221 1051 l 1,14,-1
 1070 922 l 1,15,16
 1088 880 1088 880 1093 828.5 c 128,-1,17
 1098 777 1098 777 1088 723 c 0,18,19
 1078 667 1078 667 1055.5 618 c 128,-1,20
 1033 569 1033 569 999 524 c 1,21,-1
 1102 399 l 1,22,-1
 932 254 l 1,23,-1
 827 379 l 1,24,25
 779 356 779 356 727 342 c 128,-1,26
 675 328 675 328 621 328 c 0,27,28
 565 328 565 328 517.5 340.5 c 128,-1,29
 470 353 470 353 432 379 c 1,30,-1
 285 256 l 1,31,-1
 165 401 l 1,32,-1
 314 526 l 1,33,34
 276 617 276 617 295 723 c 0,0,1
502 723 m 0,35,36
 495 684 495 684 504 649.5 c 128,-1,37
 513 615 513 615 534 589.5 c 128,-1,38
 555 564 555 564 586.5 549.5 c 128,-1,39
 618 535 618 535 657 535 c 0,40,41
 697 535 697 535 734.5 549.5 c 128,-1,42
 772 564 772 564 803 589.5 c 128,-1,43
 834 615 834 615 855.5 649.5 c 128,-1,44
 877 684 877 684 883 723 c 0,45,46
 890 763 890 763 881.5 797.5 c 128,-1,47
 873 832 873 832 851 857.5 c 128,-1,48
 829 883 829 883 796.5 898 c 128,-1,49
 764 913 764 913 724 913 c 0,50,51
 685 913 685 913 648.5 898 c 128,-1,52
 612 883 612 883 582 857.5 c 128,-1,53
 552 832 552 832 530.5 797.5 c 128,-1,54
 509 763 509 763 502 723 c 0,35,36
EndSplineSet
EndChar

StartChar: yen
Encoding: 165 165 103
Width: 1128
GlyphClass: 2
Flags: MW
LayerCount: 2
Fore
SplineSet
717 860 m 1,0,-1
 1067 1462 l 1,1,-1
 1380 1462 l 1,2,-1
 886 715 l 1,3,-1
 1080 715 l 1,4,-1
 1049 537 l 1,5,-1
 804 537 l 1,6,-1
 779 399 l 1,7,-1
 1024 399 l 1,8,-1
 993 221 l 1,9,-1
 748 221 l 1,10,-1
 709 0 l 1,11,-1
 422 0 l 1,12,-1
 461 221 l 1,13,-1
 213 221 l 1,14,-1
 244 399 l 1,15,-1
 492 399 l 1,16,-1
 517 537 l 1,17,-1
 269 537 l 1,18,-1
 300 715 l 1,19,-1
 491 715 l 1,20,-1
 266 1462 l 1,21,-1
 582 1462 l 1,22,-1
 717 860 l 1,0,-1
EndSplineSet
EndChar

StartChar: brokenbar
Encoding: 166 166 104
Width: 1128
GlyphClass: 2
Flags: MW
LayerCount: 2
Fore
SplineSet
728 1550 m 1,0,-1
 947 1550 l 1,1,-1
 804 735 l 1,2,-1
 585 735 l 1,3,-1
 728 1550 l 1,0,-1
517 350 m 1,4,-1
 736 350 l 1,5,-1
 592 -465 l 1,6,-1
 373 -465 l 1,7,-1
 517 350 l 1,4,-1
EndSplineSet
EndChar

StartChar: section
Encoding: 167 167 105
Width: 995
GlyphClass: 2
Flags: MW
LayerCount: 2
Fore
SplineSet
263 805 m 0,0,1
 271 849 271 849 288 886.5 c 128,-1,2
 305 924 305 924 329 955.5 c 128,-1,3
 353 987 353 987 381.5 1012 c 128,-1,4
 410 1037 410 1037 440 1055 c 1,5,6
 384 1095 384 1095 359.5 1154 c 128,-1,7
 335 1213 335 1213 348 1288 c 0,8,9
 359 1353 359 1353 397.5 1406.5 c 128,-1,10
 436 1460 436 1460 496.5 1498 c 128,-1,11
 557 1536 557 1536 635 1556.5 c 128,-1,12
 713 1577 713 1577 804 1577 c 0,13,14
 906 1577 906 1577 990 1553.5 c 128,-1,15
 1074 1530 1074 1530 1152 1493 c 1,16,-1
 1037 1303 l 1,17,18
 975 1335 975 1335 908.5 1360.5 c 128,-1,19
 842 1386 842 1386 764 1386 c 0,20,21
 683 1386 683 1386 642 1363 c 128,-1,22
 601 1340 601 1340 593 1292 c 0,23,24
 589 1267 589 1267 597 1246 c 128,-1,25
 605 1225 605 1225 627.5 1205.5 c 128,-1,26
 650 1186 650 1186 687 1166.5 c 128,-1,27
 724 1147 724 1147 776 1124 c 0,28,29
 842 1096 842 1096 894.5 1062 c 128,-1,30
 947 1028 947 1028 981.5 986.5 c 128,-1,31
 1016 945 1016 945 1030 894.5 c 128,-1,32
 1044 844 1044 844 1033 782 c 0,33,34
 1015 682 1015 682 970 620.5 c 128,-1,35
 925 559 925 559 862 522 c 1,36,37
 917 482 917 482 939 429.5 c 128,-1,38
 961 377 961 377 948 303 c 256,39,40
 935 229 935 229 893.5 169.5 c 128,-1,41
 852 110 852 110 788 68 c 128,-1,42
 724 26 724 26 638 3 c 128,-1,43
 552 -20 552 -20 451 -20 c 0,44,45
 341 -20 341 -20 260.5 0.5 c 128,-1,46
 180 21 180 21 116 59 c 1,47,-1
 153 266 l 1,48,49
 188 246 188 246 230 228.5 c 128,-1,50
 272 211 272 211 315.5 197.5 c 128,-1,51
 359 184 359 184 402.5 176 c 128,-1,52
 446 168 446 168 485 168 c 0,53,54
 541 168 541 168 579.5 177 c 128,-1,55
 618 186 618 186 643 202 c 128,-1,56
 668 218 668 218 681.5 239 c 128,-1,57
 695 260 695 260 699 285 c 256,58,59
 703 310 703 310 699.5 329.5 c 128,-1,60
 696 349 696 349 676.5 368 c 128,-1,61
 657 387 657 387 620.5 408 c 128,-1,62
 584 429 584 429 523 457 c 0,63,64
 453 489 453 489 398.5 521 c 128,-1,65
 344 553 344 553 310 593.5 c 128,-1,66
 276 634 276 634 263.5 685 c 128,-1,67
 251 736 251 736 263 805 c 0,0,1
490 827 m 0,68,69
 479 764 479 764 527 715.5 c 128,-1,70
 575 667 575 667 684 616 c 2,71,-1
 698 610 l 1,72,73
 715 621 715 621 731.5 635.5 c 128,-1,74
 748 650 748 650 762 668 c 128,-1,75
 776 686 776 686 786.5 708 c 128,-1,76
 797 730 797 730 801 756 c 0,77,78
 807 788 807 788 801 815 c 128,-1,79
 795 842 795 842 773.5 867.5 c 128,-1,80
 752 893 752 893 711 917.5 c 128,-1,81
 670 942 670 942 605 967 c 1,82,83
 586 960 586 960 567.5 946.5 c 128,-1,84
 549 933 549 933 533 915 c 128,-1,85
 517 897 517 897 506 875 c 128,-1,86
 495 853 495 853 490 827 c 0,68,69
EndSplineSet
EndChar

StartChar: dieresis
Encoding: 168 168 106
Width: 1182
GlyphClass: 2
Flags: MW
LayerCount: 2
Fore
SplineSet
493 1390 m 4,0,1
 499 1425 499 1425 514.5 1450.5 c 132,-1,2
 530 1476 530 1476 551.5 1492.5 c 132,-1,3
 573 1509 573 1509 600 1517 c 132,-1,4
 627 1525 627 1525 656 1525 c 260,5,6
 685 1525 685 1525 709 1517 c 132,-1,7
 733 1509 733 1509 749 1492.5 c 132,-1,8
 765 1476 765 1476 772 1450.5 c 132,-1,9
 779 1425 779 1425 773 1390 c 4,10,11
 767 1356 767 1356 751 1331 c 132,-1,12
 735 1306 735 1306 713 1289.5 c 132,-1,13
 691 1273 691 1273 664.5 1265 c 132,-1,14
 638 1257 638 1257 609 1257 c 260,15,16
 580 1257 580 1257 555.5 1265 c 132,-1,17
 531 1273 531 1273 515.5 1289.5 c 132,-1,18
 500 1306 500 1306 493.5 1331 c 132,-1,19
 487 1356 487 1356 493 1390 c 4,0,1
896 1390 m 4,20,21
 902 1425 902 1425 917.5 1450.5 c 132,-1,22
 933 1476 933 1476 955 1492.5 c 132,-1,23
 977 1509 977 1509 1004.5 1517 c 132,-1,24
 1032 1525 1032 1525 1062 1525 c 4,25,26
 1090 1525 1090 1525 1114 1517 c 132,-1,27
 1138 1509 1138 1509 1154.5 1492.5 c 132,-1,28
 1171 1476 1171 1476 1178 1450.5 c 132,-1,29
 1185 1425 1185 1425 1179 1390 c 4,30,31
 1173 1356 1173 1356 1157 1331 c 132,-1,32
 1141 1306 1141 1306 1118.5 1289.5 c 132,-1,33
 1096 1273 1096 1273 1069.5 1265 c 132,-1,34
 1043 1257 1043 1257 1015 1257 c 4,35,36
 955 1257 955 1257 919.5 1290 c 132,-1,37
 884 1323 884 1323 896 1390 c 4,20,21
EndSplineSet
EndChar

StartChar: copyright
Encoding: 169 169 107
Width: 1704
GlyphClass: 2
Flags: MW
LayerCount: 2
Fore
SplineSet
1073 1010 m 0,0,1
 976 1010 976 1010 910 936 c 128,-1,2
 844 862 844 862 821 731 c 0,3,4
 797 596 797 596 832.5 523.5 c 128,-1,5
 868 451 868 451 975 451 c 0,6,7
 1032 451 1032 451 1100.5 466 c 128,-1,8
 1169 481 1169 481 1231 510 c 1,9,-1
 1197 319 l 1,10,11
 1135 292 1135 292 1073.5 277 c 128,-1,12
 1012 262 1012 262 935 262 c 0,13,14
 828 262 828 262 754 296 c 128,-1,15
 680 330 680 330 637.5 392 c 128,-1,16
 595 454 595 454 583.5 540.5 c 128,-1,17
 572 627 572 627 590 733 c 0,18,19
 608 836 608 836 649.5 921.5 c 128,-1,20
 691 1007 691 1007 754 1068.5 c 128,-1,21
 817 1130 817 1130 902 1164 c 128,-1,22
 987 1198 987 1198 1092 1198 c 0,23,24
 1175 1198 1175 1198 1248 1176 c 128,-1,25
 1321 1154 1321 1154 1383 1120 c 1,26,-1
 1280 952 l 1,27,28
 1177 1010 1177 1010 1073 1010 c 0,0,1
229 731 m 256,29,30
 247 835 247 835 291 931 c 128,-1,31
 335 1027 335 1027 398.5 1110.5 c 128,-1,32
 462 1194 462 1194 543 1263 c 128,-1,33
 624 1332 624 1332 716 1380.5 c 128,-1,34
 808 1429 808 1429 908.5 1456 c 128,-1,35
 1009 1483 1009 1483 1113 1483 c 256,36,37
 1217 1483 1217 1483 1308.5 1456 c 128,-1,38
 1400 1429 1400 1429 1475 1380.5 c 128,-1,39
 1550 1332 1550 1332 1607 1263 c 128,-1,40
 1664 1194 1664 1194 1697.5 1110.5 c 128,-1,41
 1731 1027 1731 1027 1741 931 c 128,-1,42
 1751 835 1751 835 1733 731 c 256,43,44
 1715 627 1715 627 1671 531 c 128,-1,45
 1627 435 1627 435 1563.5 351.5 c 128,-1,46
 1500 268 1500 268 1419 199.5 c 128,-1,47
 1338 131 1338 131 1246 82 c 128,-1,48
 1154 33 1154 33 1053 6.5 c 128,-1,49
 952 -20 952 -20 848 -20 c 256,50,51
 744 -20 744 -20 653 6.5 c 128,-1,52
 562 33 562 33 487 82 c 128,-1,53
 412 131 412 131 355 199.5 c 128,-1,54
 298 268 298 268 264.5 351.5 c 128,-1,55
 231 435 231 435 221 531 c 128,-1,56
 211 627 211 627 229 731 c 256,29,30
371 731 m 256,57,58
 349 604 349 604 377 493 c 128,-1,59
 405 382 405 382 473 299.5 c 128,-1,60
 541 217 541 217 643.5 169 c 128,-1,61
 746 121 746 121 873 121 c 256,62,63
 1000 121 1000 121 1119.5 169 c 128,-1,64
 1239 217 1239 217 1336 299.5 c 128,-1,65
 1433 382 1433 382 1501 493 c 128,-1,66
 1569 604 1569 604 1591 731 c 256,67,68
 1613 858 1613 858 1584.5 969 c 128,-1,69
 1556 1080 1556 1080 1488.5 1162.5 c 128,-1,70
 1421 1245 1421 1245 1318 1293 c 128,-1,71
 1215 1341 1215 1341 1088 1341 c 256,72,73
 961 1341 961 1341 842 1293 c 128,-1,74
 723 1245 723 1245 625.5 1162.5 c 128,-1,75
 528 1080 528 1080 460.5 969 c 128,-1,76
 393 858 393 858 371 731 c 256,57,58
EndSplineSet
EndChar

StartChar: ordfeminine
Encoding: 170 170 108
Width: 743
GlyphClass: 2
Flags: MW
LayerCount: 2
Fore
SplineSet
655 764 m 1,0,-1
 643 874 l 1,1,2
 593 816 593 816 531 784 c 128,-1,3
 469 752 469 752 401 752 c 0,4,5
 351 752 351 752 312.5 765.5 c 128,-1,6
 274 779 274 779 250 806.5 c 128,-1,7
 226 834 226 834 217.5 876 c 128,-1,8
 209 918 209 918 219 975 c 0,9,10
 230 1035 230 1035 258.5 1076.5 c 128,-1,11
 287 1118 287 1118 332 1144.5 c 128,-1,12
 377 1171 377 1171 439 1184.5 c 128,-1,13
 501 1198 501 1198 577 1202 c 2,14,-1
 668 1206 l 1,15,16
 679 1269 679 1269 654 1296 c 128,-1,17
 629 1323 629 1323 575 1323 c 0,18,19
 535 1323 535 1323 483 1306 c 128,-1,20
 431 1289 431 1289 375 1262 c 1,21,-1
 332 1397 l 1,22,23
 400 1429 400 1429 478.5 1454 c 128,-1,24
 557 1479 557 1479 648 1479 c 0,25,26
 716 1479 716 1479 763 1459.5 c 128,-1,27
 810 1440 810 1440 836.5 1404.5 c 128,-1,28
 863 1369 863 1369 871 1318.5 c 128,-1,29
 879 1268 879 1268 868 1206 c 2,30,-1
 790 764 l 1,31,-1
 655 764 l 1,0,-1
564 1081 m 2,32,33
 525 1078 525 1078 500 1068 c 128,-1,34
 475 1058 475 1058 458.5 1043.5 c 128,-1,35
 442 1029 442 1029 434.5 1012 c 128,-1,36
 427 995 427 995 424 977 c 0,37,38
 417 939 417 939 433 921 c 128,-1,39
 449 903 449 903 476 903 c 0,40,41
 508 903 508 903 535.5 914 c 128,-1,42
 563 925 563 925 584.5 944.5 c 128,-1,43
 606 964 606 964 620.5 991.5 c 128,-1,44
 635 1019 635 1019 640 1051 c 2,45,-1
 647 1087 l 1,46,-1
 564 1081 l 2,32,33
EndSplineSet
EndChar

StartChar: guillemotleft
Encoding: 171 171 109
Width: 1198
GlyphClass: 2
Flags: MW
LayerCount: 2
Fore
SplineSet
183 573 m 1,0,-1
 572 1028 l 1,1,-1
 770 909 l 1,2,-1
 492 561 l 1,3,-1
 648 213 l 1,4,-1
 408 94 l 1,5,-1
 178 547 l 1,6,-1
 183 573 l 1,0,-1
689 573 m 1,7,-1
 1078 1028 l 1,8,-1
 1276 909 l 1,9,-1
 998 561 l 1,10,-1
 1154 213 l 1,11,-1
 914 94 l 1,12,-1
 684 547 l 1,13,-1
 689 573 l 1,7,-1
EndSplineSet
EndChar

StartChar: logicalnot
Encoding: 172 172 110
Width: 1128
GlyphClass: 2
Flags: MW
LayerCount: 2
Fore
SplineSet
1084 248 m 1,0,-1
 865 248 l 1,1,-1
 929 612 l 1,2,-1
 196 612 l 1,3,-1
 235 831 l 1,4,-1
 1187 831 l 1,5,-1
 1084 248 l 1,0,-1
EndSplineSet
EndChar

StartChar: registered
Encoding: 174 174 112
Width: 1704
GlyphClass: 2
Flags: MW
LayerCount: 2
Fore
SplineSet
1317 905 m 0,0,1
 1300 811 1300 811 1252 756 c 128,-1,2
 1204 701 1204 701 1132 672 c 1,3,-1
 1299 272 l 1,4,-1
 1045 272 l 1,5,-1
 927 610 l 1,6,-1
 880 610 l 1,7,-1
 820 272 l 1,8,-1
 591 272 l 1,9,-1
 752 1188 l 1,10,-1
 1016 1188 l 2,11,12
 1198 1188 1198 1188 1270 1118 c 128,-1,13
 1342 1048 1342 1048 1317 905 c 0,0,1
909 778 m 1,14,-1
 940 778 l 2,15,16
 1006 778 1006 778 1039.5 806.5 c 128,-1,17
 1073 835 1073 835 1085 901 c 0,18,19
 1091 936 1091 936 1087.5 959 c 128,-1,20
 1084 982 1084 982 1071 995.5 c 128,-1,21
 1058 1009 1058 1009 1035.5 1014.5 c 128,-1,22
 1013 1020 1013 1020 981 1020 c 2,23,-1
 952 1020 l 1,24,-1
 909 778 l 1,14,-1
229 731 m 256,25,26
 247 835 247 835 291 931 c 128,-1,27
 335 1027 335 1027 398.5 1110.5 c 128,-1,28
 462 1194 462 1194 543 1263 c 128,-1,29
 624 1332 624 1332 716 1380.5 c 128,-1,30
 808 1429 808 1429 908.5 1456 c 128,-1,31
 1009 1483 1009 1483 1113 1483 c 256,32,33
 1217 1483 1217 1483 1308.5 1456 c 128,-1,34
 1400 1429 1400 1429 1475 1380.5 c 128,-1,35
 1550 1332 1550 1332 1607 1263 c 128,-1,36
 1664 1194 1664 1194 1697.5 1110.5 c 128,-1,37
 1731 1027 1731 1027 1741 931 c 128,-1,38
 1751 835 1751 835 1733 731 c 256,39,40
 1715 627 1715 627 1671 531 c 128,-1,41
 1627 435 1627 435 1563.5 351.5 c 128,-1,42
 1500 268 1500 268 1419 199.5 c 128,-1,43
 1338 131 1338 131 1246 82 c 128,-1,44
 1154 33 1154 33 1053 6.5 c 128,-1,45
 952 -20 952 -20 848 -20 c 256,46,47
 744 -20 744 -20 653 6.5 c 128,-1,48
 562 33 562 33 487 82 c 128,-1,49
 412 131 412 131 355 199.5 c 128,-1,50
 298 268 298 268 264.5 351.5 c 128,-1,51
 231 435 231 435 221 531 c 128,-1,52
 211 627 211 627 229 731 c 256,25,26
371 731 m 256,53,54
 349 604 349 604 377 493 c 128,-1,55
 405 382 405 382 473 299.5 c 128,-1,56
 541 217 541 217 643.5 169 c 128,-1,57
 746 121 746 121 873 121 c 256,58,59
 1000 121 1000 121 1119.5 169 c 128,-1,60
 1239 217 1239 217 1336 299.5 c 128,-1,61
 1433 382 1433 382 1501 493 c 128,-1,62
 1569 604 1569 604 1591 731 c 256,63,64
 1613 858 1613 858 1584.5 969 c 128,-1,65
 1556 1080 1556 1080 1488.5 1162.5 c 128,-1,66
 1421 1245 1421 1245 1318 1293 c 128,-1,67
 1215 1341 1215 1341 1088 1341 c 256,68,69
 961 1341 961 1341 842 1293 c 128,-1,70
 723 1245 723 1245 625.5 1162.5 c 128,-1,71
 528 1080 528 1080 460.5 969 c 128,-1,72
 393 858 393 858 371 731 c 256,53,54
EndSplineSet
EndChar

StartChar: overscore
Encoding: 175 175 113
Width: 1024
GlyphClass: 2
Flags: MW
LayerCount: 2
Fore
SplineSet
1304 1556 m 1,0,-1
 268 1556 l 1,1,-1
 304 1757 l 1,2,-1
 1340 1757 l 1,3,-1
 1304 1556 l 1,0,-1
EndSplineSet
EndChar

StartChar: degree
Encoding: 176 176 114
Width: 877
GlyphClass: 2
Flags: MW
LayerCount: 2
Fore
SplineSet
292 1137 m 0,0,1
 305 1208 305 1208 343 1271 c 128,-1,2
 381 1334 381 1334 436.5 1381 c 128,-1,3
 492 1428 492 1428 559.5 1455.5 c 128,-1,4
 627 1483 627 1483 699 1483 c 256,5,6
 771 1483 771 1483 830 1455.5 c 128,-1,7
 889 1428 889 1428 927 1381 c 128,-1,8
 965 1334 965 1334 981 1271 c 128,-1,9
 997 1208 997 1208 984 1137 c 0,10,11
 971 1065 971 1065 933.5 1002 c 128,-1,12
 896 939 896 939 841 892.5 c 128,-1,13
 786 846 786 846 718 819.5 c 128,-1,14
 650 793 650 793 578 793 c 256,15,16
 506 793 506 793 447.5 819.5 c 128,-1,17
 389 846 389 846 350.5 892.5 c 128,-1,18
 312 939 312 939 295.5 1002 c 128,-1,19
 279 1065 279 1065 292 1137 c 0,0,1
483 1137 m 0,20,21
 478 1106 478 1106 485 1078 c 128,-1,22
 492 1050 492 1050 509.5 1029 c 128,-1,23
 527 1008 527 1008 553 995.5 c 128,-1,24
 579 983 579 983 611 983 c 256,25,26
 643 983 643 983 674 995.5 c 128,-1,27
 705 1008 705 1008 729.5 1029 c 128,-1,28
 754 1050 754 1050 771.5 1078 c 128,-1,29
 789 1106 789 1106 794 1137 c 0,30,31
 800 1169 800 1169 792.5 1197.5 c 128,-1,32
 785 1226 785 1226 768 1247.5 c 128,-1,33
 751 1269 751 1269 724.5 1281.5 c 128,-1,34
 698 1294 698 1294 666 1294 c 256,35,36
 634 1294 634 1294 603.5 1281.5 c 128,-1,37
 573 1269 573 1269 548 1247.5 c 128,-1,38
 523 1226 523 1226 506 1197.5 c 128,-1,39
 489 1169 489 1169 483 1137 c 0,20,21
EndSplineSet
EndChar

StartChar: plusminus
Encoding: 177 177 115
Width: 1128
GlyphClass: 2
Flags: MW
LayerCount: 2
Fore
SplineSet
574 674 m 1,0,-1
 207 674 l 1,1,-1
 245 893 l 1,2,-1
 612 893 l 1,3,-1
 678 1262 l 1,4,-1
 897 1262 l 1,5,-1
 831 893 l 1,6,-1
 1197 893 l 1,7,-1
 1159 674 l 1,8,-1
 793 674 l 1,9,-1
 728 309 l 1,10,-1
 509 309 l 1,11,-1
 574 674 l 1,0,-1
88 0 m 1,12,-1
 127 219 l 1,13,-1
 1079 219 l 1,14,-1
 1040 0 l 1,15,-1
 88 0 l 1,12,-1
EndSplineSet
EndChar

StartChar: twosuperior
Encoding: 178 178 116
Width: 776
GlyphClass: 2
Flags: MW
LayerCount: 2
Fore
SplineSet
805 586 m 1,0,-1
 158 586 l 1,1,-1
 188 754 l 1,2,-1
 451 973 l 2,3,4
 505 1018 505 1018 541 1051 c 128,-1,5
 577 1084 577 1084 600.5 1111 c 128,-1,6
 624 1138 624 1138 635.5 1161.5 c 128,-1,7
 647 1185 647 1185 652 1212 c 0,8,9
 659 1250 659 1250 638 1270 c 128,-1,10
 617 1290 617 1290 577 1290 c 256,11,12
 537 1290 537 1290 490 1269.5 c 128,-1,13
 443 1249 443 1249 382 1202 c 1,14,-1
 286 1354 l 1,15,16
 361 1411 361 1411 448 1447 c 128,-1,17
 535 1483 535 1483 644 1483 c 0,18,19
 710 1483 710 1483 762 1466.5 c 128,-1,20
 814 1450 814 1450 847 1418.5 c 128,-1,21
 880 1387 880 1387 893 1340.5 c 128,-1,22
 906 1294 906 1294 895 1233 c 0,23,24
 887 1187 887 1187 867.5 1146.5 c 128,-1,25
 848 1106 848 1106 814 1065 c 128,-1,26
 780 1024 780 1024 730 979.5 c 128,-1,27
 680 935 680 935 610 881 c 2,28,-1
 489 786 l 1,29,-1
 841 786 l 1,30,-1
 805 586 l 1,0,-1
EndSplineSet
EndChar

StartChar: threesuperior
Encoding: 179 179 117
Width: 776
GlyphClass: 2
Flags: MW
LayerCount: 2
Fore
SplineSet
886 1249 m 0,0,1
 874 1180 874 1180 824.5 1130 c 128,-1,2
 775 1080 775 1080 681 1051 c 1,3,-1
 679 1038 l 1,4,5
 728 1028 728 1028 761.5 1007 c 128,-1,6
 795 986 795 986 814.5 958.5 c 128,-1,7
 834 931 834 931 840.5 898 c 128,-1,8
 847 865 847 865 840 829 c 0,9,10
 819 708 819 708 718.5 638.5 c 128,-1,11
 618 569 618 569 432 569 c 0,12,13
 356 569 356 569 293.5 586.5 c 128,-1,14
 231 604 231 604 172 639 c 1,15,-1
 205 829 l 1,16,17
 264 789 264 789 325.5 764 c 128,-1,18
 387 739 387 739 460 739 c 0,19,20
 534 739 534 739 573.5 766 c 128,-1,21
 613 793 613 793 622 846 c 0,22,23
 626 867 626 867 621.5 886 c 128,-1,24
 617 905 617 905 600.5 919.5 c 128,-1,25
 584 934 584 934 553.5 943 c 128,-1,26
 523 952 523 952 475 952 c 2,27,-1
 363 952 l 1,28,-1
 391 1112 l 1,29,-1
 483 1112 l 2,30,31
 535 1112 535 1112 568.5 1121 c 128,-1,32
 602 1130 602 1130 623 1145.5 c 128,-1,33
 644 1161 644 1161 653.5 1180.5 c 128,-1,34
 663 1200 663 1200 666 1221 c 0,35,36
 673 1259 673 1259 652.5 1284 c 128,-1,37
 632 1309 632 1309 581 1309 c 0,38,39
 534 1309 534 1309 488.5 1290 c 128,-1,40
 443 1271 443 1271 379 1231 c 1,41,-1
 303 1372 l 1,42,43
 373 1419 373 1419 454 1450 c 128,-1,44
 535 1481 535 1481 638 1481 c 0,45,46
 700 1481 700 1481 750 1464.5 c 128,-1,47
 800 1448 800 1448 833.5 1418 c 128,-1,48
 867 1388 867 1388 881 1345 c 128,-1,49
 895 1302 895 1302 886 1249 c 0,0,1
EndSplineSet
EndChar

StartChar: acute
Encoding: 180 180 118
Width: 1182
GlyphClass: 2
Flags: MW
LayerCount: 2
Fore
SplineSet
551 1241 m 1,0,-1
 556 1268 l 1,1,2
 582 1297 582 1297 612.5 1335 c 128,-1,3
 643 1373 643 1373 673.5 1413.5 c 128,-1,4
 704 1454 704 1454 732.5 1494.5 c 128,-1,5
 761 1535 761 1535 783 1569 c 1,6,-1
 1125 1569 l 1,7,-1
 1121 1548 l 1,8,9
 1107 1530 1107 1530 1081.5 1505.5 c 128,-1,10
 1056 1481 1056 1481 1024 1453 c 128,-1,11
 992 1425 992 1425 956 1395.5 c 128,-1,12
 920 1366 920 1366 883.5 1338 c 128,-1,13
 847 1310 847 1310 813.5 1285 c 128,-1,14
 780 1260 780 1260 754 1241 c 1,15,-1
 551 1241 l 1,0,-1
EndSplineSet
EndChar

StartChar: mu
Encoding: 181 181 119
Width: 1290
GlyphClass: 2
Flags: MW
LayerCount: 2
Fore
SplineSet
547 465 m 2,0,1
 526 344 526 344 552.5 283.5 c 128,-1,2
 579 223 579 223 660 223 c 0,3,4
 718 223 718 223 761.5 247 c 128,-1,5
 805 271 805 271 837 318 c 128,-1,6
 869 365 869 365 891.5 434 c 128,-1,7
 914 503 914 503 929 592 c 2,8,-1
 1022 1118 l 1,9,-1
 1327 1118 l 1,10,-1
 1130 0 l 1,11,-1
 897 0 l 1,12,-1
 880 150 l 1,13,-1
 868 150 l 1,14,15
 818 65 818 65 758 22.5 c 128,-1,16
 698 -20 698 -20 623 -20 c 0,17,18
 569 -20 569 -20 528.5 3 c 128,-1,19
 488 26 488 26 467 70 c 1,20,21
 462 28 462 28 457 -15 c 0,22,23
 452 -52 452 -52 446.5 -94 c 128,-1,24
 441 -136 441 -136 435 -172 c 2,25,-1
 378 -492 l 1,26,-1
 73 -492 l 1,27,-1
 357 1118 l 1,28,-1
 662 1118 l 1,29,-1
 547 465 l 2,0,1
EndSplineSet
EndChar

StartChar: paragraph
Encoding: 182 182 120
Width: 1341
GlyphClass: 2
Flags: MW
LayerCount: 2
Fore
SplineSet
1121 -260 m 1,0,-1
 960 -260 l 1,1,-1
 1245 1356 l 1,2,-1
 1079 1356 l 1,3,-1
 794 -260 l 1,4,-1
 632 -260 l 1,5,-1
 777 559 l 1,6,7
 713 541 713 541 627 541 c 0,8,9
 532 541 532 541 459 566.5 c 128,-1,10
 386 592 386 592 342 651 c 128,-1,11
 298 710 298 710 285 806 c 128,-1,12
 272 902 272 902 297 1042 c 0,13,14
 323 1189 323 1189 372.5 1287.5 c 128,-1,15
 422 1386 422 1386 492.5 1446 c 128,-1,16
 563 1506 563 1506 650 1531 c 128,-1,17
 737 1556 737 1556 837 1556 c 2,18,-1
 1441 1556 l 1,19,-1
 1121 -260 l 1,0,-1
EndSplineSet
EndChar

StartChar: periodcentered
Encoding: 183 183 121
Width: 584
GlyphClass: 2
Flags: MW
LayerCount: 2
Fore
SplineSet
244 723 m 0,0,1
 252 770 252 770 271.5 802.5 c 128,-1,2
 291 835 291 835 318.5 855 c 128,-1,3
 346 875 346 875 379.5 884 c 128,-1,4
 413 893 413 893 450 893 c 0,5,6
 485 893 485 893 515 884 c 128,-1,7
 545 875 545 875 565.5 855 c 128,-1,8
 586 835 586 835 594.5 802.5 c 128,-1,9
 603 770 603 770 594 723 c 0,10,11
 586 678 586 678 566.5 645.5 c 128,-1,12
 547 613 547 613 519.5 592.5 c 128,-1,13
 492 572 492 572 459 562.5 c 128,-1,14
 426 553 426 553 391 553 c 0,15,16
 354 553 354 553 323.5 562.5 c 128,-1,17
 293 572 293 572 272.5 592.5 c 128,-1,18
 252 613 252 613 244 645.5 c 128,-1,19
 236 678 236 678 244 723 c 0,0,1
EndSplineSet
EndChar

StartChar: cedilla
Encoding: 184 184 122
Width: 420
GlyphClass: 2
Flags: MW
LayerCount: 2
Fore
SplineSet
374 -250 m 0,0,1
 364 -307 364 -307 340.5 -352 c 128,-1,2
 317 -397 317 -397 275.5 -428 c 128,-1,3
 234 -459 234 -459 171.5 -475.5 c 128,-1,4
 109 -492 109 -492 22 -492 c 0,5,6
 -23 -492 -23 -492 -58 -486 c 128,-1,7
 -93 -480 -93 -480 -120 -471 c 1,8,-1
 -90 -303 l 1,9,10
 -76 -307 -76 -307 -58 -310.5 c 128,-1,11
 -40 -314 -40 -314 -21 -317 c 128,-1,12
 -2 -320 -2 -320 16 -322 c 128,-1,13
 34 -324 34 -324 49 -324 c 0,14,15
 78 -324 78 -324 102 -310.5 c 128,-1,16
 126 -297 126 -297 132 -262 c 0,17,18
 139 -225 139 -225 106.5 -196.5 c 128,-1,19
 74 -168 74 -168 -15 -154 c 1,20,-1
 90 0 l 1,21,-1
 283 0 l 1,22,-1
 245 -61 l 1,23,24
 274 -71 274 -71 300 -88 c 128,-1,25
 326 -105 326 -105 344.5 -128.5 c 128,-1,26
 363 -152 363 -152 372 -182.5 c 128,-1,27
 381 -213 381 -213 374 -250 c 0,0,1
EndSplineSet
EndChar

StartChar: onesuperior
Encoding: 185 185 123
Width: 776
GlyphClass: 2
Flags: MW
LayerCount: 2
Fore
SplineSet
687 586 m 1,0,-1
 449 586 l 1,1,-1
 528 1032 l 2,2,3
 532 1052 532 1052 537.5 1082.5 c 128,-1,4
 543 1113 543 1113 550 1144 c 128,-1,5
 557 1175 557 1175 563 1201 c 128,-1,6
 569 1227 569 1227 572 1239 c 1,7,8
 565 1231 565 1231 553.5 1220.5 c 128,-1,9
 542 1210 542 1210 529.5 1199 c 128,-1,10
 517 1188 517 1188 505 1178 c 128,-1,11
 493 1168 493 1168 484 1161 c 2,12,-1
 395 1100 l 1,13,-1
 308 1227 l 1,14,-1
 651 1462 l 1,15,-1
 842 1462 l 1,16,-1
 687 586 l 1,0,-1
EndSplineSet
EndChar

StartChar: ordmasculine
Encoding: 186 186 124
Width: 754
GlyphClass: 2
Flags: MW
LayerCount: 2
Fore
SplineSet
893 1116 m 256,0,1
 878 1029 878 1029 843.5 961.5 c 128,-1,2
 809 894 809 894 758.5 847.5 c 128,-1,3
 708 801 708 801 645 776.5 c 128,-1,4
 582 752 582 752 508 752 c 0,5,6
 439 752 439 752 384.5 776.5 c 128,-1,7
 330 801 330 801 296 847.5 c 128,-1,8
 262 894 262 894 250 961.5 c 128,-1,9
 238 1029 238 1029 254 1116 c 256,10,11
 269 1203 269 1203 303.5 1270.5 c 128,-1,12
 338 1338 338 1338 387.5 1384.5 c 128,-1,13
 437 1431 437 1431 501 1455 c 128,-1,14
 565 1479 565 1479 640 1479 c 0,15,16
 708 1479 708 1479 761 1455 c 128,-1,17
 814 1431 814 1431 849 1384.5 c 128,-1,18
 884 1338 884 1338 896 1270.5 c 128,-1,19
 908 1203 908 1203 893 1116 c 256,0,1
457 1116 m 256,20,21
 439 1016 439 1016 457.5 965.5 c 128,-1,22
 476 915 476 915 538 915 c 0,23,24
 598 915 598 915 634.5 965.5 c 128,-1,25
 671 1016 671 1016 689 1116 c 256,26,27
 707 1216 707 1216 688 1265.5 c 128,-1,28
 669 1315 669 1315 609 1315 c 0,29,30
 547 1315 547 1315 511 1265.5 c 128,-1,31
 475 1216 475 1216 457 1116 c 256,20,21
EndSplineSet
EndChar

StartChar: guillemotright
Encoding: 187 187 125
Width: 1198
GlyphClass: 2
Flags: MW
LayerCount: 2
Fore
SplineSet
1214 547 m 1,0,-1
 826 94 l 1,1,-1
 628 213 l 1,2,-1
 906 561 l 1,3,-1
 750 909 l 1,4,-1
 990 1028 l 1,5,-1
 1219 573 l 1,6,-1
 1214 547 l 1,0,-1
708 547 m 1,7,-1
 320 94 l 1,8,-1
 122 213 l 1,9,-1
 400 561 l 1,10,-1
 244 909 l 1,11,-1
 484 1028 l 1,12,-1
 713 573 l 1,13,-1
 708 547 l 1,7,-1
EndSplineSet
EndChar

StartChar: questiondown
Encoding: 191 191 129
Width: 940
GlyphClass: 2
Flags: MW
LayerCount: 2
Fore
SplineSet
793 606 m 1,0,-1
 780 532 l 2,1,2
 771 481 771 481 753 439.5 c 128,-1,3
 735 398 735 398 707 360.5 c 128,-1,4
 679 323 679 323 639 288 c 128,-1,5
 599 253 599 253 544 215 c 0,6,7
 496 182 496 182 462.5 156 c 128,-1,8
 429 130 429 130 406.5 104.5 c 128,-1,9
 384 79 384 79 371 51 c 128,-1,10
 358 23 358 23 352 -14 c 0,11,12
 342 -71 342 -71 374 -108 c 128,-1,13
 406 -145 406 -145 484 -145 c 0,14,15
 553 -145 553 -145 638.5 -115.5 c 128,-1,16
 724 -86 724 -86 815 -45 c 1,17,-1
 879 -266 l 1,18,19
 831 -292 831 -292 776.5 -314.5 c 128,-1,20
 722 -337 722 -337 664.5 -354 c 128,-1,21
 607 -371 607 -371 549 -381 c 128,-1,22
 491 -391 491 -391 437 -391 c 0,23,24
 335 -391 335 -391 258 -366.5 c 128,-1,25
 181 -342 181 -342 132 -295.5 c 128,-1,26
 83 -249 83 -249 64.5 -181.5 c 128,-1,27
 46 -114 46 -114 61 -29 c 0,28,29
 72 34 72 34 94 83.5 c 128,-1,30
 116 133 116 133 151.5 175.5 c 128,-1,31
 187 218 187 218 236 258 c 128,-1,32
 285 298 285 298 347 342 c 0,33,34
 394 375 394 375 425 399.5 c 128,-1,35
 456 424 456 424 475 446 c 128,-1,36
 494 468 494 468 503.5 492 c 128,-1,37
 513 516 513 516 518 547 c 2,38,-1
 529 606 l 1,39,-1
 793 606 l 1,0,-1
886 948 m 0,40,41
 878 901 878 901 858.5 868.5 c 128,-1,42
 839 836 839 836 811.5 816 c 128,-1,43
 784 796 784 796 750.5 787 c 128,-1,44
 717 778 717 778 680 778 c 0,45,46
 645 778 645 778 615 787 c 128,-1,47
 585 796 585 796 564.5 816 c 128,-1,48
 544 836 544 836 536 868.5 c 128,-1,49
 528 901 528 901 536 948 c 0,50,51
 544 993 544 993 564 1025.5 c 128,-1,52
 584 1058 584 1058 611.5 1078.5 c 128,-1,53
 639 1099 639 1099 672 1108.5 c 128,-1,54
 705 1118 705 1118 740 1118 c 0,55,56
 777 1118 777 1118 807.5 1108.5 c 128,-1,57
 838 1099 838 1099 858.5 1078.5 c 128,-1,58
 879 1058 879 1058 886.5 1025.5 c 128,-1,59
 894 993 894 993 886 948 c 0,40,41
EndSplineSet
EndChar

StartChar: AE
Encoding: 198 198 136
Width: 1888
GlyphClass: 2
Flags: MW
AnchorPoint: "Anchor-0" 1261 1579 basechar 0
AnchorPoint: "Anchor-2" 1491 1595 basechar 0
AnchorPoint: "Anchor-30" 1488 1579 basechar 0
AnchorPoint: "Anchor-1" 1716 1579 basechar 0
LayerCount: 2
Fore
SplineSet
1767 0 m 1,0,-1
 926 0 l 1,1,-1
 987 348 l 1,2,-1
 526 348 l 1,3,-1
 315 0 l 1,4,-1
 0 0 l 1,5,-1
 913 1462 l 1,6,-1
 2025 1462 l 1,7,-1
 1980 1208 l 1,8,-1
 1448 1208 l 1,9,-1
 1391 887 l 1,10,-1
 1887 887 l 1,11,-1
 1843 633 l 1,12,-1
 1347 633 l 1,13,-1
 1280 256 l 1,14,-1
 1812 256 l 1,15,-1
 1767 0 l 1,0,-1
685 608 m 1,16,-1
 1033 608 l 1,17,-1
 1137 1198 l 1,18,-1
 1040 1198 l 1,19,-1
 685 608 l 1,16,-1
EndSplineSet
EndChar

StartChar: Eth
Encoding: 208 208 146
Width: 1434
GlyphClass: 2
Flags: MW
LayerCount: 2
Fore
SplineSet
197 850 m 1,0,-1
 334 850 l 1,1,-1
 442 1462 l 1,2,-1
 870 1462 l 2,3,4
 1031 1462 1031 1462 1152.5 1416 c 128,-1,5
 1274 1370 1274 1370 1350 1279.5 c 128,-1,6
 1426 1189 1426 1189 1451.5 1055 c 128,-1,7
 1477 921 1477 921 1446 745 c 0,8,9
 1413 560 1413 560 1338.5 420.5 c 128,-1,10
 1264 281 1264 281 1152 187.5 c 128,-1,11
 1040 94 1040 94 893 47 c 128,-1,12
 746 0 746 0 569 0 c 2,13,-1
 184 0 l 1,14,-1
 289 596 l 1,15,-1
 152 596 l 1,16,-1
 197 850 l 1,0,-1
1131 737 m 0,17,18
 1153 859 1153 859 1144 947.5 c 128,-1,19
 1135 1036 1135 1036 1098.5 1094 c 128,-1,20
 1062 1152 1062 1152 999.5 1180 c 128,-1,21
 937 1208 937 1208 850 1208 c 2,22,-1
 707 1208 l 1,23,-1
 644 850 l 1,24,-1
 881 850 l 1,25,-1
 836 596 l 1,26,-1
 599 596 l 1,27,-1
 539 256 l 1,28,-1
 653 256 l 2,29,30
 849 256 849 256 969 376 c 128,-1,31
 1089 496 1089 496 1131 737 c 0,17,18
EndSplineSet
EndChar

StartChar: multiply
Encoding: 215 215 153
Width: 1128
GlyphClass: 2
Flags: MW
LayerCount: 2
Fore
SplineSet
535 723 m 1,0,-1
 290 1024 l 1,1,-1
 468 1178 l 1,2,-1
 716 879 l 1,3,-1
 1074 1178 l 1,4,-1
 1201 1028 l 1,5,-1
 842 723 l 1,6,-1
 1090 420 l 1,7,-1
 913 268 l 1,8,-1
 661 569 l 1,9,-1
 308 270 l 1,10,-1
 185 422 l 1,11,-1
 535 723 l 1,0,-1
EndSplineSet
EndChar

StartChar: Oslash
Encoding: 216 216 154
Width: 1548
GlyphClass: 2
Flags: MW
AnchorPoint: "Anchor-1" 1210 1579 basechar 0
AnchorPoint: "Anchor-0" 868 1579 basechar 0
AnchorPoint: "Anchor-30" 1040 1579 basechar 0
AnchorPoint: "Anchor-2" 1043 1595 basechar 0
LayerCount: 2
Fore
SplineSet
1559 733 m 0,0,1
 1529 564 1529 564 1465 425 c 128,-1,2
 1401 286 1401 286 1303 187 c 128,-1,3
 1205 88 1205 88 1071.5 34 c 128,-1,4
 938 -20 938 -20 770 -20 c 0,5,6
 591 -20 591 -20 474 41 c 1,7,-1
 382 -76 l 1,8,-1
 230 18 l 1,9,-1
 336 152 l 1,10,11
 257 252 257 252 236.5 400 c 128,-1,12
 216 548 216 548 249 735 c 0,13,14
 279 905 279 905 342.5 1043.5 c 128,-1,15
 406 1182 406 1182 504.5 1280 c 128,-1,16
 603 1378 603 1378 736 1431.5 c 128,-1,17
 869 1485 869 1485 1038 1485 c 0,18,19
 1129 1485 1129 1485 1203.5 1468.5 c 128,-1,20
 1278 1452 1278 1452 1338 1421 c 1,21,-1
 1427 1532 l 1,22,-1
 1576 1436 l 1,23,-1
 1473 1307 l 1,24,25
 1550 1208 1550 1208 1570.5 1062.5 c 128,-1,26
 1591 917 1591 917 1559 733 c 0,0,1
567 733 m 0,27,28
 535 553 535 553 562 438 c 1,29,-1
 1151 1184 l 1,30,31
 1090 1227 1090 1227 992 1227 c 0,32,33
 905 1227 905 1227 835 1193 c 128,-1,34
 765 1159 765 1159 712.5 1095 c 128,-1,35
 660 1031 660 1031 623.5 939.5 c 128,-1,36
 587 848 587 848 567 733 c 0,27,28
1239 733 m 0,37,38
 1269 904 1269 904 1247 1020 c 1,39,-1
 661 279 l 1,40,41
 692 260 692 260 730 250 c 128,-1,42
 768 240 768 240 816 240 c 0,43,44
 905 240 905 240 974.5 274 c 128,-1,45
 1044 308 1044 308 1096 371.5 c 128,-1,46
 1148 435 1148 435 1183.5 526.5 c 128,-1,47
 1219 618 1219 618 1239 733 c 0,37,38
EndSplineSet
EndChar

StartChar: Thorn
Encoding: 222 222 160
Width: 1225
GlyphClass: 2
Flags: MW
LayerCount: 2
Fore
SplineSet
1269 770 m 0,0,1
 1252 676 1252 676 1211.5 590 c 128,-1,2
 1171 504 1171 504 1101 438 c 128,-1,3
 1031 372 1031 372 928.5 332.5 c 128,-1,4
 826 293 826 293 685 293 c 2,5,-1
 546 293 l 1,6,-1
 494 0 l 1,7,-1
 184 0 l 1,8,-1
 442 1462 l 1,9,-1
 752 1462 l 1,10,-1
 711 1233 l 1,11,-1
 872 1233 l 2,12,13
 996 1233 996 1233 1080.5 1200 c 128,-1,14
 1165 1167 1165 1167 1212.5 1106.5 c 128,-1,15
 1260 1046 1260 1046 1274 960.5 c 128,-1,16
 1288 875 1288 875 1269 770 c 0,0,1
590 543 m 1,17,-1
 674 543 l 2,18,19
 795 543 795 543 864 595.5 c 128,-1,20
 933 648 933 648 955 770 c 0,21,22
 974 878 974 878 930 929.5 c 128,-1,23
 886 981 886 981 771 981 c 2,24,-1
 667 981 l 1,25,-1
 590 543 l 1,17,-1
EndSplineSet
EndChar

StartChar: germandbls
Encoding: 223 223 161
Width: 1395
GlyphClass: 2
Flags: MW
LayerCount: 2
Fore
SplineSet
1407 1241 m 0,0,1
 1396 1177 1396 1177 1365.5 1128.5 c 128,-1,2
 1335 1080 1335 1080 1297 1042 c 128,-1,3
 1259 1004 1259 1004 1216.5 975 c 128,-1,4
 1174 946 1174 946 1138 922 c 128,-1,5
 1102 898 1102 898 1077 877 c 128,-1,6
 1052 856 1052 856 1048 834 c 0,7,8
 1044 814 1044 814 1054 797 c 128,-1,9
 1064 780 1064 780 1086.5 760 c 128,-1,10
 1109 740 1109 740 1145.5 714.5 c 128,-1,11
 1182 689 1182 689 1233 651 c 0,12,13
 1277 620 1277 620 1309 587.5 c 128,-1,14
 1341 555 1341 555 1360.5 516.5 c 128,-1,15
 1380 478 1380 478 1385.5 432 c 128,-1,16
 1391 386 1391 386 1380 326 c 0,17,18
 1350 154 1350 154 1217.5 67 c 128,-1,19
 1085 -20 1085 -20 858 -20 c 0,20,21
 760 -20 760 -20 690.5 -5.5 c 128,-1,22
 621 9 621 9 567 43 c 1,23,-1
 609 285 l 1,24,25
 630 269 630 269 662 253.5 c 128,-1,26
 694 238 694 238 730 226 c 128,-1,27
 766 214 766 214 804.5 206.5 c 128,-1,28
 843 199 843 199 877 199 c 0,29,30
 957 199 957 199 1006.5 229.5 c 128,-1,31
 1056 260 1056 260 1067 322 c 0,32,33
 1072 349 1072 349 1068.5 370 c 128,-1,34
 1065 391 1065 391 1048 412 c 128,-1,35
 1031 433 1031 433 998.5 457.5 c 128,-1,36
 966 482 966 482 912 516 c 0,37,38
 855 552 855 552 818.5 584 c 128,-1,39
 782 616 782 616 761 647.5 c 128,-1,40
 740 679 740 679 735 713.5 c 128,-1,41
 730 748 730 748 737 788 c 0,42,43
 746 841 746 841 773.5 880 c 128,-1,44
 801 919 801 919 837.5 950 c 128,-1,45
 874 981 874 981 915 1007 c 128,-1,46
 956 1033 956 1033 991.5 1059.5 c 128,-1,47
 1027 1086 1027 1086 1053 1117 c 128,-1,48
 1079 1148 1079 1148 1086 1188 c 0,49,50
 1097 1251 1097 1251 1054 1290 c 128,-1,51
 1011 1329 1011 1329 914 1329 c 0,52,53
 806 1329 806 1329 744 1280.5 c 128,-1,54
 682 1232 682 1232 664 1128 c 2,55,-1
 465 0 l 1,56,-1
 160 0 l 1,57,-1
 361 1139 l 2,58,59
 380 1248 380 1248 431 1328.5 c 128,-1,60
 482 1409 482 1409 560 1462 c 128,-1,61
 638 1515 638 1515 738.5 1541 c 128,-1,62
 839 1567 839 1567 956 1567 c 0,63,64
 1071 1567 1071 1567 1161.5 1545.5 c 128,-1,65
 1252 1524 1252 1524 1311 1482.5 c 128,-1,66
 1370 1441 1370 1441 1395.5 1380 c 128,-1,67
 1421 1319 1421 1319 1407 1241 c 0,0,1
EndSplineSet
EndChar

StartChar: ae
Encoding: 230 230 168
Width: 1806
GlyphClass: 2
Flags: MW
AnchorPoint: "Anchor-1" 1288 1241 basechar 0
AnchorPoint: "Anchor-0" 975 1241 basechar 0
AnchorPoint: "Anchor-30" 1131 1241 basechar 0
AnchorPoint: "Anchor-2" 1134 1257 basechar 0
LayerCount: 2
Fore
SplineSet
1264 -20 m 0,0,1
 1133 -20 1133 -20 1035 30.5 c 128,-1,2
 937 81 937 81 887 186 c 1,3,4
 834 132 834 132 785.5 93.5 c 128,-1,5
 737 55 737 55 683.5 29.5 c 128,-1,6
 630 4 630 4 566 -8 c 128,-1,7
 502 -20 502 -20 420 -20 c 0,8,9
 352 -20 352 -20 294.5 1.5 c 128,-1,10
 237 23 237 23 198 66.5 c 128,-1,11
 159 110 159 110 144 176.5 c 128,-1,12
 129 243 129 243 145 334 c 0,13,14
 176 512 176 512 305 596.5 c 128,-1,15
 434 681 434 681 663 690 c 2,16,-1
 842 696 l 1,17,-1
 857 780 l 2,18,19
 869 849 869 849 834.5 882 c 128,-1,20
 800 915 800 915 728 915 c 256,21,22
 656 915 656 915 584 894 c 128,-1,23
 512 873 512 873 437 838 c 1,24,-1
 373 1040 l 1,25,26
 465 1087 465 1087 572 1114 c 128,-1,27
 679 1141 679 1141 791 1141 c 0,28,29
 1005 1141 1005 1141 1091 1010 c 1,30,31
 1240 1139 1240 1139 1428 1139 c 0,32,33
 1539 1139 1539 1139 1622.5 1105.5 c 128,-1,34
 1706 1072 1706 1072 1756.5 1007 c 128,-1,35
 1807 942 1807 942 1824 847.5 c 128,-1,36
 1841 753 1841 753 1819 631 c 2,37,-1
 1793 483 l 1,38,-1
 1111 483 l 1,39,40
 1102 419 1102 419 1111.5 367.5 c 128,-1,41
 1121 316 1121 316 1148 280.5 c 128,-1,42
 1175 245 1175 245 1219.5 226 c 128,-1,43
 1264 207 1264 207 1324 207 c 0,44,45
 1418 207 1418 207 1509.5 228.5 c 128,-1,46
 1601 250 1601 250 1697 295 c 1,47,-1
 1655 59 l 1,48,49
 1611 38 1611 38 1568.5 23.5 c 128,-1,50
 1526 9 1526 9 1479 -1 c 128,-1,51
 1432 -11 1432 -11 1379 -15.5 c 128,-1,52
 1326 -20 1326 -20 1264 -20 c 0,0,1
810 518 m 1,53,-1
 709 514 l 2,54,55
 648 512 648 512 603 498 c 128,-1,56
 558 484 558 484 528.5 460.5 c 128,-1,57
 499 437 499 437 482 404.5 c 128,-1,58
 465 372 465 372 458 332 c 0,59,60
 446 262 446 262 474.5 232.5 c 128,-1,61
 503 203 503 203 558 203 c 0,62,63
 600 203 600 203 638.5 217.5 c 128,-1,64
 677 232 677 232 708.5 260.5 c 128,-1,65
 740 289 740 289 762.5 330.5 c 128,-1,66
 785 372 785 372 794 426 c 2,67,-1
 810 518 l 1,53,-1
1392 922 m 0,68,69
 1310 922 1310 922 1246 865 c 128,-1,70
 1182 808 1182 808 1153 686 c 1,71,-1
 1542 686 l 1,72,73
 1550 737 1550 737 1545.5 780 c 128,-1,74
 1541 823 1541 823 1523 854.5 c 128,-1,75
 1505 886 1505 886 1472.5 904 c 128,-1,76
 1440 922 1440 922 1392 922 c 0,68,69
EndSplineSet
EndChar

StartChar: eth
Encoding: 240 240 178
Width: 1182
GlyphClass: 2
Flags: MW
LayerCount: 2
Fore
SplineSet
688 1309 m 1,0,1
 658 1330 658 1330 623 1354 c 128,-1,2
 588 1378 588 1378 550 1401 c 1,3,-1
 676 1571 l 1,4,5
 743 1537 743 1537 801 1502.5 c 128,-1,6
 859 1468 859 1468 909 1430 c 1,7,-1
 1160 1569 l 1,8,-1
 1233 1415 l 1,9,-1
 1040 1309 l 1,10,11
 1100 1240 1100 1240 1140 1162 c 128,-1,12
 1180 1084 1180 1084 1199.5 993 c 128,-1,13
 1219 902 1219 902 1218.5 798 c 128,-1,14
 1218 694 1218 694 1197 573 c 0,15,16
 1172 431 1172 431 1116.5 321 c 128,-1,17
 1061 211 1061 211 980.5 135 c 128,-1,18
 900 59 900 59 798 19.5 c 128,-1,19
 696 -20 696 -20 578 -20 c 0,20,21
 467 -20 467 -20 380 14 c 128,-1,22
 293 48 293 48 237 113 c 128,-1,23
 181 178 181 178 160 272.5 c 128,-1,24
 139 367 139 367 160 489 c 256,25,26
 182 611 182 611 231 705 c 128,-1,27
 280 799 280 799 350 863.5 c 128,-1,28
 420 928 420 928 507 961.5 c 128,-1,29
 594 995 594 995 691 995 c 0,30,31
 787 995 787 995 849.5 963.5 c 128,-1,32
 912 932 912 932 936 883 c 1,33,-1
 957 885 l 1,34,35
 945 973 945 973 908 1050.5 c 128,-1,36
 871 1128 871 1128 815 1184 c 1,37,-1
 558 1040 l 1,38,-1
 485 1196 l 1,39,-1
 688 1309 l 1,0,1
878 532 m 0,40,41
 886 579 886 579 882 622 c 128,-1,42
 878 665 878 665 859.5 698 c 128,-1,43
 841 731 841 731 807 750.5 c 128,-1,44
 773 770 773 770 722 770 c 0,45,46
 614 770 614 770 555 699.5 c 128,-1,47
 496 629 496 629 471 487 c 0,48,49
 460 424 460 424 462 372 c 128,-1,50
 464 320 464 320 482 283 c 128,-1,51
 500 246 500 246 534.5 225.5 c 128,-1,52
 569 205 569 205 622 205 c 0,53,54
 728 205 728 205 788.5 286.5 c 128,-1,55
 849 368 849 368 878 532 c 0,40,41
EndSplineSet
EndChar

StartChar: divide
Encoding: 247 247 185
Width: 1128
GlyphClass: 2
Flags: MW
LayerCount: 2
Fore
SplineSet
196 612 m 1,0,-1
 235 831 l 1,1,-1
 1187 831 l 1,2,-1
 1148 612 l 1,3,-1
 196 612 l 1,0,-1
490 373 m 0,4,5
 497 415 497 415 513 444 c 128,-1,6
 529 473 529 473 551.5 490.5 c 128,-1,7
 574 508 574 508 600.5 516 c 128,-1,8
 627 524 627 524 655 524 c 256,9,10
 683 524 683 524 707 516 c 128,-1,11
 731 508 731 508 746.5 490.5 c 128,-1,12
 762 473 762 473 768.5 444 c 128,-1,13
 775 415 775 415 768 373 c 0,14,15
 761 333 761 333 744 304 c 128,-1,16
 727 275 727 275 705 256.5 c 128,-1,17
 683 238 683 238 656.5 229.5 c 128,-1,18
 630 221 630 221 602 221 c 256,19,20
 574 221 574 221 550 229.5 c 128,-1,21
 526 238 526 238 510 256.5 c 128,-1,22
 494 275 494 275 488.5 304 c 128,-1,23
 483 333 483 333 490 373 c 0,4,5
613 1071 m 0,24,25
 620 1113 620 1113 636 1142 c 128,-1,26
 652 1171 652 1171 674.5 1189 c 128,-1,27
 697 1207 697 1207 724 1215 c 128,-1,28
 751 1223 751 1223 779 1223 c 256,29,30
 807 1223 807 1223 830.5 1215 c 128,-1,31
 854 1207 854 1207 869.5 1189 c 128,-1,32
 885 1171 885 1171 891.5 1142 c 128,-1,33
 898 1113 898 1113 891 1071 c 0,34,35
 884 1031 884 1031 867.5 1002.5 c 128,-1,36
 851 974 851 974 828.5 955.5 c 128,-1,37
 806 937 806 937 779.5 928.5 c 128,-1,38
 753 920 753 920 725 920 c 256,39,40
 697 920 697 920 673 928.5 c 128,-1,41
 649 937 649 937 633.5 955.5 c 128,-1,42
 618 974 618 974 612 1002.5 c 128,-1,43
 606 1031 606 1031 613 1071 c 0,24,25
EndSplineSet
EndChar

StartChar: oslash
Encoding: 248 248 186
Width: 1227
GlyphClass: 2
Flags: MW
AnchorPoint: "Anchor-0" 653 1241 basechar 0
AnchorPoint: "Anchor-1" 1007 1241 basechar 0
AnchorPoint: "Anchor-30" 827 1241 basechar 0
AnchorPoint: "Anchor-2" 830 1257 basechar 0
LayerCount: 2
Fore
SplineSet
1223 561 m 0,0,1
 1198 421 1198 421 1143.5 313 c 128,-1,2
 1089 205 1089 205 1009.5 131 c 128,-1,3
 930 57 930 57 827.5 18.5 c 128,-1,4
 725 -20 725 -20 606 -20 c 0,5,6
 549 -20 549 -20 499 -10 c 128,-1,7
 449 0 449 0 404 18 c 1,8,-1
 331 -76 l 1,9,-1
 184 14 l 1,10,-1
 272 125 l 1,11,12
 216 199 216 199 196 308.5 c 128,-1,13
 176 418 176 418 201 561 c 0,14,15
 226 700 226 700 280.5 808 c 128,-1,16
 335 916 335 916 414 989.5 c 128,-1,17
 493 1063 493 1063 595 1101 c 128,-1,18
 697 1139 697 1139 817 1139 c 0,19,20
 879 1139 879 1139 934 1126 c 128,-1,21
 989 1113 989 1113 1036 1090 c 1,22,-1
 1099 1169 l 1,23,-1
 1242 1073 l 1,24,-1
 1163 975 l 1,25,26
 1213 903 1213 903 1229.5 798.5 c 128,-1,27
 1246 694 1246 694 1223 561 c 0,0,1
513 561 m 0,28,29
 498 475 498 475 498 410 c 1,30,-1
 862 868 l 1,31,32
 826 893 826 893 769 893 c 0,33,34
 664 893 664 893 603 810.5 c 128,-1,35
 542 728 542 728 513 561 c 0,28,29
912 561 m 0,36,37
 923 625 923 625 926 674 c 1,38,-1
 581 240 l 1,39,40
 597 232 597 232 615 228.5 c 128,-1,41
 633 225 633 225 654 225 c 0,42,43
 759 225 759 225 821 310 c 128,-1,44
 883 395 883 395 912 561 c 0,36,37
EndSplineSet
EndChar

StartChar: thorn
Encoding: 254 254 192
Width: 1245
GlyphClass: 2
Flags: MW
LayerCount: 2
Fore
SplineSet
637 973 m 1,0,1
 663 1008 663 1008 695.5 1038 c 128,-1,2
 728 1068 728 1068 768 1090.5 c 128,-1,3
 808 1113 808 1113 855 1126 c 128,-1,4
 902 1139 902 1139 957 1139 c 0,5,6
 1043 1139 1043 1139 1107.5 1102 c 128,-1,7
 1172 1065 1172 1065 1210 992 c 128,-1,8
 1248 919 1248 919 1257.5 811 c 128,-1,9
 1267 703 1267 703 1242 561 c 0,10,11
 1217 418 1217 418 1169.5 309.5 c 128,-1,12
 1122 201 1122 201 1058.5 127.5 c 128,-1,13
 995 54 995 54 917 17 c 128,-1,14
 839 -20 839 -20 752 -20 c 0,15,16
 697 -20 697 -20 654 -9.5 c 128,-1,17
 611 1 611 1 579 20 c 128,-1,18
 547 39 547 39 524.5 64 c 128,-1,19
 502 89 502 89 486 117 c 1,20,-1
 472 117 l 1,21,22
 469 85 469 85 468 55 c 0,23,24
 466 29 466 29 463.5 3 c 128,-1,25
 461 -23 461 -23 458 -39 c 2,26,-1
 378 -492 l 1,27,-1
 73 -492 l 1,28,-1
 434 1556 l 1,29,-1
 739 1556 l 1,30,-1
 670 1165 l 2,31,32
 666 1141 666 1141 658.5 1108 c 128,-1,33
 651 1075 651 1075 642 1045 c 0,34,35
 632 1010 632 1010 623 973 c 1,36,-1
 637 973 l 1,0,1
811 895 m 0,37,38
 760 895 760 895 721 876.5 c 128,-1,39
 682 858 682 858 653.5 821 c 128,-1,40
 625 784 625 784 605 727.5 c 128,-1,41
 585 671 585 671 570 596 c 2,42,-1
 564 563 l 2,43,44
 550 482 550 482 548.5 419 c 128,-1,45
 547 356 547 356 561.5 313.5 c 128,-1,46
 576 271 576 271 608.5 249 c 128,-1,47
 641 227 641 227 695 227 c 0,48,49
 786 227 786 227 844 313.5 c 128,-1,50
 902 400 902 400 931 565 c 256,51,52
 960 730 960 730 932 812.5 c 128,-1,53
 904 895 904 895 811 895 c 0,37,38
EndSplineSet
EndChar

StartChar: dcroat
Encoding: 273 273 211
Width: 1245
GlyphClass: 2
Flags: MW
LayerCount: 2
Fore
SplineSet
485 -20 m 0,0,1
 399 -20 399 -20 334.5 15 c 128,-1,2
 270 50 270 50 231 119 c 128,-1,3
 192 188 192 188 181.5 290 c 128,-1,4
 171 392 171 392 195 526 c 0,5,6
 219 662 219 662 265.5 765 c 128,-1,7
 312 868 312 868 377 937.5 c 128,-1,8
 442 1007 442 1007 521 1042 c 128,-1,9
 600 1077 600 1077 688 1077 c 0,10,11
 742 1077 742 1077 784.5 1064.5 c 128,-1,12
 827 1052 827 1052 859.5 1030 c 128,-1,13
 892 1008 892 1008 915 978 c 128,-1,14
 938 948 938 948 954 913 c 1,15,-1
 964 913 l 1,16,17
 965 953 965 953 967 993 c 0,18,19
 968 1028 968 1028 972 1068.5 c 128,-1,20
 976 1109 976 1109 982 1145 c 2,21,-1
 991 1196 l 1,22,-1
 676 1196 l 1,23,-1
 711 1395 l 1,24,-1
 1026 1395 l 1,25,-1
 1054 1556 l 1,26,-1
 1359 1556 l 1,27,-1
 1331 1395 l 1,28,-1
 1487 1395 l 1,29,-1
 1452 1196 l 1,30,-1
 1296 1196 l 1,31,-1
 1085 0 l 1,32,-1
 852 0 l 1,33,-1
 819 145 l 1,34,-1
 806 145 l 1,35,36
 779 111 779 111 746.5 80.5 c 128,-1,37
 714 50 714 50 674.5 28 c 128,-1,38
 635 6 635 6 588 -7 c 128,-1,39
 541 -20 541 -20 485 -20 c 0,0,1
651 223 m 0,40,41
 703 223 703 223 741.5 240 c 128,-1,42
 780 257 780 257 808 291 c 128,-1,43
 836 325 836 325 855.5 376 c 128,-1,44
 875 427 875 427 888 496 c 2,45,-1
 893 524 l 2,46,47
 906 598 906 598 907 655 c 128,-1,48
 908 712 908 712 892.5 750.5 c 128,-1,49
 877 789 877 789 844 809 c 128,-1,50
 811 829 811 829 756 829 c 0,51,52
 665 829 665 829 608.5 750.5 c 128,-1,53
 552 672 552 672 526 522 c 0,54,55
 500 373 500 373 529 298 c 128,-1,56
 558 223 558 223 651 223 c 0,40,41
EndSplineSet
EndChar

StartChar: Hbar
Encoding: 294 294 232
Width: 1485
GlyphClass: 2
Flags: MW
LayerCount: 2
Fore
SplineSet
1709 1268 m 1,0,-1
 1673 1069 l 1,1,-1
 1488 1069 l 1,2,-1
 1300 0 l 1,3,-1
 991 0 l 1,4,-1
 1102 631 l 1,5,-1
 605 631 l 1,6,-1
 494 0 l 1,7,-1
 184 0 l 1,8,-1
 372 1069 l 1,9,-1
 188 1069 l 1,10,-1
 224 1268 l 1,11,-1
 408 1268 l 1,12,-1
 442 1462 l 1,13,-1
 752 1462 l 1,14,-1
 718 1268 l 1,15,-1
 1215 1268 l 1,16,-1
 1249 1462 l 1,17,-1
 1558 1462 l 1,18,-1
 1524 1268 l 1,19,-1
 1709 1268 l 1,0,-1
1148 889 m 1,20,-1
 1179 1069 l 1,21,-1
 682 1069 l 1,22,-1
 651 889 l 1,23,-1
 1148 889 l 1,20,-1
EndSplineSet
EndChar

StartChar: hbar
Encoding: 295 295 233
Width: 1284
GlyphClass: 2
Flags: MW
LayerCount: 2
Fore
SplineSet
1130 0 m 1,0,-1
 825 0 l 1,1,-1
 929 592 l 2,2,3
 950 713 950 713 923.5 773.5 c 128,-1,4
 897 834 897 834 819 834 c 0,5,6
 760 834 760 834 715.5 809.5 c 128,-1,7
 671 785 671 785 639 738 c 128,-1,8
 607 691 607 691 585 622.5 c 128,-1,9
 563 554 563 554 547 465 c 2,10,-1
 465 0 l 1,11,-1
 160 0 l 1,12,-1
 371 1196 l 1,13,-1
 215 1196 l 1,14,-1
 250 1395 l 1,15,-1
 406 1395 l 1,16,-1
 434 1556 l 1,17,-1
 739 1556 l 1,18,-1
 711 1395 l 1,19,-1
 1026 1395 l 1,20,-1
 991 1196 l 1,21,-1
 676 1196 l 1,22,-1
 673 1178 l 2,23,24
 666 1136 666 1136 655.5 1089.5 c 128,-1,25
 645 1043 645 1043 635 1004 c 2,26,-1
 612 913 l 1,27,-1
 628 913 l 1,28,29
 692 1000 692 1000 775 1038.5 c 128,-1,30
 858 1077 858 1077 954 1077 c 0,31,32
 1037 1077 1037 1077 1100.5 1053.5 c 128,-1,33
 1164 1030 1164 1030 1203 980 c 128,-1,34
 1242 930 1242 930 1254.5 852.5 c 128,-1,35
 1267 775 1267 775 1248 668 c 2,36,-1
 1130 0 l 1,0,-1
EndSplineSet
EndChar

StartChar: dotlessi
Encoding: 305 305 243
Width: 625
GlyphClass: 2
Flags: MW
AnchorPoint: "Anchor-30" 532 1241 basechar 0
AnchorPoint: "Anchor-2" 535 1257 basechar 0
LayerCount: 2
Fore
SplineSet
465 0 m 1,0,-1
 160 0 l 1,1,-1
 357 1118 l 1,2,-1
 662 1118 l 1,3,-1
 465 0 l 1,0,-1
EndSplineSet
EndChar

StartChar: kgreenlandic
Encoding: 312 312 250
Width: 1208
GlyphClass: 2
Flags: MW
LayerCount: 2
Fore
SplineSet
553 565 m 1,0,-1
 714 760 l 1,1,-1
 1053 1118 l 1,2,-1
 1379 1118 l 1,3,-1
 887 621 l 1,4,-1
 1208 0 l 1,5,-1
 864 0 l 1,6,-1
 658 418 l 1,7,-1
 524 336 l 1,8,-1
 465 0 l 1,9,-1
 160 0 l 1,10,-1
 357 1118 l 1,11,-1
 662 1118 l 1,12,-1
 610 825 l 2,13,14
 603 785 603 785 592.5 739.5 c 128,-1,15
 582 694 582 694 572 655 c 0,16,17
 560 609 560 609 549 565 c 1,18,-1
 553 565 l 1,0,-1
EndSplineSet
EndChar

StartChar: Lslash
Encoding: 321 321 259
Width: 1096
GlyphClass: 2
Flags: MW
LayerCount: 2
Fore
SplineSet
184 0 m 1,0,-1
 271 492 l 1,1,-1
 195 451 l 1,2,-1
 116 647 l 1,3,-1
 318 758 l 1,4,-1
 442 1462 l 1,5,-1
 752 1462 l 1,6,-1
 661 946 l 1,7,-1
 819 1034 l 1,8,-1
 902 838 l 1,9,-1
 614 680 l 1,10,-1
 539 256 l 1,11,-1
 1071 256 l 1,12,-1
 1026 0 l 1,13,-1
 184 0 l 1,0,-1
EndSplineSet
EndChar

StartChar: lslash
Encoding: 322 322 260
Width: 676
GlyphClass: 2
Flags: MW
LayerCount: 2
Fore
SplineSet
653 930 m 1,0,-1
 731 973 l 1,1,-1
 813 776 l 1,2,-1
 606 664 l 1,3,-1
 489 0 l 1,4,-1
 184 0 l 1,5,-1
 268 477 l 1,6,-1
 190 434 l 1,7,-1
 111 631 l 1,8,-1
 315 743 l 1,9,-1
 458 1556 l 1,10,-1
 763 1556 l 1,11,-1
 653 930 l 1,0,-1
EndSplineSet
EndChar

StartChar: Eng
Encoding: 330 330 268
Width: 1567
GlyphClass: 2
Flags: MW
LayerCount: 2
Fore
SplineSet
860 -430 m 0,0,1
 795 -430 795 -430 747 -423.5 c 128,-1,2
 699 -417 699 -417 667 -408 c 1,3,-1
 713 -150 l 1,4,5
 749 -158 749 -158 788 -164 c 128,-1,6
 827 -170 827 -170 875 -170 c 0,7,8
 917 -170 917 -170 958.5 -162 c 128,-1,9
 1000 -154 1000 -154 1035.5 -134 c 128,-1,10
 1071 -114 1071 -114 1099 -80.5 c 128,-1,11
 1127 -47 1127 -47 1142 4 c 1,12,-1
 627 1106 l 1,13,-1
 619 1106 l 1,14,15
 610 1029 610 1029 601 953 c 0,16,17
 594 888 594 888 583.5 816.5 c 128,-1,18
 573 745 573 745 563 688 c 2,19,-1
 442 0 l 1,20,-1
 166 0 l 1,21,-1
 424 1462 l 1,22,-1
 815 1462 l 1,23,-1
 1231 571 l 1,24,-1
 1238 571 l 1,25,26
 1249 648 1249 648 1257 722 c 0,27,28
 1262 754 1262 754 1266.5 787.5 c 128,-1,29
 1271 821 1271 821 1275.5 854.5 c 128,-1,30
 1280 888 1280 888 1285 919 c 128,-1,31
 1290 950 1290 950 1294 975 c 2,32,-1
 1380 1462 l 1,33,-1
 1659 1462 l 1,34,-1
 1401 0 l 2,35,36
 1381 -111 1381 -111 1333 -192.5 c 128,-1,37
 1285 -274 1285 -274 1214.5 -326.5 c 128,-1,38
 1144 -379 1144 -379 1054 -404.5 c 128,-1,39
 964 -430 964 -430 860 -430 c 0,0,1
EndSplineSet
EndChar

StartChar: eng
Encoding: 331 331 269
Width: 1284
GlyphClass: 2
Flags: MW
LayerCount: 2
Fore
SplineSet
681 -492 m 0,0,1
 633 -492 633 -492 583.5 -485 c 128,-1,2
 534 -478 534 -478 502 -467 c 1,3,-1
 544 -227 l 1,4,5
 573 -237 573 -237 599 -241.5 c 128,-1,6
 625 -246 625 -246 659 -246 c 0,7,8
 685 -246 685 -246 708 -238.5 c 128,-1,9
 731 -231 731 -231 751.5 -211.5 c 128,-1,10
 772 -192 772 -192 787.5 -159.5 c 128,-1,11
 803 -127 803 -127 812 -76 c 2,12,-1
 944 676 l 2,13,14
 963 785 963 785 934 840 c 128,-1,15
 905 895 905 895 830 895 c 0,16,17
 770 895 770 895 725.5 871 c 128,-1,18
 681 847 681 847 649.5 800 c 128,-1,19
 618 753 618 753 595.5 684 c 128,-1,20
 573 615 573 615 558 526 c 2,21,-1
 465 0 l 1,22,-1
 160 0 l 1,23,-1
 357 1118 l 1,24,-1
 590 1118 l 1,25,-1
 606 975 l 1,26,-1
 623 975 l 1,27,28
 655 1018 655 1018 694.5 1049 c 128,-1,29
 734 1080 734 1080 778.5 1100 c 128,-1,30
 823 1120 823 1120 871 1129.5 c 128,-1,31
 919 1139 919 1139 967 1139 c 0,32,33
 1049 1139 1049 1139 1112 1115.5 c 128,-1,34
 1175 1092 1175 1092 1214 1042 c 128,-1,35
 1253 992 1253 992 1265.5 914.5 c 128,-1,36
 1278 837 1278 837 1259 729 c 2,37,-1
 1109 -121 l 2,38,39
 1095 -198 1095 -198 1063.5 -265.5 c 128,-1,40
 1032 -333 1032 -333 979.5 -383.5 c 128,-1,41
 927 -434 927 -434 853 -463 c 128,-1,42
 779 -492 779 -492 681 -492 c 0,0,1
EndSplineSet
EndChar

StartChar: OE
Encoding: 338 338 276
Width: 1931
GlyphClass: 2
Flags: MW
AnchorPoint: "Anchor-2" 1404 1595 basechar 0
AnchorPoint: "Anchor-0" 1230 1579 basechar 0
AnchorPoint: "Anchor-1" 1572 1579 basechar 0
AnchorPoint: "Anchor-30" 1401 1579 basechar 0
LayerCount: 2
Fore
SplineSet
1810 0 m 1,0,-1
 969 0 l 1,1,2
 922 -9 922 -9 872.5 -14.5 c 128,-1,3
 823 -20 823 -20 770 -20 c 0,4,5
 602 -20 602 -20 488.5 34 c 128,-1,6
 375 88 375 88 311.5 187 c 128,-1,7
 248 286 248 286 233.5 425.5 c 128,-1,8
 219 565 219 565 249 735 c 256,9,10
 279 905 279 905 342.5 1043.5 c 128,-1,11
 406 1182 406 1182 504.5 1280 c 128,-1,12
 603 1378 603 1378 736 1431.5 c 128,-1,13
 869 1485 869 1485 1038 1485 c 0,14,15
 1092 1485 1092 1485 1140 1479 c 128,-1,16
 1188 1473 1188 1473 1231 1462 c 1,17,-1
 2068 1462 l 1,18,-1
 2023 1208 l 1,19,-1
 1491 1208 l 1,20,-1
 1434 887 l 1,21,-1
 1930 887 l 1,22,-1
 1886 633 l 1,23,-1
 1390 633 l 1,24,-1
 1323 256 l 1,25,-1
 1855 256 l 1,26,-1
 1810 0 l 1,0,-1
992 1227 m 0,27,28
 905 1227 905 1227 835 1193 c 128,-1,29
 765 1159 765 1159 712.5 1095 c 128,-1,30
 660 1031 660 1031 624 939.5 c 128,-1,31
 588 848 588 848 567 733 c 256,32,33
 547 618 547 618 551 526.5 c 128,-1,34
 555 435 555 435 585 371.5 c 128,-1,35
 615 308 615 308 672 274 c 128,-1,36
 729 240 729 240 816 240 c 0,37,38
 876 240 876 240 926.5 250 c 128,-1,39
 977 260 977 260 1018 279 c 1,40,-1
 1178 1186 l 1,41,42
 1145 1206 1145 1206 1098.5 1216.5 c 128,-1,43
 1052 1227 1052 1227 992 1227 c 0,27,28
EndSplineSet
EndChar

StartChar: oe
Encoding: 339 339 277
Width: 1901
GlyphClass: 2
Flags: MW
AnchorPoint: "Anchor-0" 1010 1241 basechar 0
AnchorPoint: "Anchor-1" 1364 1241 basechar 0
AnchorPoint: "Anchor-30" 1184 1241 basechar 0
AnchorPoint: "Anchor-2" 1187 1257 basechar 0
LayerCount: 2
Fore
SplineSet
1358 -20 m 0,0,1
 1239 -20 1239 -20 1146 17.5 c 128,-1,2
 1053 55 1053 55 995 135 c 1,3,4
 915 57 915 57 817 18.5 c 128,-1,5
 719 -20 719 -20 606 -20 c 0,6,7
 495 -20 495 -20 409 18.5 c 128,-1,8
 323 57 323 57 268.5 131 c 128,-1,9
 214 205 214 205 195 313 c 128,-1,10
 176 421 176 421 201 561 c 0,11,12
 226 700 226 700 280.5 808 c 128,-1,13
 335 916 335 916 414 989.5 c 128,-1,14
 493 1063 493 1063 595 1101 c 128,-1,15
 697 1139 697 1139 817 1139 c 0,16,17
 923 1139 923 1139 1004.5 1099.5 c 128,-1,18
 1086 1060 1086 1060 1138 983 c 1,19,20
 1218 1061 1218 1061 1315.5 1100 c 128,-1,21
 1413 1139 1413 1139 1522 1139 c 0,22,23
 1633 1139 1633 1139 1716.5 1105.5 c 128,-1,24
 1800 1072 1800 1072 1850.5 1007 c 128,-1,25
 1901 942 1901 942 1918 847.5 c 128,-1,26
 1935 753 1935 753 1913 631 c 2,27,-1
 1887 483 l 1,28,-1
 1205 483 l 1,29,-1
 1204 475 l 1,30,31
 1188 348 1188 348 1243 277.5 c 128,-1,32
 1298 207 1298 207 1418 207 c 0,33,34
 1469 207 1469 207 1515.5 212.5 c 128,-1,35
 1562 218 1562 218 1607.5 229 c 128,-1,36
 1653 240 1653 240 1698 256.5 c 128,-1,37
 1743 273 1743 273 1791 295 c 1,38,-1
 1749 59 l 1,39,40
 1705 38 1705 38 1662.5 23.5 c 128,-1,41
 1620 9 1620 9 1573 -1 c 128,-1,42
 1526 -11 1526 -11 1473 -15.5 c 128,-1,43
 1420 -20 1420 -20 1358 -20 c 0,0,1
513 561 m 256,44,45
 484 394 484 394 516 309.5 c 128,-1,46
 548 225 548 225 654 225 c 0,47,48
 759 225 759 225 821 310 c 128,-1,49
 883 395 883 395 912 561 c 0,50,51
 941 728 941 728 908.5 810.5 c 128,-1,52
 876 893 876 893 769 893 c 0,53,54
 664 893 664 893 603 810.5 c 128,-1,55
 542 728 542 728 513 561 c 256,44,45
1486 922 m 0,56,57
 1445 922 1445 922 1408 908 c 128,-1,58
 1371 894 1371 894 1340 865 c 128,-1,59
 1309 836 1309 836 1285.5 791.5 c 128,-1,60
 1262 747 1262 747 1247 686 c 1,61,-1
 1637 686 l 1,62,63
 1645 737 1645 737 1640.5 780 c 128,-1,64
 1636 823 1636 823 1617.5 854.5 c 128,-1,65
 1599 886 1599 886 1566.5 904 c 128,-1,66
 1534 922 1534 922 1486 922 c 0,56,57
EndSplineSet
EndChar

StartChar: Tbar
Encoding: 358 358 296
Width: 1124
GlyphClass: 2
Flags: MW
LayerCount: 2
Fore
SplineSet
717 0 m 1,0,-1
 408 0 l 1,1,-1
 513 596 l 1,2,-1
 275 596 l 1,3,-1
 320 850 l 1,4,-1
 558 850 l 1,5,-1
 620 1204 l 1,6,-1
 253 1204 l 1,7,-1
 299 1462 l 1,8,-1
 1341 1462 l 1,9,-1
 1295 1204 l 1,10,-1
 929 1204 l 1,11,-1
 867 850 l 1,12,-1
 1104 850 l 1,13,-1
 1059 596 l 1,14,-1
 822 596 l 1,15,-1
 717 0 l 1,0,-1
EndSplineSet
EndChar

StartChar: tbar
Encoding: 359 359 297
Width: 848
GlyphClass: 2
Flags: MW
LayerCount: 2
Fore
SplineSet
653 223 m 0,0,1
 698 223 698 223 740.5 233 c 128,-1,2
 783 243 783 243 827 258 c 1,3,-1
 787 31 l 1,4,5
 740 9 740 9 674 -5.5 c 128,-1,6
 608 -20 608 -20 533 -20 c 0,7,8
 460 -20 460 -20 400 -3 c 128,-1,9
 340 14 340 14 301.5 56.5 c 128,-1,10
 263 99 263 99 249.5 170.5 c 128,-1,11
 236 242 236 242 255 350 c 2,12,-1
 281 498 l 1,13,-1
 154 498 l 1,14,-1
 189 696 l 1,15,-1
 316 696 l 1,16,-1
 349 885 l 1,17,-1
 203 885 l 1,18,-1
 227 1018 l 1,19,-1
 412 1120 l 1,20,-1
 542 1356 l 1,21,-1
 737 1356 l 1,22,-1
 695 1118 l 1,23,-1
 967 1118 l 1,24,-1
 926 885 l 1,25,-1
 654 885 l 1,26,-1
 621 696 l 1,27,-1
 858 696 l 1,28,-1
 823 498 l 1,29,-1
 586 498 l 1,30,-1
 560 350 l 2,31,32
 549 285 549 285 575 254 c 128,-1,33
 601 223 601 223 653 223 c 0,0,1
EndSplineSet
EndChar

StartChar: longs
Encoding: 383 383 321
Width: 743
GlyphClass: 2
Flags: MW
LayerCount: 2
Fore
SplineSet
807 1325 m 0,0,1
 748 1325 748 1325 716.5 1286.5 c 128,-1,2
 685 1248 685 1248 674 1188 c 2,3,-1
 465 0 l 1,4,-1
 160 0 l 1,5,-1
 372 1200 l 2,6,7
 391 1307 391 1307 429 1377.5 c 128,-1,8
 467 1448 467 1448 522.5 1490 c 128,-1,9
 578 1532 578 1532 649 1549.5 c 128,-1,10
 720 1567 720 1567 804 1567 c 0,11,12
 897 1567 897 1567 957.5 1552.5 c 128,-1,13
 1018 1538 1018 1538 1059 1520 c 1,14,-1
 948 1296 l 1,15,16
 919 1307 919 1307 886.5 1316 c 128,-1,17
 854 1325 854 1325 807 1325 c 0,0,1
EndSplineSet
EndChar

StartChar: florin
Encoding: 402 402 322
Width: 1128
GlyphClass: 2
Flags: MW
LayerCount: 2
Fore
SplineSet
702 -121 m 2,0,1
 688 -198 688 -198 656.5 -265.5 c 128,-1,2
 625 -333 625 -333 572.5 -383.5 c 128,-1,3
 520 -434 520 -434 446 -463 c 128,-1,4
 372 -492 372 -492 273 -492 c 0,5,6
 225 -492 225 -492 175.5 -485 c 128,-1,7
 126 -478 126 -478 94 -467 c 1,8,-1
 136 -227 l 1,9,10
 165 -237 165 -237 191.5 -241.5 c 128,-1,11
 218 -246 218 -246 252 -246 c 0,12,13
 277 -246 277 -246 300.5 -238.5 c 128,-1,14
 324 -231 324 -231 345 -211.5 c 128,-1,15
 366 -192 366 -192 382 -159.5 c 128,-1,16
 398 -127 398 -127 407 -76 c 2,17,-1
 562 805 l 1,18,-1
 394 805 l 1,19,-1
 420 952 l 1,20,-1
 602 1034 l 1,21,-1
 617 1116 l 2,22,23
 636 1223 636 1223 674.5 1293.5 c 128,-1,24
 713 1364 713 1364 768 1406 c 128,-1,25
 823 1448 823 1448 894 1465.5 c 128,-1,26
 965 1483 965 1483 1049 1483 c 0,27,28
 1142 1483 1142 1483 1202.5 1468.5 c 128,-1,29
 1263 1454 1263 1454 1304 1436 c 1,30,-1
 1193 1212 l 1,31,32
 1164 1223 1164 1223 1131.5 1232 c 128,-1,33
 1099 1241 1099 1241 1053 1241 c 0,34,35
 993 1241 993 1241 961.5 1202.5 c 128,-1,36
 930 1164 930 1164 920 1104 c 2,37,-1
 907 1034 l 1,38,-1
 1134 1034 l 1,39,-1
 1094 805 l 1,40,-1
 867 805 l 1,41,-1
 702 -121 l 2,0,1
EndSplineSet
EndChar

StartChar: Ohorn
Encoding: 416 416 323
Width: 1608
GlyphClass: 2
Flags: MW
LayerCount: 2
Fore
SplineSet
1559 733 m 0,0,1
 1529 564 1529 564 1465 425 c 128,-1,2
 1401 286 1401 286 1303 187 c 128,-1,3
 1205 88 1205 88 1071.5 34 c 128,-1,4
 938 -20 938 -20 770 -20 c 256,5,6
 602 -20 602 -20 488.5 34 c 128,-1,7
 375 88 375 88 311.5 187 c 128,-1,8
 248 286 248 286 233.5 425.5 c 128,-1,9
 219 565 219 565 249 735 c 256,10,11
 279 905 279 905 342.5 1043.5 c 128,-1,12
 406 1182 406 1182 504.5 1280 c 128,-1,13
 603 1378 603 1378 736 1431.5 c 128,-1,14
 869 1485 869 1485 1038 1485 c 0,15,16
 1205 1485 1205 1485 1317.5 1432 c 128,-1,17
 1430 1379 1430 1379 1494 1282 c 1,18,19
 1542 1313 1542 1313 1576.5 1385 c 128,-1,20
 1611 1457 1611 1457 1628 1556 c 1,21,-1
 1929 1556 l 1,22,-1
 1939 1534 l 1,23,24
 1907 1450 1907 1450 1870.5 1382.5 c 128,-1,25
 1834 1315 1834 1315 1788.5 1262.5 c 128,-1,26
 1743 1210 1743 1210 1688 1171 c 128,-1,27
 1633 1132 1633 1132 1563 1106 c 1,28,29
 1596 944 1596 944 1559 733 c 0,0,1
567 733 m 256,30,31
 547 618 547 618 551 526.5 c 128,-1,32
 555 435 555 435 585 371.5 c 128,-1,33
 615 308 615 308 672 274 c 128,-1,34
 729 240 729 240 816 240 c 0,35,36
 905 240 905 240 974.5 274 c 128,-1,37
 1044 308 1044 308 1096 371.5 c 128,-1,38
 1148 435 1148 435 1183.5 526.5 c 128,-1,39
 1219 618 1219 618 1239 733 c 256,40,41
 1259 848 1259 848 1256 939.5 c 128,-1,42
 1253 1031 1253 1031 1223.5 1095 c 128,-1,43
 1194 1159 1194 1159 1137 1193 c 128,-1,44
 1080 1227 1080 1227 992 1227 c 0,45,46
 905 1227 905 1227 835 1193 c 128,-1,47
 765 1159 765 1159 712.5 1095 c 128,-1,48
 660 1031 660 1031 623.5 939.5 c 128,-1,49
 587 848 587 848 567 733 c 256,30,31
EndSplineSet
EndChar

StartChar: ohorn
Encoding: 417 417 324
Width: 1339
GlyphClass: 2
Flags: MW
LayerCount: 2
Fore
SplineSet
1223 561 m 0,0,1
 1198 421 1198 421 1143.5 313 c 128,-1,2
 1089 205 1089 205 1009.5 131 c 128,-1,3
 930 57 930 57 827.5 18.5 c 128,-1,4
 725 -20 725 -20 606 -20 c 0,5,6
 495 -20 495 -20 409 18.5 c 128,-1,7
 323 57 323 57 268.5 131 c 128,-1,8
 214 205 214 205 195 313 c 128,-1,9
 176 421 176 421 201 561 c 0,10,11
 226 700 226 700 280.5 808 c 128,-1,12
 335 916 335 916 414 989.5 c 128,-1,13
 493 1063 493 1063 595 1101 c 128,-1,14
 697 1139 697 1139 817 1139 c 0,15,16
 924 1139 924 1139 1008 1104.5 c 128,-1,17
 1092 1070 1092 1070 1146 1001 c 1,18,19
 1186 1013 1186 1013 1218.5 1039 c 128,-1,20
 1251 1065 1251 1065 1276 1102 c 128,-1,21
 1301 1139 1301 1139 1318 1185.5 c 128,-1,22
 1335 1232 1335 1232 1345 1286 c 1,23,-1
 1646 1286 l 1,24,-1
 1657 1264 l 1,25,26
 1629 1189 1629 1189 1593.5 1123 c 128,-1,27
 1558 1057 1558 1057 1508 1002 c 128,-1,28
 1458 947 1458 947 1388.5 905.5 c 128,-1,29
 1319 864 1319 864 1221 840 c 1,30,31
 1235 780 1235 780 1236 711 c 128,-1,32
 1237 642 1237 642 1223 561 c 0,0,1
513 561 m 256,33,34
 484 394 484 394 516 309.5 c 128,-1,35
 548 225 548 225 654 225 c 0,36,37
 759 225 759 225 821 310 c 128,-1,38
 883 395 883 395 912 561 c 0,39,40
 941 728 941 728 908.5 810.5 c 128,-1,41
 876 893 876 893 769 893 c 0,42,43
 664 893 664 893 603 810.5 c 128,-1,44
 542 728 542 728 513 561 c 256,33,34
EndSplineSet
EndChar

StartChar: Uhorn
Encoding: 431 431 325
Width: 1628
GlyphClass: 2
Flags: MW
LayerCount: 2
Fore
SplineSet
1550 1462 m 1,0,-1
 1517 1274 l 1,1,2
 1596 1300 1596 1300 1644 1375 c 128,-1,3
 1692 1450 1692 1450 1710 1556 c 1,4,-1
 2011 1556 l 1,5,-1
 2021 1534 l 1,6,7
 1989 1451 1989 1451 1949 1378 c 128,-1,8
 1909 1305 1909 1305 1848 1247 c 128,-1,9
 1787 1189 1787 1189 1699 1148.5 c 128,-1,10
 1611 1108 1611 1108 1484 1090 c 1,11,-1
 1383 516 l 2,12,13
 1363 402 1363 402 1311 304 c 128,-1,14
 1259 206 1259 206 1176 134 c 128,-1,15
 1093 62 1093 62 979.5 21 c 128,-1,16
 866 -20 866 -20 723 -20 c 0,17,18
 588 -20 588 -20 491.5 18.5 c 128,-1,19
 395 57 395 57 338 128 c 128,-1,20
 281 199 281 199 262.5 298.5 c 128,-1,21
 244 398 244 398 266 520 c 2,22,-1
 432 1462 l 1,23,-1
 741 1462 l 1,24,-1
 579 543 l 2,25,26
 565 462 565 462 570.5 404.5 c 128,-1,27
 576 347 576 347 601 310.5 c 128,-1,28
 626 274 626 274 670 257 c 128,-1,29
 714 240 714 240 777 240 c 0,30,31
 908 240 908 240 980 316 c 128,-1,32
 1052 392 1052 392 1079 545 c 2,33,-1
 1241 1462 l 1,34,-1
 1550 1462 l 1,0,-1
EndSplineSet
EndChar

StartChar: uhorn
Encoding: 432 432 326
Width: 1495
GlyphClass: 2
Flags: MW
LayerCount: 2
Fore
SplineSet
891 0 m 1,0,-1
 875 143 l 1,1,-1
 859 143 l 1,2,3
 826 100 826 100 786.5 69.5 c 128,-1,4
 747 39 747 39 702.5 19 c 128,-1,5
 658 -1 658 -1 610 -10.5 c 128,-1,6
 562 -20 562 -20 514 -20 c 0,7,8
 432 -20 432 -20 369.5 3.5 c 128,-1,9
 307 27 307 27 267.5 77 c 128,-1,10
 228 127 228 127 216 204 c 128,-1,11
 204 281 204 281 223 389 c 2,12,-1
 351 1118 l 1,13,-1
 656 1118 l 1,14,-1
 541 465 l 2,15,16
 520 344 520 344 545.5 283.5 c 128,-1,17
 571 223 571 223 651 223 c 0,18,19
 711 223 711 223 755.5 247 c 128,-1,20
 800 271 800 271 831.5 318 c 128,-1,21
 863 365 863 365 885.5 434 c 128,-1,22
 908 503 908 503 923 592 c 2,23,-1
 1016 1118 l 1,24,-1
 1321 1118 l 1,25,-1
 1301 1001 l 1,26,27
 1342 1013 1342 1013 1374.5 1039 c 128,-1,28
 1407 1065 1407 1065 1432 1102 c 128,-1,29
 1457 1139 1457 1139 1474 1185.5 c 128,-1,30
 1491 1232 1491 1232 1501 1286 c 1,31,-1
 1802 1286 l 1,32,-1
 1812 1264 l 1,33,34
 1780 1180 1780 1180 1739.5 1106.5 c 128,-1,35
 1699 1033 1699 1033 1637.5 974.5 c 128,-1,36
 1576 916 1576 916 1486.5 875.5 c 128,-1,37
 1397 835 1397 835 1268 817 c 1,38,-1
 1124 0 l 1,39,-1
 891 0 l 1,0,-1
EndSplineSet
EndChar

StartChar: Aringacute
Encoding: 506 506 328
Width: 1331
GlyphClass: 2
Flags: MW
LayerCount: 2
Fore
SplineSet
1176 1462 m 0,0,1
 1168 1417 1168 1417 1148.5 1380.5 c 128,-1,2
 1129 1344 1129 1344 1102 1315 c 1,3,-1
 1331 0 l 1,4,-1
 1018 0 l 1,5,-1
 971 330 l 1,6,-1
 474 330 l 1,7,-1
 313 0 l 1,8,-1
 0 0 l 1,9,-1
 691 1315 l 1,10,11
 658 1373 658 1373 673 1460 c 0,12,13
 683 1516 683 1516 709 1560 c 128,-1,14
 735 1604 735 1604 773 1634.5 c 128,-1,15
 811 1665 811 1665 859.5 1681.5 c 128,-1,16
 908 1698 908 1698 963 1698 c 0,17,18
 1016 1698 1016 1698 1059.5 1681.5 c 128,-1,19
 1103 1665 1103 1665 1132 1634.5 c 128,-1,20
 1161 1604 1161 1604 1173.5 1560.5 c 128,-1,21
 1186 1517 1186 1517 1176 1462 c 0,0,1
950 590 m 1,22,-1
 907 879 l 2,23,24
 904 894 904 894 898.5 931.5 c 128,-1,25
 893 969 893 969 887.5 1013.5 c 128,-1,26
 882 1058 882 1058 877.5 1102.5 c 128,-1,27
 873 1147 873 1147 874 1178 c 1,28,29
 867 1159 867 1159 855.5 1131.5 c 128,-1,30
 844 1104 844 1104 830 1074.5 c 128,-1,31
 816 1045 816 1045 801.5 1014 c 128,-1,32
 787 983 787 983 774.5 956.5 c 128,-1,33
 762 930 762 930 752 909.5 c 128,-1,34
 742 889 742 889 737 879 c 2,35,-1
 593 590 l 1,36,-1
 950 590 l 1,22,-1
881 1917 m 5,37,-1
 884 1933 l 5,38,39
 909 1953 909 1953 937 1977 c 132,-1,40
 965 2001 965 2001 993 2027 c 132,-1,41
 1021 2053 1021 2053 1046.5 2078.5 c 132,-1,42
 1072 2104 1072 2104 1092 2126 c 5,43,-1
 1434 2126 l 5,44,-1
 1432 2114 l 5,45,46
 1413 2096 1413 2096 1370 2070 c 132,-1,47
 1327 2044 1327 2044 1276 2015.5 c 132,-1,48
 1225 1987 1225 1987 1173 1961 c 132,-1,49
 1121 1935 1121 1935 1083 1917 c 5,50,-1
 881 1917 l 5,37,-1
1017 1460 m 0,51,52
 1025 1505 1025 1505 1002.5 1530.5 c 128,-1,53
 980 1556 980 1556 938 1556 c 256,54,55
 896 1556 896 1556 864 1530.5 c 128,-1,56
 832 1505 832 1505 824 1460 c 0,57,58
 816 1417 816 1417 833.5 1391.5 c 128,-1,59
 851 1366 851 1366 894 1364 c 2,60,-1
 913 1364 l 2,61,62
 951 1366 951 1366 980 1391.5 c 128,-1,63
 1009 1417 1009 1417 1017 1460 c 0,51,52
EndSplineSet
EndChar

StartChar: aringacute
Encoding: 507 507 329
Width: 1176
GlyphClass: 2
Flags: MW
LayerCount: 2
Fore
SplineSet
774 1829 m 1,0,-1
 776 1845 l 1,1,2
 801 1865 801 1865 829 1889 c 128,-1,3
 857 1913 857 1913 885 1939 c 128,-1,4
 913 1965 913 1965 938.5 1990.5 c 128,-1,5
 964 2016 964 2016 984 2038 c 1,6,-1
 1326 2038 l 1,7,-1
 1324 2026 l 1,8,9
 1305 2008 1305 2008 1262.5 1982 c 128,-1,10
 1220 1956 1220 1956 1168.5 1927.5 c 128,-1,11
 1117 1899 1117 1899 1065.5 1873 c 128,-1,12
 1014 1847 1014 1847 976 1829 c 1,13,-1
 774 1829 l 1,0,-1
809 0 m 1,14,-1
 777 152 l 1,15,-1
 768 152 l 1,16,17
 727 107 727 107 688 74.5 c 128,-1,18
 649 42 649 42 606.5 21 c 128,-1,19
 564 0 564 0 513.5 -10 c 128,-1,20
 463 -20 463 -20 399 -20 c 0,21,22
 331 -20 331 -20 277 1.5 c 128,-1,23
 223 23 223 23 188 66.5 c 128,-1,24
 153 110 153 110 141 176.5 c 128,-1,25
 129 243 129 243 145 334 c 0,26,27
 176 512 176 512 305 596.5 c 128,-1,28
 434 681 434 681 663 690 c 2,29,-1
 842 696 l 1,30,-1
 857 780 l 2,31,32
 869 849 869 849 834.5 882 c 128,-1,33
 800 915 800 915 728 915 c 256,34,35
 656 915 656 915 584 894 c 128,-1,36
 512 873 512 873 437 838 c 1,37,-1
 373 1040 l 1,38,39
 465 1087 465 1087 572 1114 c 128,-1,40
 679 1141 679 1141 791 1141 c 0,41,42
 1000 1141 1000 1141 1094.5 1043 c 128,-1,43
 1189 945 1189 945 1153 745 c 2,44,-1
 1022 0 l 1,45,-1
 809 0 l 1,14,-1
810 518 m 1,46,-1
 709 514 l 2,47,48
 648 512 648 512 603 498 c 128,-1,49
 558 484 558 484 528.5 460.5 c 128,-1,50
 499 437 499 437 482 404.5 c 128,-1,51
 465 372 465 372 458 332 c 0,52,53
 446 262 446 262 474.5 232.5 c 128,-1,54
 503 203 503 203 558 203 c 0,55,56
 600 203 600 203 638.5 217.5 c 128,-1,57
 677 232 677 232 708.5 260.5 c 128,-1,58
 740 289 740 289 762.5 330.5 c 128,-1,59
 785 372 785 372 794 426 c 2,60,-1
 810 518 l 1,46,-1
1096 1438 m 0,61,62
 1086 1382 1086 1382 1058.5 1337.5 c 128,-1,63
 1031 1293 1031 1293 991 1262 c 128,-1,64
 951 1231 951 1231 902 1214.5 c 128,-1,65
 853 1198 853 1198 799 1198 c 0,66,67
 744 1198 744 1198 701 1214.5 c 128,-1,68
 658 1231 658 1231 631 1261.5 c 128,-1,69
 604 1292 604 1292 594 1336.5 c 128,-1,70
 584 1381 584 1381 593 1436 c 256,71,72
 603 1491 603 1491 628.5 1535 c 128,-1,73
 654 1579 654 1579 692 1609.5 c 128,-1,74
 730 1640 730 1640 779 1656.5 c 128,-1,75
 828 1673 828 1673 883 1673 c 0,76,77
 936 1673 936 1673 979 1656.5 c 128,-1,78
 1022 1640 1022 1640 1051 1609.5 c 128,-1,79
 1080 1579 1080 1579 1093 1535.5 c 128,-1,80
 1106 1492 1106 1492 1096 1438 c 0,61,62
937 1436 m 256,81,82
 945 1481 945 1481 922.5 1506.5 c 128,-1,83
 900 1532 900 1532 858 1532 c 256,84,85
 816 1532 816 1532 784.5 1506.5 c 128,-1,86
 753 1481 753 1481 745 1436 c 256,87,88
 737 1391 737 1391 756.5 1365 c 128,-1,89
 776 1339 776 1339 824 1339 c 0,90,91
 866 1339 866 1339 897.5 1365 c 128,-1,92
 929 1391 929 1391 937 1436 c 256,81,82
EndSplineSet
EndChar

StartChar: circumflex
Encoding: 710 710 339
Width: 1182
Flags: MW
LayerCount: 2
Fore
SplineSet
1020 1241 m 1,0,1
 975 1275 975 1275 927.5 1318 c 128,-1,2
 880 1361 880 1361 838 1417 c 1,3,4
 774 1361 774 1361 714.5 1318 c 128,-1,5
 655 1275 655 1275 598 1241 c 1,6,-1
 395 1241 l 1,7,-1
 400 1268 l 1,8,9
 431 1297 431 1297 469 1335 c 128,-1,10
 507 1373 507 1373 546.5 1413.5 c 128,-1,11
 586 1454 586 1454 623.5 1494.5 c 128,-1,12
 661 1535 661 1535 689 1569 c 1,13,-1
 1045 1569 l 1,14,15
 1060 1535 1060 1535 1082.5 1494.5 c 128,-1,16
 1105 1454 1105 1454 1130.5 1413.5 c 128,-1,17
 1156 1373 1156 1373 1182 1335 c 128,-1,18
 1208 1297 1208 1297 1228 1268 c 1,19,-1
 1223 1241 l 1,20,-1
 1020 1241 l 1,0,1
EndSplineSet
EndChar

StartChar: caron
Encoding: 711 711 340
Width: 1182
Flags: MW
LayerCount: 2
Fore
SplineSet
1276 1542 m 1,0,1
 1246 1513 1246 1513 1206.5 1475 c 128,-1,2
 1167 1437 1167 1437 1127.5 1396.5 c 128,-1,3
 1088 1356 1088 1356 1051 1316 c 128,-1,4
 1014 1276 1014 1276 987 1241 c 1,5,-1
 631 1241 l 1,6,7
 615 1276 615 1276 592 1316 c 128,-1,8
 569 1356 569 1356 543.5 1396.5 c 128,-1,9
 518 1437 518 1437 493.5 1475 c 128,-1,10
 469 1513 469 1513 448 1542 c 1,11,-1
 453 1569 l 1,12,-1
 656 1569 l 1,13,14
 701 1535 701 1535 745 1491.5 c 128,-1,15
 789 1448 789 1448 834 1393 c 1,16,17
 896 1448 896 1448 958.5 1491.5 c 128,-1,18
 1021 1535 1021 1535 1078 1569 c 1,19,-1
 1281 1569 l 1,20,-1
 1276 1542 l 1,0,1
EndSplineSet
EndChar

StartChar: macron
Encoding: 713 713 341
Width: 1141
Flags: MW
LayerCount: 2
Fore
SplineSet
518 1452 m 1,0,-1
 1135 1452 l 1,1,-1
 1098 1241 l 1,2,-1
 481 1241 l 1,3,-1
 518 1452 l 1,0,-1
EndSplineSet
EndChar

StartChar: breve
Encoding: 728 728 342
Width: 1182
Flags: MW
LayerCount: 2
Fore
SplineSet
1230 1579 m 1,0,1
 1212 1504 1212 1504 1175 1442 c 128,-1,2
 1138 1380 1138 1380 1084.5 1335.5 c 128,-1,3
 1031 1291 1031 1291 960.5 1266 c 128,-1,4
 890 1241 890 1241 805 1241 c 0,5,6
 717 1241 717 1241 655 1265 c 128,-1,7
 593 1289 593 1289 557 1333 c 128,-1,8
 521 1377 521 1377 508.5 1439.5 c 128,-1,9
 496 1502 496 1502 505 1579 c 1,10,-1
 675 1579 l 1,11,12
 671 1536 671 1536 681 1511 c 128,-1,13
 691 1486 691 1486 713 1473.5 c 128,-1,14
 735 1461 735 1461 767.5 1457.5 c 128,-1,15
 800 1454 800 1454 844 1454 c 0,16,17
 880 1454 880 1454 913.5 1458.5 c 128,-1,18
 947 1463 947 1463 975 1476.5 c 128,-1,19
 1003 1490 1003 1490 1024 1514.5 c 128,-1,20
 1045 1539 1045 1539 1056 1579 c 1,21,-1
 1230 1579 l 1,0,1
EndSplineSet
EndChar

StartChar: dotaccent
Encoding: 729 729 343
Width: 625
Flags: MW
LayerCount: 2
Fore
SplineSet
395 1407 m 0,0,1
 403 1450 403 1450 421 1478.5 c 128,-1,2
 439 1507 439 1507 464.5 1524.5 c 128,-1,3
 490 1542 490 1542 521.5 1549 c 128,-1,4
 553 1556 553 1556 587 1556 c 256,5,6
 621 1556 621 1556 650 1549 c 128,-1,7
 679 1542 679 1542 698.5 1524.5 c 128,-1,8
 718 1507 718 1507 726.5 1478.5 c 128,-1,9
 735 1450 735 1450 727 1407 c 0,10,11
 720 1365 720 1365 701 1336 c 128,-1,12
 682 1307 682 1307 656.5 1289.5 c 128,-1,13
 631 1272 631 1272 600 1264.5 c 128,-1,14
 569 1257 569 1257 535 1257 c 256,15,16
 501 1257 501 1257 471.5 1264.5 c 128,-1,17
 442 1272 442 1272 422.5 1289.5 c 128,-1,18
 403 1307 403 1307 395.5 1336 c 128,-1,19
 388 1365 388 1365 395 1407 c 0,0,1
EndSplineSet
EndChar

StartChar: ring
Encoding: 730 730 344
Width: 1182
Flags: MW
LayerCount: 2
Fore
SplineSet
1103 1479 m 0,0,1
 1093 1423 1093 1423 1065.5 1378.5 c 128,-1,2
 1038 1334 1038 1334 998 1303 c 128,-1,3
 958 1272 958 1272 909 1255.5 c 128,-1,4
 860 1239 860 1239 806 1239 c 0,5,6
 751 1239 751 1239 708 1255.5 c 128,-1,7
 665 1272 665 1272 638 1302.5 c 128,-1,8
 611 1333 611 1333 601 1377.5 c 128,-1,9
 591 1422 591 1422 600 1477 c 256,10,11
 610 1532 610 1532 636 1576 c 128,-1,12
 662 1620 662 1620 699.5 1650.5 c 128,-1,13
 737 1681 737 1681 786 1697.5 c 128,-1,14
 835 1714 835 1714 890 1714 c 0,15,16
 943 1714 943 1714 986 1697.5 c 128,-1,17
 1029 1681 1029 1681 1058.5 1650.5 c 128,-1,18
 1088 1620 1088 1620 1100.5 1576.5 c 128,-1,19
 1113 1533 1113 1533 1103 1479 c 0,0,1
944 1477 m 256,20,21
 952 1522 952 1522 929.5 1547.5 c 128,-1,22
 907 1573 907 1573 865 1573 c 256,23,24
 823 1573 823 1573 791.5 1547.5 c 128,-1,25
 760 1522 760 1522 752 1477 c 256,26,27
 744 1432 744 1432 763.5 1406 c 128,-1,28
 783 1380 783 1380 831 1380 c 0,29,30
 873 1380 873 1380 904.5 1406 c 128,-1,31
 936 1432 936 1432 944 1477 c 256,20,21
EndSplineSet
EndChar

StartChar: ogonek
Encoding: 731 731 345
Width: 422
Flags: MW
LayerCount: 2
Fore
SplineSet
181 -227 m 0,0,1
 174 -269 174 -269 193 -289 c 128,-1,2
 212 -309 212 -309 247 -309 c 0,3,4
 279 -309 279 -309 311.5 -303 c 128,-1,5
 344 -297 344 -297 365 -291 c 1,6,-1
 333 -469 l 1,7,8
 299 -478 299 -478 261 -485 c 128,-1,9
 223 -492 223 -492 173 -492 c 0,10,11
 115 -492 115 -492 72 -475 c 128,-1,12
 29 -458 29 -458 2 -427.5 c 128,-1,13
 -25 -397 -25 -397 -35 -355 c 128,-1,14
 -45 -313 -45 -313 -36 -262 c 0,15,16
 -28 -219 -28 -219 -8 -183 c 128,-1,17
 12 -147 12 -147 42 -115.5 c 128,-1,18
 72 -84 72 -84 110 -56 c 128,-1,19
 148 -28 148 -28 190 0 c 1,20,-1
 369 0 l 1,21,22
 287 -66 287 -66 238.5 -120.5 c 128,-1,23
 190 -175 190 -175 181 -227 c 0,0,1
EndSplineSet
EndChar

StartChar: tilde
Encoding: 732 732 346
Width: 1182
Flags: MW
LayerCount: 2
Fore
SplineSet
663 1346 m 0,0,1
 632 1346 632 1346 609 1319.5 c 128,-1,2
 586 1293 586 1293 564 1239 c 1,3,-1
 415 1239 l 1,4,5
 435 1319 435 1319 465.5 1377 c 128,-1,6
 496 1435 496 1435 535 1473 c 128,-1,7
 574 1511 574 1511 621.5 1529.5 c 128,-1,8
 669 1548 669 1548 722 1548 c 0,9,10
 763 1548 763 1548 799 1532 c 128,-1,11
 835 1516 835 1516 870 1496.5 c 128,-1,12
 905 1477 905 1477 940 1460.5 c 128,-1,13
 975 1444 975 1444 1011 1444 c 0,14,15
 1042 1444 1042 1444 1064.5 1470 c 128,-1,16
 1087 1496 1087 1496 1109 1550 c 1,17,-1
 1258 1550 l 1,18,19
 1238 1471 1238 1471 1207.5 1413 c 128,-1,20
 1177 1355 1177 1355 1137 1316.5 c 128,-1,21
 1097 1278 1097 1278 1050.5 1259.5 c 128,-1,22
 1004 1241 1004 1241 952 1241 c 0,23,24
 912 1241 912 1241 875 1257.5 c 128,-1,25
 838 1274 838 1274 803.5 1293.5 c 128,-1,26
 769 1313 769 1313 734 1329.5 c 128,-1,27
 699 1346 699 1346 663 1346 c 0,0,1
EndSplineSet
EndChar

StartChar: hungarumlaut
Encoding: 733 733 347
Width: 1182
Flags: MW
LayerCount: 2
Fore
SplineSet
375 1241 m 1,0,-1
 380 1268 l 1,1,2
 406 1297 406 1297 436.5 1335 c 128,-1,3
 467 1373 467 1373 497.5 1413.5 c 128,-1,4
 528 1454 528 1454 556.5 1494.5 c 128,-1,5
 585 1535 585 1535 607 1569 c 1,6,-1
 908 1569 l 1,7,-1
 904 1548 l 1,8,9
 890 1530 890 1530 864.5 1505.5 c 128,-1,10
 839 1481 839 1481 807 1453 c 128,-1,11
 775 1425 775 1425 738.5 1395.5 c 128,-1,12
 702 1366 702 1366 666 1338 c 128,-1,13
 630 1310 630 1310 596 1285 c 128,-1,14
 562 1260 562 1260 536 1241 c 1,15,-1
 375 1241 l 1,0,-1
772 1241 m 1,16,-1
 777 1268 l 1,17,18
 803 1297 803 1297 833.5 1335 c 128,-1,19
 864 1373 864 1373 894.5 1413.5 c 128,-1,20
 925 1454 925 1454 953.5 1494.5 c 128,-1,21
 982 1535 982 1535 1004 1569 c 1,22,-1
 1305 1569 l 1,23,-1
 1301 1548 l 1,24,25
 1287 1530 1287 1530 1261.5 1505.5 c 128,-1,26
 1236 1481 1236 1481 1204 1453 c 128,-1,27
 1172 1425 1172 1425 1136 1395.5 c 128,-1,28
 1100 1366 1100 1366 1063.5 1338 c 128,-1,29
 1027 1310 1027 1310 993.5 1285 c 128,-1,30
 960 1260 960 1260 934 1241 c 1,31,-1
 772 1241 l 1,16,-1
EndSplineSet
EndChar

StartChar: uni02F3
Encoding: 755 755 348
Width: 682
Flags: MW
LayerCount: 2
Fore
SplineSet
527 -360 m 0,0,1
 517 -416 517 -416 489.5 -460.5 c 128,-1,2
 462 -505 462 -505 422 -536 c 128,-1,3
 382 -567 382 -567 333 -583.5 c 128,-1,4
 284 -600 284 -600 230 -600 c 0,5,6
 174 -600 174 -600 131.5 -583.5 c 128,-1,7
 89 -567 89 -567 62 -536.5 c 128,-1,8
 35 -506 35 -506 24.5 -462 c 128,-1,9
 14 -418 14 -418 24 -362 c 0,10,11
 34 -307 34 -307 59.5 -263 c 128,-1,12
 85 -219 85 -219 123 -188.5 c 128,-1,13
 161 -158 161 -158 209.5 -141.5 c 128,-1,14
 258 -125 258 -125 314 -125 c 0,15,16
 367 -125 367 -125 410 -141.5 c 128,-1,17
 453 -158 453 -158 482 -188.5 c 128,-1,18
 511 -219 511 -219 524 -262.5 c 128,-1,19
 537 -306 537 -306 527 -360 c 0,0,1
368 -362 m 256,20,21
 376 -317 376 -317 353.5 -291.5 c 128,-1,22
 331 -266 331 -266 289 -266 c 256,23,24
 247 -266 247 -266 215.5 -291.5 c 128,-1,25
 184 -317 184 -317 176 -362 c 256,26,27
 168 -407 168 -407 187.5 -433 c 128,-1,28
 207 -459 207 -459 255 -459 c 0,29,30
 297 -459 297 -459 328.5 -433 c 128,-1,31
 360 -407 360 -407 368 -362 c 256,20,21
EndSplineSet
EndChar

StartChar: hook
Encoding: 777 777 352
Width: 0
Flags: MW
LayerCount: 2
Fore
SplineSet
-90 1487 m 0,0,1
 -104 1409 -104 1409 -153.5 1359.5 c 128,-1,2
 -203 1310 -203 1310 -287 1290 c 1,3,-1
 -309 1219 l 1,4,-1
 -483 1219 l 1,5,-1
 -480 1366 l 1,6,7
 -403 1378 -403 1378 -371.5 1403.5 c 128,-1,8
 -340 1429 -340 1429 -334 1466 c 0,9,10
 -328 1498 -328 1498 -346 1515 c 128,-1,11
 -364 1532 -364 1532 -398 1532 c 0,12,13
 -438 1532 -438 1532 -472.5 1525.5 c 128,-1,14
 -507 1519 -507 1519 -541 1509 c 1,15,-1
 -511 1677 l 1,16,17
 -495 1682 -495 1682 -474.5 1686 c 128,-1,18
 -454 1690 -454 1690 -430.5 1693 c 128,-1,19
 -407 1696 -407 1696 -381 1698 c 128,-1,20
 -355 1700 -355 1700 -331 1700 c 0,21,22
 -191 1700 -191 1700 -131.5 1644.5 c 128,-1,23
 -72 1589 -72 1589 -90 1487 c 0,0,1
EndSplineSet
EndChar

StartChar: uni030F
Encoding: 783 783 353
Width: 0
Flags: MW
AnchorPoint: "Anchor-18" -342 1241 mark 0
LayerCount: 2
Fore
SplineSet
-223 1241 m 1,0,1
 -243 1259 -243 1259 -268 1284.5 c 128,-1,2
 -293 1310 -293 1310 -319 1338 c 128,-1,3
 -345 1366 -345 1366 -371.5 1395.5 c 128,-1,4
 -398 1425 -398 1425 -420 1453 c 128,-1,5
 -442 1481 -442 1481 -458.5 1505.5 c 128,-1,6
 -475 1530 -475 1530 -483 1548 c 1,7,-1
 -479 1569 l 1,8,-1
 -178 1569 l 1,9,10
 -168 1535 -168 1535 -154.5 1494.5 c 128,-1,11
 -141 1454 -141 1454 -124.5 1413.5 c 128,-1,12
 -108 1373 -108 1373 -90.5 1335 c 128,-1,13
 -73 1297 -73 1297 -57 1268 c 1,14,-1
 -62 1241 l 1,15,-1
 -223 1241 l 1,0,1
-621 1241 m 1,16,17
 -641 1259 -641 1259 -665.5 1284.5 c 128,-1,18
 -690 1310 -690 1310 -716.5 1338 c 128,-1,19
 -743 1366 -743 1366 -769 1395.5 c 128,-1,20
 -795 1425 -795 1425 -817 1453 c 128,-1,21
 -839 1481 -839 1481 -855.5 1505.5 c 128,-1,22
 -872 1530 -872 1530 -880 1548 c 1,23,-1
 -876 1569 l 1,24,-1
 -575 1569 l 1,25,26
 -565 1535 -565 1535 -551.5 1494.5 c 128,-1,27
 -538 1454 -538 1454 -521.5 1413.5 c 128,-1,28
 -505 1373 -505 1373 -487.5 1335 c 128,-1,29
 -470 1297 -470 1297 -454 1268 c 1,30,-1
 -459 1241 l 1,31,-1
 -621 1241 l 1,16,17
EndSplineSet
EndChar

StartChar: dotbelow
Encoding: 803 803 354
Width: 0
Flags: MW
AnchorPoint: "Anchor-3" -664 -131 mark 0
LayerCount: 2
Fore
SplineSet
-857 -281 m 0,0,1
 -849 -238 -849 -238 -831 -209 c 128,-1,2
 -813 -180 -813 -180 -787.5 -163 c 128,-1,3
 -762 -146 -762 -146 -730.5 -138.5 c 128,-1,4
 -699 -131 -699 -131 -664 -131 c 0,5,6
 -630 -131 -630 -131 -601.5 -138.5 c 128,-1,7
 -573 -146 -573 -146 -553.5 -163 c 128,-1,8
 -534 -180 -534 -180 -525.5 -209 c 128,-1,9
 -517 -238 -517 -238 -525 -281 c 0,10,11
 -532 -323 -532 -323 -550.5 -351.5 c 128,-1,12
 -569 -380 -569 -380 -594.5 -397.5 c 128,-1,13
 -620 -415 -620 -415 -651.5 -422.5 c 128,-1,14
 -683 -430 -683 -430 -717 -430 c 0,15,16
 -752 -430 -752 -430 -780.5 -422.5 c 128,-1,17
 -809 -415 -809 -415 -828.5 -397.5 c 128,-1,18
 -848 -380 -848 -380 -856 -351.5 c 128,-1,19
 -864 -323 -864 -323 -857 -281 c 0,0,1
EndSplineSet
EndChar

StartChar: tonos
Encoding: 900 900 355
Width: 1182
GlyphClass: 2
Flags: MW
LayerCount: 2
Fore
SplineSet
695 1268 m 1,0,1
 709 1298 709 1298 724.5 1336.5 c 128,-1,2
 740 1375 740 1375 756 1415.5 c 128,-1,3
 772 1456 772 1456 785.5 1496 c 128,-1,4
 799 1536 799 1536 809 1569 c 1,5,-1
 1092 1569 l 1,6,-1
 1088 1548 l 1,7,8
 1045 1480 1045 1480 990 1401.5 c 128,-1,9
 935 1323 935 1323 868 1241 c 1,10,-1
 690 1241 l 1,11,-1
 695 1268 l 1,0,1
EndSplineSet
EndChar

StartChar: dieresistonos
Encoding: 901 901 356
Width: 1182
GlyphClass: 2
Flags: MW
LayerCount: 2
Fore
SplineSet
431 1390 m 0,0,1
 444 1461 444 1461 485 1493 c 128,-1,2
 526 1525 526 1525 584 1525 c 0,3,4
 641 1525 641 1525 672.5 1493 c 128,-1,5
 704 1461 704 1461 691 1390 c 0,6,7
 679 1322 679 1322 636.5 1289.5 c 128,-1,8
 594 1257 594 1257 537 1257 c 0,9,10
 479 1257 479 1257 449 1289.5 c 128,-1,11
 419 1322 419 1322 431 1390 c 0,0,1
978 1390 m 0,12,13
 991 1461 991 1461 1032 1493 c 128,-1,14
 1073 1525 1073 1525 1133 1525 c 0,15,16
 1190 1525 1190 1525 1221.5 1493 c 128,-1,17
 1253 1461 1253 1461 1240 1390 c 0,18,19
 1228 1322 1228 1322 1185.5 1289.5 c 128,-1,20
 1143 1257 1143 1257 1086 1257 c 0,21,22
 1026 1257 1026 1257 996 1289.5 c 128,-1,23
 966 1322 966 1322 978 1390 c 0,12,13
734 1400 m 1,24,25
 748 1430 748 1430 764 1468.5 c 128,-1,26
 780 1507 780 1507 795.5 1547.5 c 128,-1,27
 811 1588 811 1588 825 1628 c 128,-1,28
 839 1668 839 1668 849 1701 c 1,29,-1
 1111 1701 l 1,30,-1
 1107 1681 l 1,31,32
 1064 1613 1064 1613 1001 1533.5 c 128,-1,33
 938 1454 938 1454 867 1374 c 1,34,-1
 729 1374 l 1,35,-1
 734 1400 l 1,24,25
EndSplineSet
EndChar

StartChar: Gamma
Encoding: 915 915 368
Width: 1067
GlyphClass: 2
Flags: MW
LayerCount: 2
Fore
SplineSet
1284 1462 m 1,0,-1
 1239 1206 l 1,1,-1
 707 1206 l 1,2,-1
 494 0 l 1,3,-1
 184 0 l 1,4,-1
 442 1462 l 1,5,-1
 1284 1462 l 1,0,-1
EndSplineSet
EndChar

StartChar: Theta
Encoding: 920 920 373
Width: 1548
GlyphClass: 2
Flags: MW
LayerCount: 2
Fore
SplineSet
1146 870 m 1,0,-1
 1102 616 l 1,1,-1
 664 616 l 1,2,-1
 708 870 l 1,3,-1
 1146 870 l 1,0,-1
1559 733 m 0,4,5
 1529 564 1529 564 1465 425 c 128,-1,6
 1401 286 1401 286 1303 187 c 128,-1,7
 1205 88 1205 88 1071.5 34 c 128,-1,8
 938 -20 938 -20 770 -20 c 256,9,10
 602 -20 602 -20 488.5 34 c 128,-1,11
 375 88 375 88 311.5 187 c 128,-1,12
 248 286 248 286 233.5 425.5 c 128,-1,13
 219 565 219 565 249 735 c 256,14,15
 279 905 279 905 342.5 1043.5 c 128,-1,16
 406 1182 406 1182 504.5 1280 c 128,-1,17
 603 1378 603 1378 736 1431.5 c 128,-1,18
 869 1485 869 1485 1038 1485 c 0,19,20
 1206 1485 1206 1485 1319.5 1431.5 c 128,-1,21
 1433 1378 1433 1378 1496 1279.5 c 128,-1,22
 1559 1181 1559 1181 1574 1042.5 c 128,-1,23
 1589 904 1589 904 1559 733 c 0,4,5
567 733 m 256,24,25
 547 618 547 618 551 526.5 c 128,-1,26
 555 435 555 435 585 371.5 c 128,-1,27
 615 308 615 308 672 274 c 128,-1,28
 729 240 729 240 816 240 c 0,29,30
 905 240 905 240 974.5 274 c 128,-1,31
 1044 308 1044 308 1096 371.5 c 128,-1,32
 1148 435 1148 435 1183.5 526.5 c 128,-1,33
 1219 618 1219 618 1239 733 c 256,34,35
 1259 848 1259 848 1256 939.5 c 128,-1,36
 1253 1031 1253 1031 1223.5 1095 c 128,-1,37
 1194 1159 1194 1159 1137 1193 c 128,-1,38
 1080 1227 1080 1227 992 1227 c 0,39,40
 905 1227 905 1227 835 1193 c 128,-1,41
 765 1159 765 1159 712.5 1095 c 128,-1,42
 660 1031 660 1031 623.5 939.5 c 128,-1,43
 587 848 587 848 567 733 c 256,24,25
EndSplineSet
EndChar

StartChar: Lambda
Encoding: 923 923 376
Width: 1249
GlyphClass: 2
Flags: MW
LayerCount: 2
Fore
SplineSet
847 881 m 2,0,1
 845 899 845 899 843 939 c 128,-1,2
 841 979 841 979 839 1026.5 c 128,-1,3
 837 1074 837 1074 836.5 1121.5 c 128,-1,4
 836 1169 836 1169 837 1202 c 1,5,6
 826 1169 826 1169 808.5 1121 c 128,-1,7
 791 1073 791 1073 773 1025.5 c 128,-1,8
 755 978 755 978 739.5 938 c 128,-1,9
 724 898 724 898 716 881 c 2,10,-1
 313 0 l 1,11,-1
 0 0 l 1,12,-1
 713 1462 l 1,13,-1
 1051 1462 l 1,14,-1
 1249 0 l 1,15,-1
 936 0 l 1,16,-1
 847 881 l 2,0,1
EndSplineSet
EndChar

StartChar: Xi
Encoding: 926 926 379
Width: 1087
GlyphClass: 2
Flags: MW
LayerCount: 2
Fore
SplineSet
361 887 m 1,0,-1
 1039 887 l 1,1,-1
 995 633 l 1,2,-1
 317 633 l 1,3,-1
 361 887 l 1,0,-1
381 1462 m 1,4,-1
 1223 1462 l 1,5,-1
 1178 1208 l 1,6,-1
 336 1208 l 1,7,-1
 381 1462 l 1,4,-1
1051 256 m 1,8,-1
 1006 0 l 1,9,-1
 82 0 l 1,10,-1
 127 256 l 1,11,-1
 1051 256 l 1,8,-1
EndSplineSet
EndChar

StartChar: Pi
Encoding: 928 928 381
Width: 1444
GlyphClass: 2
Flags: MW
LayerCount: 2
Fore
SplineSet
1260 0 m 1,0,-1
 950 0 l 1,1,-1
 1162 1204 l 1,2,-1
 706 1204 l 1,3,-1
 494 0 l 1,4,-1
 184 0 l 1,5,-1
 442 1462 l 1,6,-1
 1518 1462 l 1,7,-1
 1260 0 l 1,0,-1
EndSplineSet
EndChar

StartChar: Sigma
Encoding: 931 931 383
Width: 1133
GlyphClass: 2
Flags: MW
LayerCount: 2
Fore
SplineSet
78 0 m 1,0,-1
 121 244 l 1,1,-1
 647 766 l 1,2,-1
 306 1225 l 1,3,-1
 348 1462 l 1,4,-1
 1262 1462 l 1,5,-1
 1217 1208 l 1,6,-1
 827 1208 l 2,7,8
 809 1208 809 1208 776 1210 c 128,-1,9
 743 1212 743 1212 711 1214 c 0,10,11
 674 1217 674 1217 631 1219 c 1,12,-1
 969 768 l 1,13,-1
 436 244 l 1,14,15
 491 247 491 247 540 250 c 0,16,17
 561 251 561 251 583.5 252 c 128,-1,18
 606 253 606 253 626 254 c 128,-1,19
 646 255 646 255 663 255.5 c 128,-1,20
 680 256 680 256 692 256 c 2,21,-1
 1108 256 l 1,22,-1
 1063 0 l 1,23,-1
 78 0 l 1,0,-1
EndSplineSet
EndChar

StartChar: Phi
Encoding: 934 934 386
Width: 1679
GlyphClass: 2
Flags: MW
LayerCount: 2
Fore
SplineSet
1057 444 m 1,0,-1
 1069 444 l 2,1,2
 1146 444 1146 444 1207.5 468 c 128,-1,3
 1269 492 1269 492 1314.5 534.5 c 128,-1,4
 1360 577 1360 577 1389 635 c 128,-1,5
 1418 693 1418 693 1430 760 c 0,6,7
 1441 820 1441 820 1434 874.5 c 128,-1,8
 1427 929 1427 929 1399.5 970.5 c 128,-1,9
 1372 1012 1372 1012 1323.5 1036.5 c 128,-1,10
 1275 1061 1275 1061 1203 1061 c 2,11,-1
 1166 1061 l 1,12,-1
 1057 444 l 1,0,-1
696 -20 m 1,13,-1
 736 205 l 1,14,-1
 716 205 l 2,15,16
 606 205 606 205 524 229 c 128,-1,17
 442 253 442 253 384 294 c 128,-1,18
 326 335 326 335 289.5 390 c 128,-1,19
 253 445 253 445 235.5 506.5 c 128,-1,20
 218 568 218 568 216.5 632.5 c 128,-1,21
 215 697 215 697 226 758 c 0,22,23
 244 860 244 860 294 958 c 128,-1,24
 344 1056 344 1056 426 1132.5 c 128,-1,25
 508 1209 508 1209 622 1256 c 128,-1,26
 736 1303 736 1303 881 1303 c 2,27,-1
 930 1303 l 1,28,-1
 961 1483 l 1,29,-1
 1240 1483 l 1,30,-1
 1209 1303 l 1,31,-1
 1258 1303 l 2,32,33
 1403 1303 1403 1303 1500 1256 c 128,-1,34
 1597 1209 1597 1209 1652 1132.5 c 128,-1,35
 1707 1056 1707 1056 1723 958 c 128,-1,36
 1739 860 1739 860 1721 758 c 0,37,38
 1710 697 1710 697 1685.5 632.5 c 128,-1,39
 1661 568 1661 568 1621.5 506.5 c 128,-1,40
 1582 445 1582 445 1527 390 c 128,-1,41
 1472 335 1472 335 1399.5 294 c 128,-1,42
 1327 253 1327 253 1236 229 c 128,-1,43
 1145 205 1145 205 1035 205 c 2,44,-1
 1015 205 l 1,45,-1
 975 -20 l 1,46,-1
 696 -20 l 1,13,-1
887 1061 m 1,47,-1
 851 1061 l 2,48,49
 779 1061 779 1061 721.5 1036.5 c 128,-1,50
 664 1012 664 1012 622.5 970.5 c 128,-1,51
 581 929 581 929 554.5 874.5 c 128,-1,52
 528 820 528 820 517 760 c 0,53,54
 505 693 505 693 514 635 c 128,-1,55
 523 577 523 577 553.5 534.5 c 128,-1,56
 584 492 584 492 636.5 468 c 128,-1,57
 689 444 689 444 766 444 c 2,58,-1
 778 444 l 1,59,-1
 887 1061 l 1,47,-1
EndSplineSet
EndChar

StartChar: Psi
Encoding: 936 936 388
Width: 1712
GlyphClass: 2
Flags: MW
LayerCount: 2
Fore
SplineSet
1777 983 m 2,0,1
 1754 853 1754 853 1706 751.5 c 128,-1,2
 1658 650 1658 650 1578 580 c 128,-1,3
 1498 510 1498 510 1384.5 473 c 128,-1,4
 1271 436 1271 436 1119 436 c 2,5,-1
 1072 436 l 1,6,-1
 995 0 l 1,7,-1
 717 0 l 1,8,-1
 794 436 l 1,9,-1
 747 436 l 2,10,11
 595 436 595 436 494.5 472 c 128,-1,12
 394 508 394 508 339 577.5 c 128,-1,13
 284 647 284 647 271.5 748 c 128,-1,14
 259 849 259 849 282 979 c 2,15,-1
 367 1462 l 1,16,-1
 657 1462 l 1,17,-1
 572 983 l 2,18,19
 556 895 556 895 566 837.5 c 128,-1,20
 576 780 576 780 607 746.5 c 128,-1,21
 638 713 638 713 689.5 699.5 c 128,-1,22
 741 686 741 686 811 686 c 2,23,-1
 838 686 l 1,24,-1
 975 1462 l 1,25,-1
 1253 1462 l 1,26,-1
 1116 686 l 1,27,-1
 1143 686 l 2,28,29
 1205 686 1205 686 1260.5 698.5 c 128,-1,30
 1316 711 1316 711 1361 744 c 128,-1,31
 1406 777 1406 777 1438 834 c 128,-1,32
 1470 891 1470 891 1486 979 c 2,33,-1
 1571 1462 l 1,34,-1
 1862 1462 l 1,35,-1
 1777 983 l 2,0,1
EndSplineSet
EndChar

StartChar: uni03A9
Encoding: 937 937 389
Width: 1520
GlyphClass: 2
Flags: MW
LayerCount: 2
Fore
SplineSet
980 1227 m 256,0,1
 805 1227 805 1227 706 1120 c 128,-1,2
 607 1013 607 1013 570 807 c 0,3,4
 554 719 554 719 553.5 640.5 c 128,-1,5
 553 562 553 562 572.5 495.5 c 128,-1,6
 592 429 592 429 633 374.5 c 128,-1,7
 674 320 674 320 743 279 c 1,8,-1
 694 0 l 1,9,-1
 55 0 l 1,10,-1
 101 260 l 1,11,-1
 472 260 l 1,12,13
 408 304 408 304 360 366.5 c 128,-1,14
 312 429 312 429 284.5 507 c 128,-1,15
 257 585 257 585 251 677 c 128,-1,16
 245 769 245 769 263 872 c 0,17,18
 288 1011 288 1011 349.5 1124 c 128,-1,19
 411 1237 411 1237 508.5 1317.5 c 128,-1,20
 606 1398 606 1398 736 1441.5 c 128,-1,21
 866 1485 866 1485 1026 1485 c 0,22,23
 1187 1485 1187 1485 1301.5 1441.5 c 128,-1,24
 1416 1398 1416 1398 1484.5 1317.5 c 128,-1,25
 1553 1237 1553 1237 1575 1123.5 c 128,-1,26
 1597 1010 1597 1010 1572 870 c 0,27,28
 1554 767 1554 767 1515.5 675.5 c 128,-1,29
 1477 584 1477 584 1421.5 506.5 c 128,-1,30
 1366 429 1366 429 1296 367 c 128,-1,31
 1226 305 1226 305 1144 260 c 1,32,-1
 1519 260 l 1,33,-1
 1473 0 l 1,34,-1
 829 0 l 1,35,-1
 878 279 l 1,36,37
 962 319 962 319 1024 374 c 128,-1,38
 1086 429 1086 429 1129 496.5 c 128,-1,39
 1172 564 1172 564 1199.5 642.5 c 128,-1,40
 1227 721 1227 721 1243 809 c 0,41,42
 1279 1013 1279 1013 1217 1120 c 128,-1,43
 1155 1227 1155 1227 980 1227 c 256,0,1
EndSplineSet
EndChar

StartChar: alpha
Encoding: 945 945 397
Width: 1274
GlyphClass: 2
Flags: MW
LayerCount: 2
Fore
SplineSet
641 223 m 0,0,1
 696 223 696 223 737 242 c 128,-1,2
 778 261 778 261 808 300.5 c 128,-1,3
 838 340 838 340 859.5 400.5 c 128,-1,4
 881 461 881 461 897 545 c 2,5,-1
 899 557 l 2,6,7
 913 638 913 638 915 701 c 128,-1,8
 917 764 917 764 901 806.5 c 128,-1,9
 885 849 885 849 850 871 c 128,-1,10
 815 893 815 893 757 893 c 0,11,12
 661 893 661 893 601 806.5 c 128,-1,13
 541 720 541 720 512 553 c 0,14,15
 483 388 483 388 513.5 305.5 c 128,-1,16
 544 223 544 223 641 223 c 0,0,1
502 -20 m 0,17,18
 411 -20 411 -20 343.5 17 c 128,-1,19
 276 54 276 54 235.5 126.5 c 128,-1,20
 195 199 195 199 185 306.5 c 128,-1,21
 175 414 175 414 200 555 c 0,22,23
 225 698 225 698 273.5 806.5 c 128,-1,24
 322 915 322 915 390.5 988.5 c 128,-1,25
 459 1062 459 1062 544.5 1099.5 c 128,-1,26
 630 1137 630 1137 728 1137 c 0,27,28
 783 1137 783 1137 826 1126.5 c 128,-1,29
 869 1116 869 1116 901 1095 c 128,-1,30
 933 1074 933 1074 956 1042.5 c 128,-1,31
 979 1011 979 1011 996 969 c 1,32,-1
 1009 969 l 1,33,34
 1024 1004 1024 1004 1048 1045.5 c 128,-1,35
 1072 1087 1072 1087 1102 1118 c 1,36,-1
 1354 1118 l 1,37,38
 1336 1085 1336 1085 1315 1036 c 128,-1,39
 1294 987 1294 987 1273 927.5 c 128,-1,40
 1252 868 1252 868 1233 801 c 128,-1,41
 1214 734 1214 734 1202 666 c 2,42,-1
 1147 354 l 2,43,44
 1141 320 1141 320 1144 297 c 128,-1,45
 1147 274 1147 274 1156.5 260.5 c 128,-1,46
 1166 247 1166 247 1180 241.5 c 128,-1,47
 1194 236 1194 236 1211 236 c 0,48,49
 1225 236 1225 236 1244.5 239.5 c 128,-1,50
 1264 243 1264 243 1272 246 c 1,51,-1
 1230 6 l 1,52,53
 1221 2 1221 2 1204.5 -3 c 128,-1,54
 1188 -8 1188 -8 1167.5 -11.5 c 128,-1,55
 1147 -15 1147 -15 1126 -17.5 c 128,-1,56
 1105 -20 1105 -20 1088 -20 c 0,57,58
 1036 -20 1036 -20 996.5 -12 c 128,-1,59
 957 -4 957 -4 928 15.5 c 128,-1,60
 899 35 899 35 880.5 67 c 128,-1,61
 862 99 862 99 853 147 c 1,62,-1
 835 147 l 1,63,64
 808 113 808 113 774 82.5 c 128,-1,65
 740 52 740 52 699.5 29 c 128,-1,66
 659 6 659 6 610 -7 c 128,-1,67
 561 -20 561 -20 502 -20 c 0,17,18
EndSplineSet
EndChar

StartChar: beta
Encoding: 946 946 398
Width: 1290
GlyphClass: 2
Flags: MW
LayerCount: 2
Fore
SplineSet
940 1567 m 0,0,1
 1043 1567 1043 1567 1126 1542.5 c 128,-1,2
 1209 1518 1209 1518 1263.5 1469 c 128,-1,3
 1318 1420 1318 1420 1340.5 1346 c 128,-1,4
 1363 1272 1363 1272 1346 1174 c 0,5,6
 1320 1025 1320 1025 1228 938.5 c 128,-1,7
 1136 852 1136 852 992 829 c 1,8,-1
 991 823 l 1,9,10
 1076 813 1076 813 1140 785 c 128,-1,11
 1204 757 1204 757 1244 710 c 128,-1,12
 1284 663 1284 663 1298 594 c 128,-1,13
 1312 525 1312 525 1295 432 c 0,14,15
 1276 324 1276 324 1229.5 240 c 128,-1,16
 1183 156 1183 156 1113 98.5 c 128,-1,17
 1043 41 1043 41 954 10.5 c 128,-1,18
 865 -20 865 -20 762 -20 c 0,19,20
 671 -20 671 -20 597.5 -4 c 128,-1,21
 524 12 524 12 473 43 c 1,22,-1
 378 -492 l 1,23,-1
 73 -492 l 1,24,-1
 353 1096 l 2,25,26
 375 1219 375 1219 429 1308 c 128,-1,27
 483 1397 483 1397 561 1454.5 c 128,-1,28
 639 1512 639 1512 735.5 1539.5 c 128,-1,29
 832 1567 832 1567 940 1567 c 0,0,1
889 1329 m 0,30,31
 850 1329 850 1329 813.5 1317 c 128,-1,32
 777 1305 777 1305 746 1275.5 c 128,-1,33
 715 1246 715 1246 691 1195.5 c 128,-1,34
 667 1145 667 1145 653 1067 c 2,35,-1
 517 293 l 1,36,37
 536 277 536 277 561 264 c 128,-1,38
 586 251 586 251 613.5 242 c 128,-1,39
 641 233 641 233 668.5 228 c 128,-1,40
 696 223 696 223 721 223 c 0,41,42
 833 223 833 223 898.5 285 c 128,-1,43
 964 347 964 347 984 459 c 0,44,45
 995 522 995 522 982 565 c 128,-1,46
 969 608 969 608 938.5 634.5 c 128,-1,47
 908 661 908 661 863 672.5 c 128,-1,48
 818 684 818 684 764 684 c 2,49,-1
 692 684 l 1,50,-1
 734 926 l 1,51,-1
 788 926 l 2,52,53
 842 926 842 926 884 941.5 c 128,-1,54
 926 957 926 957 956.5 984.5 c 128,-1,55
 987 1012 987 1012 1006.5 1051 c 128,-1,56
 1026 1090 1026 1090 1034 1137 c 0,57,58
 1051 1234 1051 1234 1010.5 1281.5 c 128,-1,59
 970 1329 970 1329 889 1329 c 0,30,31
EndSplineSet
EndChar

